<svg width="35" height="22" viewBox="0 0 35 22" fill="none" xmlns="http://www.w3.org/2000/svg">
<path d="M27.5297 8.79318C27.9996 8.50296 28.1453 7.88677 27.855 7.41689C27.5648 6.94701 26.9486 6.80136 26.4787 7.09158L27.5297 8.79318ZM17.0876 14.0674L16.5621 14.9182C16.8842 15.1171 17.291 15.1171 17.6131 14.9182L17.0876 14.0674ZM7.69639 7.09158C7.22651 6.80136 6.61032 6.94701 6.3201 7.41689C6.02988 7.88677 6.17552 8.50296 6.64541 8.79318L7.69639 7.09158ZM26.4787 7.09158L16.5621 13.2166L17.6131 14.9182L27.5297 8.79318L26.4787 7.09158ZM17.6131 13.2166L7.69639 7.09158L6.64541 8.79318L16.5621 14.9182L17.6131 13.2166Z" fill="white"/>
</svg>
