<svg width="16" height="16" viewBox="0 0 16 16" fill="none" xmlns="http://www.w3.org/2000/svg">
<path d="M5.9974 11.333H7.9974M2.66406 2.66634V13.333C2.66406 13.6866 2.80454 14.0258 3.05459 14.2758C3.30464 14.5259 3.64377 14.6663 3.9974 14.6663H11.9974C12.351 14.6663 12.6902 14.5259 12.9402 14.2758C13.1903 14.0258 13.3307 13.6866 13.3307 13.333V5.56101C13.3307 5.38338 13.2952 5.20755 13.2263 5.04384C13.1574 4.88013 13.0564 4.73184 12.9294 4.60767L9.9694 1.71301C9.7203 1.46945 9.38578 1.33305 9.0374 1.33301H3.9974C3.64377 1.33301 3.30464 1.47348 3.05459 1.72353C2.80454 1.97358 2.66406 2.31272 2.66406 2.66634V2.66634ZM5.9974 8.66634H9.9974H5.9974Z" stroke="#777682" stroke-linecap="round" stroke-linejoin="round"/>
<path d="M9.32812 1.33301V3.99967C9.32812 4.3533 9.4686 4.69244 9.71865 4.94248C9.9687 5.19253 10.3078 5.33301 10.6615 5.33301H13.3281" stroke="#777682" stroke-linejoin="round"/>
</svg>
