<svg width="50" height="50" viewBox="0 0 50 50" fill="none" xmlns="http://www.w3.org/2000/svg">
<circle cx="25" cy="25" r="24.5" fill="#111319" stroke="#3D4048"/>
<rect x="15.2859" y="15.5706" width="21.7141" height="17.1427" rx="6" fill="#D54253"/>
<path d="M35.9606 17.0687L26.039 11.2514C25.4675 10.9162 24.5321 10.9162 23.9606 11.2514L14.0392 17.0687C13.4676 17.4039 13 18.2265 13 18.8968V30.5316C13.0445 31.3122 13.4371 31.9587 14.0392 32.3596L23.9607 38.1769C24.5322 38.5121 25.4675 38.5121 26.0391 38.1769L35.9606 32.3596C36.6067 31.9232 36.9744 31.2663 36.9998 30.5316V18.8968C36.9766 18.1915 36.5608 17.4802 35.9606 17.0687H35.9606ZM17 24.7142C16.953 16.7809 27.4158 13.2779 31.9277 20.6494L28.4656 22.684C26.3756 19.1733 21.1862 20.4287 20.9999 24.7142C21.0558 28.664 26.1563 30.4987 28.4658 26.7441L31.928 28.7788C27.9516 35.7892 17.2005 33.2669 17 24.7142H17ZM32.9998 25.1655H32.1109V26.0683H31.2221V25.1655H30.3332V24.2628H31.2221V23.3602H32.111V24.2628H32.9998V25.1655H32.9998ZM36.3331 25.1655H35.4442V26.0683H34.5554V25.1655H33.6665V24.2628H34.5555V23.3602H35.4442V24.2628H36.3332V25.1655H36.3331Z" fill="#111319"/>
</svg>
