<svg width="45" height="50" viewBox="0 0 45 50" fill="none" xmlns="http://www.w3.org/2000/svg">
<path d="M41.568 10.9298L24.7255 1.20506C23.9832 0.767848 23.0908 0.511719 22.1348 0.511719C21.1789 0.511719 20.2865 0.769479 19.5181 1.21811L19.5426 1.20506L2.70003 10.9298C1.91404 11.3863 1.2613 12.0406 0.806784 12.8277C0.352265 13.6148 0.111818 14.5072 0.109375 15.4162V34.8657C0.11127 35.7702 0.349135 36.6587 0.79947 37.4432C1.2498 38.2277 1.89703 38.8811 2.67719 39.3389L2.70329 39.352L19.5426 49.0767C20.3304 49.5339 21.2256 49.7732 22.1365 49.7701C23.0892 49.7701 23.9816 49.5123 24.75 49.0637L24.7271 49.0767L41.5664 39.352C42.3524 38.8955 43.0051 38.2412 43.4596 37.4541C43.9142 36.667 44.1546 35.7746 44.1571 34.8657V15.4162C44.1558 14.5116 43.9184 13.6231 43.4683 12.8385C43.0182 12.054 42.3711 11.4005 41.5909 10.9429L41.568 10.9298ZM40.705 34.8657C40.705 35.5003 40.3608 36.0566 39.8469 36.3567L39.8404 36.36L22.9979 46.0848C22.7337 46.2376 22.4337 46.3177 22.1285 46.3169C21.8233 46.316 21.5237 46.2342 21.2604 46.0799L21.2686 46.0831L4.42605 36.3584C4.16372 36.2069 3.94587 35.9891 3.79439 35.7268C3.6429 35.4645 3.56311 35.1669 3.56304 34.864V15.4145C3.56304 14.7799 3.90726 14.2236 4.42115 13.9234L4.42768 13.9202L21.2702 4.19541C21.5345 4.04317 21.8342 3.96317 22.1391 3.96345C22.4441 3.96374 22.7437 4.0443 23.0076 4.19704L22.9979 4.19378L39.8404 13.9185C40.3608 14.2203 40.7034 14.7783 40.7034 15.4129L40.705 34.8657Z" fill="#D54253"/>
<path d="M32.0749 30.77H30.8383C30.5439 30.7693 30.2544 30.8452 29.9982 30.9903L30.008 30.9838L22.5459 35.0818L13.9289 30.1077V20.1855L22.5459 15.2082L30.0112 19.2932C30.2494 19.4269 30.5382 19.5069 30.84 19.5069H32.0766C32.1901 19.5067 32.3025 19.4841 32.4073 19.4404C32.5121 19.3968 32.6073 19.3329 32.6875 19.2525C32.7676 19.172 32.8311 19.0766 32.8744 18.9716C32.9176 18.8666 32.9398 18.7542 32.9396 18.6406V17.4725C32.9397 17.3187 32.8989 17.1676 32.8211 17.0348C32.7434 16.902 32.6317 16.7924 32.4975 16.7172L32.4909 16.7139L24.2067 12.1836C23.6837 11.8977 23.0957 11.7518 22.4998 11.7601C21.9038 11.7684 21.3201 11.9306 20.8053 12.2309L20.8216 12.2211L12.2062 17.1952C11.6826 17.5003 11.2478 17.9369 10.9448 18.4616C10.6418 18.9864 10.481 19.5812 10.4785 20.1872V30.1093C10.4785 31.3802 11.167 32.4928 12.1898 33.0915L12.2045 33.1013L20.8199 38.0754C21.3372 38.3729 21.9224 38.532 22.519 38.5375C23.1157 38.5429 23.7037 38.3944 24.2263 38.1064L24.2067 38.1162L32.4942 33.5695C32.6307 33.4954 32.7446 33.3858 32.8238 33.2522C32.9031 33.1187 32.9448 32.9662 32.9445 32.8109V31.6428C32.944 31.4141 32.853 31.1948 32.6912 31.0331C32.5295 30.8713 32.3102 30.7803 32.0815 30.7798L32.0749 30.77Z" fill="#D54253"/>
</svg>
