<svg width="27" height="28" viewBox="0 0 27 28" fill="none" xmlns="http://www.w3.org/2000/svg">
<g filter="url(#filter0_d_2456_5311)">
<path d="M13.9631 19.7154C12.0774 19.7154 10.4554 19.3159 9.09712 18.5169C7.7468 17.7099 6.7081 16.5913 5.981 15.161C5.2619 13.7308 4.90234 12.0849 4.90234 10.2232C4.90234 8.33754 5.26589 6.68359 5.99299 5.26136C6.72807 3.83114 7.77077 2.71653 9.12109 1.91752C10.4714 1.11053 12.0774 0.707031 13.9391 0.707031C15.5451 0.707031 16.9514 0.998668 18.1578 1.58194C19.3643 2.16522 20.3192 2.9842 21.0223 4.03888C21.7254 5.09357 22.1129 6.33203 22.1848 7.75426H17.3668C17.231 6.8354 16.8714 6.09632 16.2882 5.53702C15.7129 4.96973 14.9578 4.68608 14.023 4.68608C13.232 4.68608 12.5408 4.90181 11.9496 5.33327C11.3663 5.75675 10.9109 6.37598 10.5833 7.19096C10.2557 8.00595 10.0919 8.99272 10.0919 10.1513C10.0919 11.3258 10.2517 12.3246 10.5713 13.1475C10.8989 13.9705 11.3583 14.5977 11.9496 15.0292C12.5408 15.4607 13.232 15.6764 14.023 15.6764C14.6063 15.6764 15.1296 15.5566 15.593 15.3168C16.0645 15.0771 16.452 14.7296 16.7556 14.2741C17.0672 13.8107 17.271 13.2554 17.3668 12.6082H22.1848C22.1049 14.0145 21.7214 15.2529 21.0343 16.3236C20.3551 17.3863 19.4163 18.2172 18.2178 18.8165C17.0193 19.4157 15.601 19.7154 13.9631 19.7154Z" fill="#D54253"/>
</g>
<defs>
<filter id="filter0_d_2456_5311" x="0.902344" y="0.707031" width="25.2832" height="27.0078" filterUnits="userSpaceOnUse" color-interpolation-filters="sRGB">
<feFlood flood-opacity="0" result="BackgroundImageFix"/>
<feColorMatrix in="SourceAlpha" type="matrix" values="0 0 0 0 0 0 0 0 0 0 0 0 0 0 0 0 0 0 127 0" result="hardAlpha"/>
<feOffset dy="4"/>
<feGaussianBlur stdDeviation="2"/>
<feComposite in2="hardAlpha" operator="out"/>
<feColorMatrix type="matrix" values="0 0 0 0 0 0 0 0 0 0 0 0 0 0 0 0 0 0 0.25 0"/>
<feBlend mode="normal" in2="BackgroundImageFix" result="effect1_dropShadow_2456_5311"/>
<feBlend mode="normal" in="SourceGraphic" in2="effect1_dropShadow_2456_5311" result="shape"/>
</filter>
</defs>
</svg>
