<svg width="23" height="25" viewBox="0 0 23 25" fill="none" xmlns="http://www.w3.org/2000/svg">
<path d="M9.01701 19.9729H3.10385C3.10195 19.9729 3.09804 19.9728 3.09003 19.9686C3.08105 19.964 3.06556 19.9533 3.04784 19.9316C3.01138 19.8868 2.97656 19.8078 2.97656 19.7037V12.3442H9.01735V14.6589V15.6293L9.80757 15.0661C9.94063 14.9712 10.0829 14.9239 10.2263 14.9239C10.6467 14.9239 11.1562 15.3913 11.1408 16.1903L11.1408 16.1905C11.1266 16.9421 10.6225 17.3931 10.2258 17.3932C10.0828 17.3929 9.94078 17.3456 9.80691 17.2504L9.01701 16.6883V17.6578V19.9729Z" stroke="url(#paint0_linear_3184_16285)"/>
<path d="M7.7615 11.8406H9.01701V11.3406M7.7615 11.8406L9.01701 3.71094M7.7615 11.8406C7.73495 11.7672 7.70517 11.6958 7.67236 11.6265L7.2205 11.8406V12.3406H7.37965C7.40093 12.4594 7.41222 12.5828 7.41222 12.7095C7.41222 13.6809 6.75989 14.4662 5.96283 14.443L7.7615 11.8406ZM9.01701 11.3406H9.51701V3.71094H9.01701M9.01701 11.3406H7.2205H6.43039L6.76863 12.0546C6.85809 12.2435 6.91222 12.4667 6.91222 12.7095C6.91222 13.504 6.39797 13.9554 5.97733 13.9432L5.97727 13.9432C5.57795 13.9317 5.08142 13.4612 5.0817 12.7084V12.7082C5.0817 12.4657 5.13574 12.2432 5.22529 12.0542L5.56353 11.3401H4.77342H2.97656V3.97978C2.97656 3.87607 3.0113 3.79723 3.04783 3.75246C3.0656 3.7307 3.08115 3.71997 3.09021 3.71527C3.09831 3.71107 3.10228 3.71094 3.10419 3.71094H9.01701M9.01701 11.3406V3.71094" stroke="url(#paint1_linear_3184_16285)"/>
<path d="M11.1465 11.3418C11.1292 11.2214 11.1202 11.0981 11.1202 10.973C11.1202 9.82253 11.9111 8.70532 13.0838 8.73874M11.1465 11.3418L13.0695 9.23853M11.1465 11.3418H10.015V9.02499V8.04913L9.22296 8.61916C9.09076 8.7143 8.94959 8.76123 8.80612 8.76123C8.38608 8.76123 7.87562 8.29314 7.89093 7.4951C7.90634 6.74155 8.40963 6.29155 8.80749 6.29155C8.9493 6.29155 9.0905 6.33829 9.22296 6.43362L10.015 7.00365V6.02779V3.71094H15.9278C15.9293 3.71094 15.933 3.71095 15.9411 3.71515C15.9501 3.71985 15.9658 3.73067 15.9837 3.75266C16.0206 3.79797 16.0551 3.87709 16.0551 3.97978V11.3418M11.1465 11.3418H16.0551M13.0838 8.73874L13.0695 9.23853M13.0838 8.73874C13.0837 8.73873 13.0836 8.73873 13.0834 8.73873L13.0695 9.23853M13.0838 8.73874C14.1982 8.76993 14.95 9.87274 14.95 10.973C14.95 11.0984 14.9411 11.2217 14.9239 11.3418M13.0695 9.23853C13.8258 9.25955 14.45 10.0461 14.45 10.973C14.45 11.0997 14.4388 11.2231 14.4176 11.3418H14.9239M14.9239 11.3418H16.0551M14.9239 11.3418C14.8991 11.5158 14.857 11.6833 14.7997 11.8418L16.0551 11.3418" stroke="url(#paint2_linear_3184_16285)"/>
<path d="M17.0628 8.73377V6.33106C17.1315 6.3082 17.2015 6.29688 17.2721 6.29688C17.6919 6.29688 18.2023 6.76487 18.187 7.56353C18.1716 8.31718 17.6681 8.76772 17.2701 8.76772C17.2005 8.76772 17.1311 8.75648 17.0628 8.73377Z" stroke="url(#paint3_linear_3184_16285)"/>
<path d="M1.9838 6.33103V8.73396C1.91513 8.75681 1.84516 8.76814 1.77454 8.76814C1.35476 8.76814 0.844365 8.30011 0.859683 7.50141C0.875098 6.7473 1.37859 6.29688 1.7766 6.29688C1.846 6.29688 1.91539 6.30818 1.9838 6.33103Z" stroke="url(#paint4_linear_3184_16285)"/>
<path d="M1.9838 14.9578V17.3605C1.91513 17.3833 1.84516 17.3947 1.77454 17.3947C1.35476 17.3947 0.844357 16.9266 0.859683 16.1279C0.875105 15.3743 1.37853 14.9238 1.7766 14.9238C1.84613 14.9238 1.91552 14.9351 1.9838 14.9578Z" stroke="url(#paint5_linear_3184_16285)"/>
<path d="M13.9797 2.34836C13.9797 2.47679 13.9643 2.59996 13.9363 2.71558H12.1918C12.1638 2.59978 12.1484 2.47596 12.1484 2.34626C12.1484 1.55185 12.6628 1.0997 13.0826 1.1116C13.4843 1.12413 13.9797 1.5944 13.9797 2.34836Z" stroke="url(#paint6_linear_3184_16285)"/>
<path d="M6.90939 2.34836C6.90939 2.47679 6.89403 2.59996 6.86599 2.71558H5.12143C5.09347 2.59973 5.07812 2.47591 5.07812 2.34626C5.07812 1.55185 5.5925 1.0997 6.01232 1.1116C6.41399 1.12413 6.90939 1.59441 6.90939 2.34836Z" stroke="url(#paint7_linear_3184_16285)"/>
<path d="M4.77088 20.4785C4.64843 20.7341 4.57812 21.0305 4.57812 21.3458C4.57812 22.2748 5.20234 23.0588 5.95997 23.0823C6.75671 23.1055 7.40905 22.3189 7.40905 21.3483C7.40905 21.0309 7.33874 20.7349 7.21629 20.4789H4.77088V20.4785Z" fill="url(#paint8_linear_3184_16285)"/>
<path d="M20.7435 20.418C20.8209 20.4831 20.9036 20.5307 20.9885 20.561L20.7435 20.418ZM20.7435 20.418L21.2843 18.134C21.3371 18.1392 21.3904 18.1511 21.4441 18.1702L20.7435 20.418ZM22.0825 19.7641C21.9029 20.4569 21.3581 20.6924 20.9887 20.5611L21.4443 18.1703C21.899 18.3323 22.2757 19.0137 22.0825 19.7641Z" stroke="url(#paint9_linear_3184_16285)"/>
<path d="M16.7978 23.2442L16.7977 23.2448C16.6315 23.9466 16.0871 24.1997 15.7158 24.0798C15.2593 23.9315 14.8723 23.263 15.0508 22.5094L15.0508 22.5092C15.0751 22.4067 15.1084 22.3126 15.1485 22.2274L16.8386 22.8288C16.8435 22.9666 16.8306 23.1066 16.7978 23.2442Z" stroke="url(#paint10_linear_3184_16285)"/>
<path d="M19.1637 13.2893L19.1636 13.2896C19.1394 13.3922 19.1061 13.4862 19.066 13.5714L17.376 12.9699C17.3712 12.8322 17.3841 12.6919 17.4168 12.5539C17.5829 11.8525 18.1271 11.5992 18.4989 11.7189C18.955 11.8673 19.3422 12.5359 19.1637 13.2893Z" stroke="url(#paint11_linear_3184_16285)"/>
<path d="M15.0192 14.8166L15.0202 14.8169C16.0447 15.1806 16.5485 16.429 16.3161 17.5035L15.0192 14.8166ZM15.0192 14.8166C14.9324 14.786 14.845 14.7628 14.7576 14.7469L15.1177 13.2264L20.9308 15.2949L19.2462 22.4067C19.2462 22.4068 19.2462 22.4068 19.2462 22.4069C19.2235 22.5025 19.1783 22.55 19.1529 22.5671C19.1406 22.5754 19.1333 22.5767 19.1319 22.577L19.1318 22.577C19.1311 22.5771 19.129 22.5775 19.1229 22.5753L19.1228 22.5753M15.0192 14.8166L19.1228 22.5753M19.1228 22.5753L13.3867 20.5342L13.7435 19.0279M19.1228 22.5753L13.7435 19.0279M13.7435 19.0279C13.7933 19.0512 13.8446 19.0723 13.8973 19.091C15.0306 19.4941 16.0697 18.6435 16.316 17.5037L13.7435 19.0279Z" stroke="url(#paint12_linear_3184_16285)"/>
<defs>
<linearGradient id="paint0_linear_3184_16285" x1="6.85778" y1="13.1059" x2="6.85778" y2="19.1644" gradientUnits="userSpaceOnUse">
<stop offset="0.247917" stop-color="#D7495A"/>
<stop offset="1" stop-color="#FF8F6B"/>
</linearGradient>
<linearGradient id="paint1_linear_3184_16285" x1="5.84234" y1="4.85393" x2="5.84234" y2="12.7403" gradientUnits="userSpaceOnUse">
<stop offset="0.247917" stop-color="#D7495A"/>
<stop offset="1" stop-color="#FF8F6B"/>
</linearGradient>
<linearGradient id="paint2_linear_3184_16285" x1="11.7718" y1="4.47338" x2="11.7718" y2="10.5331" gradientUnits="userSpaceOnUse">
<stop offset="0.247917" stop-color="#D7495A"/>
<stop offset="1" stop-color="#FF8F6B"/>
</linearGradient>
<linearGradient id="paint3_linear_3184_16285" x1="17.5783" y1="6.30456" x2="17.5783" y2="8.74142" gradientUnits="userSpaceOnUse">
<stop offset="0.247917" stop-color="#D7495A"/>
<stop offset="1" stop-color="#FF8F6B"/>
</linearGradient>
<linearGradient id="paint4_linear_3184_16285" x1="1.37515" y1="6.30462" x2="1.37515" y2="8.74178" gradientUnits="userSpaceOnUse">
<stop offset="0.247917" stop-color="#D7495A"/>
<stop offset="1" stop-color="#FF8F6B"/>
</linearGradient>
<linearGradient id="paint5_linear_3184_16285" x1="1.37515" y1="14.9315" x2="1.37515" y2="17.3684" gradientUnits="userSpaceOnUse">
<stop offset="0.247917" stop-color="#D7495A"/>
<stop offset="1" stop-color="#FF8F6B"/>
</linearGradient>
<linearGradient id="paint6_linear_3184_16285" x1="13.002" y1="0.992252" x2="13.002" y2="2.82068" gradientUnits="userSpaceOnUse">
<stop offset="0.247917" stop-color="#D7495A"/>
<stop offset="1" stop-color="#FF8F6B"/>
</linearGradient>
<linearGradient id="paint7_linear_3184_16285" x1="5.93165" y1="0.992252" x2="5.93165" y2="2.82068" gradientUnits="userSpaceOnUse">
<stop offset="0.247917" stop-color="#D7495A"/>
<stop offset="1" stop-color="#FF8F6B"/>
</linearGradient>
<linearGradient id="paint8_linear_3184_16285" x1="5.93148" y1="20.8594" x2="5.93148" y2="22.6879" gradientUnits="userSpaceOnUse">
<stop offset="0.247917" stop-color="#D7495A"/>
<stop offset="1" stop-color="#FF8F6B"/>
</linearGradient>
<linearGradient id="paint9_linear_3184_16285" x1="21.3606" y1="18.1382" x2="21.3606" y2="20.5732" gradientUnits="userSpaceOnUse">
<stop offset="0.247917" stop-color="#D7495A"/>
<stop offset="1" stop-color="#FF8F6B"/>
</linearGradient>
<linearGradient id="paint10_linear_3184_16285" x1="15.8616" y1="22.0618" x2="15.8616" y2="24.1585" gradientUnits="userSpaceOnUse">
<stop offset="0.247917" stop-color="#D7495A"/>
<stop offset="1" stop-color="#FF8F6B"/>
</linearGradient>
<linearGradient id="paint11_linear_3184_16285" x1="18.2287" y1="11.6243" x2="18.2287" y2="13.7209" gradientUnits="userSpaceOnUse">
<stop offset="0.247917" stop-color="#D7495A"/>
<stop offset="1" stop-color="#FF8F6B"/>
</linearGradient>
<linearGradient id="paint12_linear_3184_16285" x1="16.9674" y1="14.1055" x2="16.9674" y2="21.4836" gradientUnits="userSpaceOnUse">
<stop offset="0.247917" stop-color="#D7495A"/>
<stop offset="1" stop-color="#FF8F6B"/>
</linearGradient>
</defs>
</svg>
