<svg width="40" height="30" viewBox="0 0 40 30" fill="none" xmlns="http://www.w3.org/2000/svg">
<g filter="url(#filter0_d_1413_4447)">
<path fill-rule="evenodd" clip-rule="evenodd" d="M1.95312 6.45308H38.0595V27.2634H1.95312V6.45308ZM16.8961 21.5604L8.60231 17.9252V15.9233L16.8961 12.2881V14.6584L11.1046 16.8912L16.8961 19.2285V21.5604ZM17.6506 23.1937L20.6468 10.5558H22.3892L19.3604 23.1937H17.6506ZM23.1491 21.5934V19.2285L28.9081 16.9297L23.1491 14.6639V12.2936L31.4104 15.9288V17.9307L23.1491 21.5934ZM1.95312 0.183594H38.0595V5.45217H1.95312V0.183594ZM27.7574 2.38342H29.7331V4.25326H27.7574V2.38342ZM30.9815 2.38342H32.9573V4.25326H30.9815V2.38342ZM34.2111 2.38342H36.1869V4.25326H34.2111V2.38342Z" fill="white" fill-opacity="0.1" shape-rendering="crispEdges"/>
<path d="M16.7754 21.8359L17.197 22.0208V21.5604V19.2285V19.0255L17.0087 18.9495L11.9244 16.8976L17.0044 14.9392L17.197 14.8649V14.6584V12.2881V11.8277L16.7754 12.0125L8.48152 15.6477L8.30142 15.7267V15.9233V17.9252V18.1218L8.48152 18.2007L16.7754 21.8359ZM17.3578 23.1243L17.2701 23.4946H17.6506H19.3604H19.5977L19.653 23.2638L22.6818 10.6259L22.7707 10.2549H22.3892H20.6468H20.4089L20.354 10.4863L17.3578 23.1243ZM22.8482 21.5934V22.0559L23.271 21.8684L31.5323 18.2057L31.7112 18.1264V17.9307V15.9288V15.7325L31.5315 15.6534L23.2703 12.0182L22.8482 11.8325V12.2936V14.6639V14.8689L23.0389 14.9439L28.0914 16.9318L23.0375 18.9491L22.8482 19.0247V19.2285V21.5934ZM27.7574 2.08253H27.4565V2.38342V4.25326V4.55415H27.7574H29.7331H30.034V4.25326V2.38342V2.08253H29.7331H27.7574ZM30.9815 2.08253H30.6807V2.38342V4.25326V4.55415H30.9815H32.9573H33.2582V4.25326V2.38342V2.08253H32.9573H30.9815ZM34.2111 2.08253H33.9103V2.38342V4.25326V4.55415H34.2111H36.1869H36.4878V4.25326V2.38342V2.08253H36.1869H34.2111ZM2.25401 6.75397H37.7586V26.9625H2.25401V6.75397ZM2.25401 0.48448H37.7586V5.15128H2.25401V0.48448Z" stroke="white" stroke-opacity="0.75" stroke-width="0.601773" shape-rendering="crispEdges"/>
</g>
<defs>
<filter id="filter0_d_1413_4447" x="0.749578" y="0.183594" width="38.5135" height="29.4852" filterUnits="userSpaceOnUse" color-interpolation-filters="sRGB">
<feFlood flood-opacity="0" result="BackgroundImageFix"/>
<feColorMatrix in="SourceAlpha" type="matrix" values="0 0 0 0 0 0 0 0 0 0 0 0 0 0 0 0 0 0 127 0" result="hardAlpha"/>
<feOffset dy="1.20355"/>
<feGaussianBlur stdDeviation="0.601773"/>
<feComposite in2="hardAlpha" operator="out"/>
<feColorMatrix type="matrix" values="0 0 0 0 0 0 0 0 0 0 0 0 0 0 0 0 0 0 0.25 0"/>
<feBlend mode="normal" in2="BackgroundImageFix" result="effect1_dropShadow_1413_4447"/>
<feBlend mode="normal" in="SourceGraphic" in2="effect1_dropShadow_1413_4447" result="shape"/>
</filter>
</defs>
</svg>
