<svg width="12" height="12" viewBox="0 0 12 12" fill="none" xmlns="http://www.w3.org/2000/svg">
<path d="M9.5 1.5H2.5C2.23478 1.5 1.98043 1.60536 1.79289 1.79289C1.60536 1.98043 1.5 2.23478 1.5 2.5V9.5C1.5 9.76522 1.60536 10.0196 1.79289 10.2071C1.98043 10.3946 2.23478 10.5 2.5 10.5H9.5C10.05 10.5 10.5 10.05 10.5 9.5V2.5C10.5 2.23478 10.3946 1.98043 10.2071 1.79289C10.0196 1.60536 9.76522 1.5 9.5 1.5ZM9.5 9.5H2.5V3.5H9.5V9.5ZM6.75 6.5C6.75 6.915 6.415 7.25 6 7.25C5.585 7.25 5.25 6.915 5.25 6.5C5.25 6.085 5.585 5.75 6 5.75C6.415 5.75 6.75 6.085 6.75 6.5ZM6 4.5C4.635 4.5 3.47 5.33 3 6.5C3.47 7.67 4.635 8.5 6 8.5C7.365 8.5 8.53 7.67 9 6.5C8.53 5.33 7.365 4.5 6 4.5ZM6 7.75C5.66848 7.75 5.35054 7.6183 5.11612 7.38388C4.8817 7.14946 4.75 6.83152 4.75 6.5C4.75 6.16848 4.8817 5.85054 5.11612 5.61612C5.35054 5.3817 5.66848 5.25 6 5.25C6.33152 5.25 6.64946 5.3817 6.88388 5.61612C7.1183 5.85054 7.25 6.16848 7.25 6.5C7.25 6.83152 7.1183 7.14946 6.88388 7.38388C6.64946 7.6183 6.33152 7.75 6 7.75Z" fill="white"/>
</svg>
