<svg width="32" height="32" viewBox="0 0 32 32" fill="none" xmlns="http://www.w3.org/2000/svg">
<path d="M16 28C22.6274 28 28 22.6274 28 16C28 9.37258 22.6274 4 16 4C9.37258 4 4 9.37258 4 16C4 22.6274 9.37258 28 16 28Z" stroke="white" stroke-width="2" stroke-linecap="round" stroke-linejoin="round"/>
<path d="M15.076 12.9853L20 12L19.0147 16.924C18.9115 17.4401 18.658 17.9141 18.2859 18.2864C17.9139 18.6587 17.44 18.9125 16.924 19.016L12 20L12.9853 15.076C13.0887 14.5601 13.3424 14.0864 13.7144 13.7144C14.0864 13.3424 14.5601 13.0887 15.076 12.9853Z" stroke="white" stroke-width="2" stroke-linecap="round" stroke-linejoin="round"/>
</svg>
