<svg width="24" height="25" viewBox="0 0 24 25" fill="none" xmlns="http://www.w3.org/2000/svg">
<path d="M3.92968 17.3825L5.00218 16.3175C3.82784 15.2631 2.90516 13.9585 2.30218 12.5C3.82468 8.6975 8.02468 5.75 11.9997 5.75C13.0226 5.7635 14.0363 5.94596 14.9997 6.29L16.1622 5.12C14.8442 4.56299 13.4305 4.26751 11.9997 4.25C9.55507 4.34193 7.19097 5.14817 5.19958 6.56906C3.20819 7.98996 1.6768 9.96324 0.794681 12.245C0.735106 12.4098 0.735106 12.5902 0.794681 12.755C1.46087 14.5228 2.535 16.1083 3.92968 17.3825Z" fill="#868991"/>
<path d="M9 12.2975C9.05216 11.5788 9.36127 10.9029 9.87081 10.3933C10.3804 9.88377 11.0563 9.57466 11.775 9.5225L13.1325 8.1575C12.3718 7.95721 11.5719 7.95981 10.8126 8.16505C10.0532 8.37028 9.36091 8.77098 8.8047 9.3272C8.24848 9.88341 7.84778 10.5757 7.64255 11.3351C7.43731 12.0944 7.43471 12.8943 7.635 13.655L9 12.2975ZM23.205 12.245C22.345 10.0049 20.8486 8.06527 18.9 6.665L22.5 3.0575L21.4425 2L1.5 21.9425L2.5575 23L6.3825 19.175C8.08791 20.1755 10.023 20.7181 12 20.75C14.4446 20.6581 16.8087 19.8518 18.8001 18.4309C20.7915 17.01 22.3229 15.0368 23.205 12.755C23.2646 12.5902 23.2646 12.4098 23.205 12.245ZM15 12.5C14.9968 13.0251 14.8559 13.5401 14.5913 13.9937C14.3267 14.4472 13.9477 14.8234 13.4922 15.0845C13.0367 15.3457 12.5206 15.4827 11.9955 15.482C11.4704 15.4812 10.9547 15.3426 10.5 15.08L14.58 11C14.8496 11.4543 14.9945 11.9717 15 12.5ZM12 19.25C10.4265 19.2225 8.88292 18.816 7.5 18.065L9.405 16.16C10.2715 16.7612 11.3217 17.039 12.3721 16.9449C13.4225 16.8507 14.4065 16.3906 15.1523 15.6448C15.8981 14.899 16.3582 13.915 16.4524 12.8646C16.5465 11.8142 16.2687 10.764 15.6675 9.8975L17.82 7.745C19.5409 8.92624 20.8867 10.5766 21.6975 12.5C20.175 16.3025 15.975 19.25 12 19.25Z" fill="#868991"/>
</svg>
