<svg width="24" height="18" viewBox="0 0 24 18" fill="none" xmlns="http://www.w3.org/2000/svg">
<path d="M12 0.75C19.5 0.75 24 9 24 9C24 9 19.5 17.25 12 17.25C4.5 17.25 0 9 0 9C0 9 4.5 0.75 12 0.75ZM12 2.25C6.72 2.25 2.997 7.1265 1.7625 9C2.9955 10.872 6.7185 15.75 12 15.75C17.28 15.75 21.003 10.8735 22.2375 9C21.0045 7.128 17.2815 2.25 12 2.25ZM12 3.75C13.3924 3.75 14.7277 4.30312 15.7123 5.28769C16.6969 6.27226 17.25 7.60761 17.25 9C17.25 10.3924 16.6969 11.7277 15.7123 12.7123C14.7277 13.6969 13.3924 14.25 12 14.25C10.6076 14.25 9.27226 13.6969 8.28769 12.7123C7.30312 11.7277 6.75 10.3924 6.75 9C6.75 7.60761 7.30312 6.27226 8.28769 5.28769C9.27226 4.30312 10.6076 3.75 12 3.75ZM12 5.25C11.0058 5.25119 10.0527 5.64666 9.34966 6.34966C8.64666 7.05267 8.25119 8.0058 8.25 9C8.25 11.067 9.9315 12.75 12 12.75C14.0685 12.75 15.75 11.067 15.75 9C15.75 6.933 14.0685 5.25 12 5.25Z" fill="#868991"/>
</svg>
