<svg width="25" height="24" viewBox="0 0 25 24" fill="none" xmlns="http://www.w3.org/2000/svg">
<path d="M17.0996 3.50005C17.0996 3.36745 17.0469 3.24027 16.9532 3.1465C16.8594 3.05273 16.7322 3.00005 16.5996 3.00005H14.0996C12.8407 2.93734 11.6082 3.37544 10.6713 4.21863C9.73446 5.06182 9.16939 6.24155 9.09961 7.50005V10.2001H6.59961C6.467 10.2001 6.33982 10.2527 6.24606 10.3465C6.15229 10.4403 6.09961 10.5674 6.09961 10.7001V13.3001C6.09961 13.4327 6.15229 13.5598 6.24606 13.6536C6.33982 13.7474 6.467 13.8001 6.59961 13.8001H9.09961V20.5001C9.09961 20.6327 9.15229 20.7598 9.24606 20.8536C9.33982 20.9474 9.467 21.0001 9.59961 21.0001H12.5996C12.7322 21.0001 12.8594 20.9474 12.9532 20.8536C13.0469 20.7598 13.0996 20.6327 13.0996 20.5001V13.8001H15.7196C15.8308 13.8017 15.9394 13.7661 16.0281 13.6991C16.1168 13.6321 16.1807 13.5374 16.2096 13.4301L16.9296 10.8301C16.9495 10.7562 16.9522 10.6787 16.9374 10.6036C16.9227 10.5286 16.8909 10.4579 16.8445 10.397C16.7982 10.3362 16.7384 10.2868 16.67 10.2526C16.6015 10.2185 16.5261 10.2005 16.4496 10.2001H13.0996V7.50005C13.1245 7.25253 13.2407 7.02317 13.4256 6.85675C13.6105 6.69033 13.8508 6.59881 14.0996 6.60005H16.5996C16.7322 6.60005 16.8594 6.54737 16.9532 6.45361C17.0469 6.35984 17.0996 6.23266 17.0996 6.10005V3.50005Z" fill="#0B84EE"/>
</svg>
