<svg width="23" height="24" viewBox="0 0 23 24" fill="none" xmlns="http://www.w3.org/2000/svg">
<path d="M20.125 21C20.6773 21 21.125 20.5523 21.125 20C21.125 19.4477 20.6773 19 20.125 19V21ZM3.83333 20L3.83333 21H3.83333V20ZM2.875 19H3.875H2.875ZM2.875 6L2.875 5C2.60978 5 2.35543 5.10536 2.16789 5.29289C1.98036 5.48043 1.875 5.73478 1.875 6L2.875 6ZM19.1667 6V5V6ZM20.125 7L19.125 7V7H20.125ZM19.125 13C19.125 13.5523 19.5727 14 20.125 14C20.6773 14 21.125 13.5523 21.125 13H19.125ZM20.125 19L3.83333 19L3.83333 21L20.125 21V19ZM3.875 19L3.875 6L1.875 6L1.875 19H3.875ZM2.875 7L19.1667 7V5L2.875 5L2.875 7ZM19.125 7V13H21.125V7H19.125ZM19.1667 7C19.1565 7 19.1453 6.99757 19.1359 6.99344C19.1274 6.98967 19.1233 6.98587 19.1223 6.9848C19.1204 6.98276 19.125 6.98606 19.125 7L21.125 7C21.125 5.93597 20.2879 5 19.1667 5V7ZM3.83333 19C3.84351 19 3.85472 19.0024 3.86408 19.0066C3.87263 19.0103 3.87666 19.0141 3.87768 19.0152C3.87963 19.0172 3.875 19.0139 3.875 19H1.875C1.875 20.064 2.71209 21 3.83333 21L3.83333 19Z" fill="#777682"/>
<path d="M19.4031 20V21V20ZM4.14642 20L4.14642 19L4.14642 20ZM3.22496 18.7253L4.18945 18.9894L4.18945 18.9894L3.22496 18.7253ZM4.79259 13V12C4.34201 12 3.94708 12.3013 3.82809 12.7359L4.79259 13ZM21.6936 14.2747L20.7291 14.0106V14.0106L21.6936 14.2747ZM20.3245 19.2747L21.289 19.5388L20.3245 19.2747ZM20.7721 13V12V13ZM19.4031 19L4.14642 19L4.14642 21L19.4031 21V19ZM4.18945 18.9894L5.75709 13.2641L3.82809 12.7359L2.26046 18.4612L4.18945 18.9894ZM20.7291 14.0106L19.36 19.0106L21.289 19.5388L22.6581 14.5388L20.7291 14.0106ZM4.79259 14H20.7721V12H4.79259V14ZM22.6581 14.5388C22.9921 13.319 22.1249 12 20.7721 12L20.7721 14C20.768 14 20.7619 13.9994 20.7548 13.9976C20.7479 13.9959 20.7418 13.9934 20.737 13.9908C20.7277 13.9858 20.7255 13.9819 20.7268 13.9836C20.728 13.9854 20.7297 13.9888 20.7305 13.993C20.7311 13.9959 20.7317 14.001 20.7291 14.0106L22.6581 14.5388ZM4.14642 19C4.1505 19 4.15659 19.0006 4.16368 19.0024C4.17063 19.0041 4.17669 19.0066 4.18151 19.0092C4.19085 19.0142 4.19301 19.0181 4.19176 19.0164C4.19051 19.0146 4.18877 19.0112 4.18797 19.007C4.18743 19.0041 4.18682 18.999 4.18945 18.9894L2.26046 18.4612C1.92645 19.681 2.79366 21 4.14642 21L4.14642 19ZM19.4031 21C20.3065 21 21.0592 20.3781 21.289 19.5388L19.36 19.0106C19.3578 19.0185 19.3559 19.0171 19.3617 19.0126C19.3645 19.0103 19.3695 19.0071 19.3771 19.0044C19.385 19.0016 19.3941 19 19.4031 19V21Z" fill="#777682"/>
<path d="M11.5 6L9.86402 4.29289C9.6843 4.10536 9.44054 4 9.18638 4H3.83333C3.30406 4 2.875 4.44772 2.875 5V6" stroke="#777682" stroke-width="2" stroke-linecap="round" stroke-linejoin="round"/>
</svg>
