<svg width="25" height="24" viewBox="0 0 25 24" fill="none" xmlns="http://www.w3.org/2000/svg">
<g clip-path="url(#clip0_1603_6030)">
<rect x="0.300781" width="24" height="24" rx="12" fill="black"/>
<path d="M12.3008 0C9.11818 0 6.06594 1.26428 3.8155 3.51472C1.56506 5.76515 0.300781 8.8174 0.300781 12C0.300781 15.1826 1.56506 18.2348 3.8155 20.4853C6.06594 22.7357 9.11818 24 12.3008 24C15.4834 24 18.5356 22.7357 20.7861 20.4853C23.0365 18.2348 24.3008 15.1826 24.3008 12C24.3008 8.8174 23.0365 5.76515 20.7861 3.51472C18.5356 1.26428 15.4834 0 12.3008 0ZM15.4638 21.783H15.3708C15.3009 21.7869 15.231 21.7766 15.1653 21.7525C15.0996 21.7284 15.0395 21.6912 14.9888 21.643C14.9419 21.5934 14.9053 21.535 14.8813 21.4711C14.8573 21.4072 14.8462 21.3392 14.8488 21.271V19.865C14.8548 19.398 14.8588 18.925 14.8588 18.449C14.8571 18.1009 14.8063 17.7548 14.7078 17.421C14.6144 17.0835 14.4264 16.7799 14.1658 16.546C14.8628 16.4787 15.5479 16.3204 16.2038 16.075C16.757 15.8646 17.2574 15.5356 17.6698 15.111C18.0768 14.684 18.3798 14.168 18.5548 13.605C18.7677 12.9155 18.8689 12.1965 18.8548 11.475C18.8587 10.9713 18.7706 10.4711 18.5948 9.999C18.4162 9.5232 18.1461 9.08699 17.7998 8.715C17.8745 8.52739 17.9289 8.33226 17.9618 8.133C17.9948 7.933 18.0118 7.731 18.0118 7.529C18.0118 7.269 17.9818 7.009 17.9218 6.756C17.8673 6.4965 17.7934 6.24146 17.7008 5.993C17.6654 5.97921 17.6277 5.97242 17.5898 5.973H17.4798C17.2498 5.975 17.0238 6.013 16.8058 6.084C16.5656 6.15409 16.3307 6.24097 16.1028 6.344C15.8761 6.44561 15.6554 6.56013 15.4418 6.687C15.2268 6.814 15.0368 6.936 14.8688 7.049C13.1865 6.58013 11.4081 6.58013 9.72578 7.049C9.53817 6.92357 9.34744 6.80287 9.15378 6.687C8.93715 6.55907 8.7127 6.44485 8.48178 6.345C8.25444 6.23856 8.01863 6.15126 7.77678 6.084C7.56308 6.0134 7.33982 5.97597 7.11478 5.973H7.00478C6.96716 5.97247 6.9298 5.97926 6.89478 5.993C6.80084 6.2418 6.724 6.49673 6.66478 6.756C6.61078 7.01 6.58478 7.269 6.58378 7.529C6.58378 7.731 6.60078 7.933 6.63478 8.133C6.66778 8.332 6.72078 8.527 6.79478 8.715C6.44937 9.08748 6.1803 9.52404 6.00278 10C5.82606 10.4719 5.73693 10.9721 5.73978 11.476C5.72579 12.1936 5.82432 12.9089 6.03178 13.596C6.21278 14.159 6.51478 14.676 6.91578 15.112C7.33078 15.534 7.83078 15.862 8.38178 16.076C9.03478 16.326 9.71878 16.486 10.4148 16.552C10.2204 16.7281 10.0663 16.944 9.96278 17.185C9.86431 17.4233 9.79708 17.6734 9.76278 17.929C9.39586 18.1047 8.99458 18.1969 8.58778 18.199C8.20999 18.2141 7.83713 18.1091 7.52278 17.899C7.22122 17.6755 6.96584 17.3957 6.77078 17.075C6.68348 16.9403 6.58586 16.8126 6.47878 16.693C6.36582 16.5672 6.24127 16.4524 6.10678 16.35C5.97422 16.2509 5.82891 16.1702 5.67478 16.11C5.52313 16.0435 5.35937 16.0091 5.19378 16.009C5.15378 16.01 5.11378 16.014 5.07378 16.019C5.01915 16.0188 4.96472 16.0255 4.91178 16.039C4.86525 16.0512 4.82124 16.0715 4.78178 16.099C4.76384 16.1089 4.74884 16.1233 4.7383 16.1409C4.72776 16.1585 4.72206 16.1785 4.72178 16.199C4.72598 16.2471 4.7407 16.2937 4.76489 16.3356C4.78908 16.3774 4.82215 16.4134 4.86178 16.441C4.95478 16.515 5.03178 16.572 5.09378 16.612L5.12378 16.633C5.25678 16.736 5.38478 16.847 5.50578 16.966C5.61778 17.064 5.71878 17.175 5.80578 17.296C5.89578 17.415 5.97378 17.542 6.03678 17.677C6.10978 17.811 6.18678 17.965 6.26778 18.14C6.45578 18.614 6.78978 19.015 7.22178 19.285C7.67478 19.528 8.18278 19.649 8.69778 19.636C8.87178 19.636 9.04678 19.626 9.21978 19.606C9.39178 19.578 9.56278 19.549 9.73478 19.515V21.258C9.73789 21.3283 9.72614 21.3984 9.70029 21.4638C9.67445 21.5293 9.63508 21.5885 9.58478 21.6377C9.53447 21.6869 9.47436 21.7249 9.40836 21.7492C9.34236 21.7736 9.27197 21.7837 9.20178 21.779H9.13978C6.80782 21.0257 4.82145 19.4645 3.53835 17.3766C2.25525 15.2887 1.75975 12.8114 2.14106 10.3906C2.52238 7.9698 3.75546 5.7647 5.61825 4.17236C7.48105 2.58002 9.85116 1.70507 12.3018 1.70507C14.7524 1.70507 17.1225 2.58002 18.9853 4.17236C20.8481 5.7647 22.0812 7.9698 22.4625 10.3906C22.8438 12.8114 22.3483 15.2887 21.0652 17.3766C19.7821 19.4645 17.7957 21.0257 15.4638 21.779V21.783Z" fill="white"/>
</g>
<defs>
<clipPath id="clip0_1603_6030">
<rect x="0.300781" width="24" height="24" rx="12" fill="white"/>
</clipPath>
</defs>
</svg>
