<svg width="28" height="27" viewBox="0 0 28 27" fill="none" xmlns="http://www.w3.org/2000/svg">
<path d="M4.813 0.40625L3.405 1.81225L5.5 3.90625L6.906 2.50025L4.812 0.40625H4.813ZM23.188 0.40625L21.093 2.50025L22.5 3.90625L24.594 1.81325L23.188 0.40625ZM14 1.03025C13.67 1.03425 13.336 1.05325 13 1.09425C12.99 1.09425 12.98 1.09225 12.97 1.09425C8.914 1.55925 5.686 4.83625 5.125 8.87425C4.677 12.1242 6.017 15.0712 8.25 16.9692C9.16341 17.7488 9.78123 18.8185 10 19.9993V25.9993H12.28C12.628 26.5963 13.263 26.9993 14 26.9993C14.737 26.9993 15.372 26.5963 15.72 25.9993H18V21.9993H18.094V20.8113C18.094 19.3453 18.856 17.8673 20.094 16.7183C21.75 15.0603 23 12.7052 23 10.0002C23 5.06025 18.934 0.98425 14 1.03025ZM14 3.03025C17.865 2.97625 21 6.14025 21 10.0002C21 12.0942 20.03 13.9383 18.687 15.2803L18.719 15.3123C17.3844 16.543 16.5214 18.2011 16.279 20.0002H11.905C11.685 18.2862 10.95 16.6273 9.561 15.4373C7.794 13.9373 6.741 11.6772 7.093 9.12525C7.53 5.97525 10.086 3.44225 13.218 3.09525C13.4766 3.0592 13.737 3.03783 13.998 3.03125L14 3.03025ZM0 10.0002V12.0002H3V10.0002H0ZM25 10.0002V12.0002H28V10.0002H25ZM5.5 18.0942L3.406 20.1873L4.813 21.5942L6.905 19.5002L5.5 18.0942ZM22.5 18.0942L21.094 19.5002L23.187 21.5942L24.594 20.1873L22.5 18.0942ZM12 22.0002H16V24.0002H12V22.0002Z" fill="white"/>
</svg>
