<svg width="25" height="23" viewBox="0 0 25 23" fill="none" xmlns="http://www.w3.org/2000/svg">
<g filter="url(#filter0_d_301_18981)">
<path d="M10.7422 0.09375H8.74219V2.09375H6.74219V4.09375H8.74219V2.09375H10.7422V4.09375H12.7422V6.09375H10.7422V8.09375H8.74219V10.0938H6.74219V12.0938H4.74219V10.0938H2.74219V12.0938H4.74219V14.0938H6.74219V12.0938H10.7422V14.0938H12.7422V16.0938H10.7422V18.0938H12.7422V16.0938H14.7422V14.0938H12.7422V10.0938H14.7422V8.09375H16.7422V10.0938H18.7422V12.0938H20.7422V10.0938H22.7422V8.09375H20.7422V10.0938H18.7422V8.09375H16.7422V6.09375H18.7422V2.09375H14.7422V4.09375H12.7422V2.09375H10.7422V0.09375Z" fill="url(#paint0_linear_301_18981)"/>
</g>
<defs>
<filter id="filter0_d_301_18981" x="0.742188" y="0.09375" width="24" height="22" filterUnits="userSpaceOnUse" color-interpolation-filters="sRGB">
<feFlood flood-opacity="0" result="BackgroundImageFix"/>
<feColorMatrix in="SourceAlpha" type="matrix" values="0 0 0 0 0 0 0 0 0 0 0 0 0 0 0 0 0 0 127 0" result="hardAlpha"/>
<feOffset dy="2"/>
<feGaussianBlur stdDeviation="1"/>
<feComposite in2="hardAlpha" operator="out"/>
<feColorMatrix type="matrix" values="0 0 0 0 0 0 0 0 0 0 0 0 0 0 0 0 0 0 0.25 0"/>
<feBlend mode="normal" in2="BackgroundImageFix" result="effect1_dropShadow_301_18981"/>
<feBlend mode="normal" in="SourceGraphic" in2="effect1_dropShadow_301_18981" result="shape"/>
</filter>
<linearGradient id="paint0_linear_301_18981" x1="12.7422" y1="0.09375" x2="12.7422" y2="18.0938" gradientUnits="userSpaceOnUse">
<stop stop-color="#FFFAF9"/>
<stop offset="1" stop-color="#FFF7DA"/>
</linearGradient>
</defs>
</svg>
