<svg width="13" height="13" viewBox="0 0 13 13" fill="none" xmlns="http://www.w3.org/2000/svg">
<path d="M11.1053 9.62918H10.1678V8.69168C10.1678 8.64012 10.1256 8.59793 10.0741 8.59793H9.51155C9.45999 8.59793 9.4178 8.64012 9.4178 8.69168V9.62918H8.4803C8.42874 9.62918 8.38655 9.67137 8.38655 9.72293V10.2854C8.38655 10.337 8.42874 10.3792 8.4803 10.3792H9.4178V11.3167C9.4178 11.3682 9.45999 11.4104 9.51155 11.4104H10.0741C10.1256 11.4104 10.1678 11.3682 10.1678 11.3167V10.3792H11.1053C11.1569 10.3792 11.1991 10.337 11.1991 10.2854V9.72293C11.1991 9.67137 11.1569 9.62918 11.1053 9.62918ZM5.02913 6.42293C5.01858 6.32098 5.01273 6.21785 5.01273 6.11356C5.01273 5.92723 5.0303 5.74559 5.06312 5.56863C5.07132 5.52645 5.04905 5.48309 5.01038 5.46551C4.85101 5.39403 4.70452 5.29559 4.57796 5.17137C4.42883 5.02677 4.31147 4.85267 4.23339 4.66018C4.1553 4.46769 4.1182 4.26103 4.12444 4.0534C4.13499 3.67723 4.28616 3.31981 4.54983 3.05028C4.83929 2.75379 5.22835 2.59207 5.64202 2.59676C6.01585 2.60027 6.37679 2.74442 6.64983 2.99988C6.74241 3.0866 6.8221 3.1827 6.8889 3.28582C6.91233 3.32215 6.95804 3.33738 6.99788 3.32332C7.20413 3.25184 7.4221 3.20145 7.64593 3.17801C7.71155 3.17098 7.74905 3.10067 7.71976 3.04207C7.3389 2.28856 6.56077 1.76824 5.66077 1.75418C4.36233 1.73426 3.27952 2.79949 3.27952 4.09793C3.27952 4.83387 3.61819 5.49012 4.14905 5.9202C3.7764 6.09246 3.43304 6.33035 3.13538 6.62801C2.49319 7.26903 2.12991 8.11512 2.10647 9.01864C2.10616 9.03114 2.10836 9.04359 2.11293 9.05523C2.1175 9.06688 2.12435 9.07749 2.13309 9.08645C2.14183 9.0954 2.15227 9.10252 2.1638 9.10738C2.17533 9.11223 2.18771 9.11473 2.20022 9.11473H2.85765C2.90804 9.11473 2.95022 9.07489 2.9514 9.02449C2.97366 8.34481 3.24905 7.70848 3.73304 7.22567C4.07757 6.88114 4.49944 6.64207 4.95999 6.52606C5.00452 6.51317 5.03499 6.46981 5.02913 6.42293ZM10.3084 6.11356C10.3084 4.83153 9.27835 3.78973 8.00101 3.76981C6.70257 3.74988 5.62093 4.81512 5.62093 6.11356C5.62093 6.84949 5.96077 7.50574 6.49046 7.93582C6.11394 8.11035 5.77119 8.34996 5.47796 8.64364C4.83577 9.28465 4.47249 10.1307 4.44905 11.0331C4.44874 11.0456 4.45093 11.058 4.45551 11.0697C4.46008 11.0813 4.46693 11.0919 4.47567 11.1009C4.48441 11.1099 4.49485 11.117 4.50638 11.1218C4.51791 11.1267 4.53029 11.1292 4.5428 11.1292H5.19905C5.24944 11.1292 5.29163 11.0893 5.2928 11.0389C5.31507 10.3593 5.59046 9.72293 6.07444 9.24012C6.57952 8.73504 7.24983 8.45731 7.96468 8.45731C9.25843 8.45731 10.3084 7.40848 10.3084 6.11356ZM9.02523 7.1741C8.74163 7.4577 8.36546 7.61356 7.96468 7.61356C7.5639 7.61356 7.18773 7.4577 6.90413 7.1741C6.76261 7.03333 6.6508 6.86557 6.57531 6.68078C6.49982 6.49599 6.4622 6.29792 6.46468 6.09832C6.46819 5.71395 6.62171 5.34246 6.89007 5.06707C7.17132 4.77879 7.54749 4.61824 7.94944 4.61356C8.34671 4.61004 8.73226 4.76473 9.01585 5.04246C9.30648 5.32723 9.46585 5.70809 9.46585 6.11356C9.46468 6.51434 9.30882 6.89051 9.02523 7.1741Z" fill="white"/>
</svg>
