<svg width="27" height="26" viewBox="0 0 27 26" fill="none" xmlns="http://www.w3.org/2000/svg">
<path d="M24.9793 7.04134C24.9793 5.46109 24.3515 3.94557 23.2341 2.82816C22.1167 1.71076 20.6012 1.08301 19.0209 1.08301C17.4407 1.08301 15.9252 1.71076 14.8078 2.82816C13.6904 3.94557 13.0626 5.46109 13.0626 7.04134C13.0626 8.62159 13.6904 10.1371 14.8078 11.2545C15.9252 12.3719 17.4407 12.9997 19.0209 12.9997C20.6012 12.9997 22.1167 12.3719 23.2341 11.2545C24.3515 10.1371 24.9793 8.62159 24.9793 7.04134ZM19.5626 7.58301V10.2957C19.5626 10.4393 19.5055 10.5771 19.404 10.6787C19.3024 10.7803 19.1646 10.8373 19.0209 10.8373C18.8773 10.8373 18.7395 10.7803 18.6379 10.6787C18.5363 10.5771 18.4793 10.4393 18.4793 10.2957V7.58301H15.7655C15.6219 7.58301 15.4841 7.52594 15.3825 7.42436C15.2809 7.32277 15.2239 7.185 15.2239 7.04134C15.2239 6.89768 15.2809 6.75991 15.3825 6.65832C15.4841 6.55674 15.6219 6.49967 15.7655 6.49967H18.4793V3.79134C18.4793 3.64768 18.5363 3.50991 18.6379 3.40832C18.7395 3.30674 18.8773 3.24967 19.0209 3.24967C19.1646 3.24967 19.3024 3.30674 19.404 3.40832C19.5055 3.50991 19.5626 3.64768 19.5626 3.79134V6.49967H22.2666C22.4103 6.49967 22.548 6.55674 22.6496 6.65832C22.7512 6.75991 22.8083 6.89768 22.8083 7.04134C22.8083 7.185 22.7512 7.32277 22.6496 7.42436C22.548 7.52594 22.4103 7.58301 22.2666 7.58301H19.5626ZM19.0209 21.4302V14.083C19.5681 14.0833 20.1134 14.0201 20.6459 13.8945V23.0162C20.6458 23.1656 20.6044 23.3121 20.5264 23.4396C20.4483 23.567 20.3366 23.6705 20.2036 23.7386C20.0706 23.8067 19.9213 23.8367 19.7723 23.8255C19.6233 23.8142 19.4803 23.7621 19.3589 23.6748L13.0648 19.1454L6.76845 23.6738C6.64713 23.761 6.5041 23.8132 6.35508 23.8244C6.20605 23.8356 6.05682 23.8056 5.92378 23.7375C5.79075 23.6694 5.67907 23.5659 5.60103 23.4385C5.52299 23.311 5.48161 23.1645 5.48145 23.0151V6.77051C5.48145 5.83672 5.85239 4.94119 6.51267 4.2809C7.17296 3.62062 8.0685 3.24967 9.00228 3.24967H13.0864C12.7617 3.75612 12.5036 4.30228 12.3184 4.87467H9.00228C8.49947 4.87467 8.01726 5.07441 7.66172 5.42995C7.30618 5.78549 7.10645 6.2677 7.10645 6.77051V21.4313L12.5892 17.4858C12.7274 17.3863 12.8934 17.3328 13.0637 17.3328C13.234 17.3328 13.4 17.3863 13.5382 17.4858L19.0209 21.4313V21.4302Z" fill="#979DA2"/>
</svg>
