<svg width="28" height="28" viewBox="0 0 28 28" fill="none" xmlns="http://www.w3.org/2000/svg">
<path d="M5.1259 17.9596C4.73538 18.3501 4.73538 18.9833 5.1259 19.3738C5.51643 19.7643 6.14959 19.7643 6.54011 19.3738L5.1259 17.9596ZM13.9997 10.5L14.7068 9.79289C14.5192 9.60536 14.2649 9.5 13.9997 9.5C13.7345 9.5 13.4801 9.60536 13.2926 9.79289L13.9997 10.5ZM21.4592 19.3738C21.8498 19.7643 22.4829 19.7643 22.8734 19.3738C23.264 18.9832 23.264 18.3501 22.8734 17.9596L21.4592 19.3738ZM6.54011 19.3738L14.7068 11.2071L13.2926 9.79289L5.1259 17.9596L6.54011 19.3738ZM13.2926 11.2071L21.4592 19.3738L22.8734 17.9596L14.7068 9.79289L13.2926 11.2071Z" fill="#B8BCC6"/>
</svg>
