<svg width="16" height="16" viewBox="0 0 16 16" fill="none" xmlns="http://www.w3.org/2000/svg">
<g clip-path="url(#clip0_1102_16146)">
<path d="M1 2.82764C1.885 2.45764 3.154 2.05864 4.388 1.93464C5.718 1.80064 6.846 1.99764 7.5 2.68664V12.4326C6.565 11.9026 5.38 11.8296 4.287 11.9396C3.107 12.0596 1.917 12.4006 1 12.7506V2.82764ZM8.5 2.68664C9.154 1.99764 10.282 1.80064 11.612 1.93464C12.846 2.05864 14.115 2.45764 15 2.82764V12.7506C14.082 12.4006 12.893 12.0586 11.713 11.9406C10.619 11.8296 9.435 11.9016 8.5 12.4326V2.68664ZM8 1.78264C7.015 0.935637 5.587 0.809637 4.287 0.939637C2.773 1.09264 1.245 1.61164 0.293 2.04464C0.205649 2.08436 0.131575 2.14839 0.079621 2.22907C0.0276667 2.30975 2.65714e-05 2.40368 0 2.49964L0 13.4996C2.3162e-05 13.5833 0.0210371 13.6656 0.0611171 13.739C0.101197 13.8125 0.159062 13.8747 0.229411 13.92C0.29976 13.9652 0.380345 13.9921 0.463783 13.9982C0.547222 14.0042 0.630848 13.9893 0.707 13.9546C1.589 13.5546 3.01 13.0736 4.387 12.9346C5.796 12.7926 6.977 13.0216 7.61 13.8116C7.65685 13.87 7.71622 13.9172 7.78372 13.9495C7.85122 13.9819 7.92513 13.9987 8 13.9987C8.07487 13.9987 8.14878 13.9819 8.21628 13.9495C8.28378 13.9172 8.34315 13.87 8.39 13.8116C9.023 13.0216 10.204 12.7926 11.612 12.9346C12.99 13.0736 14.412 13.5546 15.293 13.9546C15.3692 13.9893 15.4528 14.0042 15.5362 13.9982C15.6197 13.9921 15.7002 13.9652 15.7706 13.92C15.8409 13.8747 15.8988 13.8125 15.9389 13.739C15.979 13.6656 16 13.5833 16 13.4996V2.49964C16 2.40368 15.9723 2.30975 15.9204 2.22907C15.8684 2.14839 15.7944 2.08436 15.707 2.04464C14.755 1.61164 13.227 1.09264 11.713 0.939637C10.413 0.808637 8.985 0.935637 8 1.78264Z" fill="#777682"/>
</g>
<defs>
<clipPath id="clip0_1102_16146">
<rect width="16" height="16" fill="white"/>
</clipPath>
</defs>
</svg>
