<svg width="50" height="50" viewBox="0 0 50 50" fill="none" xmlns="http://www.w3.org/2000/svg">
<circle cx="25" cy="25" r="24.5" fill="#111319" stroke="#3D4048"/>
<path d="M33.145 19.097L25.8592 14.7274C25.5975 14.5782 25.3015 14.4997 25.0003 14.4997C24.699 14.4997 24.403 14.5782 24.1413 14.7274L16.855 19.0966C16.5924 19.2575 16.3758 19.4834 16.226 19.7525C16.0763 20.0215 15.9984 20.3247 16 20.6327V29.3594C15.9984 29.6675 16.0763 29.9709 16.2261 30.2402C16.3758 30.5095 16.5924 30.7356 16.855 30.8969L18.7656 32.0378L18.7764 32.0439C19.7411 32.5375 20.1105 32.5375 20.5385 32.5375C22.045 32.5375 22.9811 31.5625 22.9811 29.9927V21.5313C22.982 21.4256 22.9409 21.3239 22.8669 21.2486C22.7929 21.1732 22.6921 21.1302 22.5864 21.1291H21.5374C21.4317 21.1302 21.3309 21.1732 21.2569 21.2486C21.1829 21.3239 21.1418 21.4256 21.1427 21.5313V29.9927C21.1465 30.1138 21.1189 30.2339 21.0627 30.3412C21.0064 30.4486 20.9234 30.5395 20.8216 30.6053C20.545 30.7741 20.1433 30.7384 19.69 30.5045L17.8591 29.4025C17.8521 29.3977 17.8464 29.3913 17.8424 29.3838C17.8385 29.3762 17.8365 29.3679 17.8366 29.3594V20.7559C17.8369 20.7461 17.8396 20.7364 17.8444 20.7277C17.8492 20.7191 17.856 20.7117 17.8642 20.7063L24.9817 16.3469C24.9871 16.3442 24.9929 16.3429 24.9989 16.3429C25.0048 16.3429 25.0106 16.3442 25.016 16.3469L32.1377 20.7063C32.1458 20.7122 32.1524 20.7199 32.1568 20.7289C32.1613 20.7379 32.1636 20.7478 32.1635 20.7578V29.3594C32.1636 29.3683 32.1618 29.3771 32.1582 29.3852C32.1545 29.3933 32.1491 29.4005 32.1424 29.4063L25.0146 33.6555C25.0024 33.6597 24.9892 33.6597 24.9771 33.6555L23.1569 32.5745C23.1029 32.5392 23.0404 32.5188 22.976 32.5155C22.9115 32.5121 22.8473 32.5258 22.7899 32.5553L22.7739 32.5647C22.2714 32.8624 22.1364 32.9397 21.6705 33.1094C21.5946 33.137 21.416 33.2031 21.4005 33.3798C21.385 33.5566 21.5547 33.6822 21.7056 33.7699L24.1385 35.2638C24.3977 35.419 24.6941 35.5012 24.9963 35.5014H25.0235C25.3181 35.4968 25.6063 35.4148 25.8592 35.2638L33.145 30.8983C33.4075 30.7366 33.624 30.5101 33.7737 30.2406C33.9234 29.9711 34.0013 29.6677 34 29.3594V20.6327C34.0015 20.3248 33.9236 20.0217 33.7738 19.7528C33.6241 19.4838 33.4075 19.2579 33.145 19.097V19.097Z" fill="#D54253"/>
<path d="M27.4319 27.9086C25.684 27.9086 25.3113 27.4201 25.2007 26.6317C25.1882 26.5378 25.1425 26.4516 25.0718 26.3886C25.001 26.3256 24.9101 26.2901 24.8154 26.2886H23.8872C23.7826 26.2908 23.6832 26.3344 23.6106 26.4097C23.538 26.4851 23.4983 26.5862 23.5001 26.6908C23.5001 27.3742 23.7401 29.605 27.4338 29.605C28.5766 29.605 29.5272 29.3378 30.1821 28.832C30.8369 28.3262 31.1876 27.5903 31.1876 26.7133C31.1876 24.9531 30.0391 24.4712 27.7774 24.1562C25.4782 23.8366 25.4782 23.6739 25.4782 23.3176C25.4782 23.0612 25.4782 22.4608 27.1404 22.4608C28.323 22.4608 28.9563 22.6103 29.1588 23.3983C29.1767 23.4856 29.224 23.5642 29.2927 23.6211C29.3614 23.678 29.4474 23.7097 29.5366 23.7109H30.468C30.5229 23.7104 30.5771 23.6981 30.6269 23.675C30.6766 23.6519 30.7209 23.6184 30.7568 23.5769C30.8284 23.4933 30.8641 23.3848 30.8561 23.275C30.7357 21.6086 29.5174 20.7634 27.1418 20.7634C24.9827 20.7634 23.6941 21.7361 23.6941 23.365C23.6941 25.1509 25.0296 25.6558 27.0358 25.8648C29.3796 26.1072 29.3796 26.4606 29.3796 26.7728C29.381 27.2594 29.179 27.9086 27.4319 27.9086Z" fill="#D54253"/>
</svg>
