<svg width="25" height="27" viewBox="0 0 25 27" fill="none" xmlns="http://www.w3.org/2000/svg">
<path d="M6.6079 2.63449L6.60791 2.63449L6.60977 2.63341C8.39517 1.59578 10.5352 1.06641 13.0492 1.06641C15.2207 1.06641 17.0984 1.44977 18.695 2.20042C20.296 2.95309 21.5507 4.00294 22.4732 5.34862C23.303 6.55909 23.8021 7.96652 23.9613 9.58332H18.2258C17.9789 8.43704 17.4592 7.4767 16.6549 6.72574C15.7473 5.85676 14.5677 5.4399 13.1657 5.4399C11.9737 5.4399 10.9108 5.75786 9.99753 6.4058C9.09616 7.04236 8.41061 7.96152 7.92696 9.13162C7.44049 10.3085 7.20666 11.7098 7.20666 13.3204C7.20666 14.9505 7.43437 16.366 7.90806 17.5521L7.90804 17.5521L7.90967 17.5561C8.3935 18.7381 9.08483 19.6682 9.99705 20.3155C10.9104 20.9637 11.9735 21.2818 13.1657 21.2818C14.0433 21.2818 14.848 21.1061 15.5691 20.7437C16.3012 20.3814 16.9037 19.8549 17.3722 19.1717C17.7801 18.5816 18.0623 17.9011 18.226 17.1383H23.9579C23.7909 18.7384 23.2976 20.149 22.4849 21.3804L22.4844 21.3812C21.5945 22.7352 20.3623 23.7996 18.7723 24.5726C17.1899 25.3421 15.2984 25.7362 13.0825 25.7362C10.5339 25.7362 8.3713 25.2117 6.57504 24.1845C4.78297 23.1427 3.40754 21.7025 2.44162 19.8553C1.48536 18.0054 1 15.8638 1 13.4175C1 10.9382 1.49111 8.78721 2.4569 6.94991C3.43405 5.10129 4.81553 3.66586 6.6079 2.63449Z" stroke="url(#paint0_linear_3184_16225)"/>
<defs>
<linearGradient id="paint0_linear_3184_16225" x1="11.9735" y1="4.32112" x2="11.9735" y2="22.3438" gradientUnits="userSpaceOnUse">
<stop offset="0.247917" stop-color="#D7495A"/>
<stop offset="1" stop-color="#FF8F6B"/>
</linearGradient>
</defs>
</svg>
