<svg width="12" height="12" viewBox="0 0 12 12" fill="none" xmlns="http://www.w3.org/2000/svg">
<path d="M10.05 2.60536V0.707031H9.96C8.28 0.777865 6.885 1.79786 6.045 2.60536L6 2.64786L5.955 2.60536C5.1 1.79786 3.72 0.777865 2.04 0.707031H1.95V2.60536H0V5.87786C0 6.6712 0.03 7.46453 0.09 8.1162C0.144947 8.74479 0.437227 9.3338 0.913564 9.77587C1.3899 10.2179 2.01858 10.4836 2.685 10.5245C3.75 10.5812 4.875 10.6237 6 10.6237C7.125 10.6237 8.25 10.5812 9.315 10.5104C9.98142 10.4695 10.6101 10.2038 11.0864 9.7617C11.5628 9.31963 11.8551 8.73062 11.91 8.10203C11.97 7.45036 12 6.65703 12 5.8637V2.60536H10.05ZM10.05 5.87786C10.05 6.6287 10.02 7.36536 9.96 7.96036C9.915 8.34286 9.585 8.65453 9.18 8.6687C7.06265 8.81036 4.93735 8.81036 2.82 8.6687C2.415 8.65453 2.07 8.34286 2.04 7.96036C1.98 7.36536 1.95 6.61453 1.95 5.87786V2.60536C3.36 2.66203 4.77 4.09286 5.19 4.64536L6 5.70786L6.81 4.64536C7.23 4.0787 8.64 2.66203 10.05 2.60536V5.87786Z" fill="white"/>
</svg>
