<svg width="32" height="32" viewBox="0 0 32 32" fill="none" xmlns="http://www.w3.org/2000/svg">
<path d="M26.8 7.36V2H26.56C22.08 2.2 18.36 5.08 16.12 7.36L16 7.48L15.88 7.36C13.6 5.08 9.92 2.2 5.44 2H5.2V7.36H0V16.6C0 18.84 0.08 21.08 0.24 22.92C0.386525 24.6948 1.16594 26.3579 2.43617 27.6061C3.7064 28.8543 5.38287 29.6045 7.16 29.72C10 29.88 13 30 16 30C19 30 22 29.88 24.84 29.68C26.6171 29.5645 28.2936 28.8143 29.5638 27.5661C30.8341 26.3179 31.6135 24.6548 31.76 22.88C31.92 21.04 32 18.8 32 16.56V7.36H26.8ZM26.8 16.6C26.8 18.72 26.72 20.8 26.56 22.48C26.44 23.56 25.56 24.44 24.48 24.48C18.8337 24.88 13.1663 24.88 7.52 24.48C6.44 24.44 5.52 23.56 5.44 22.48C5.28 20.8 5.2 18.68 5.2 16.6V7.36C8.96 7.52 12.72 11.56 13.84 13.12L16 16.12L18.16 13.12C19.28 11.52 23.04 7.52 26.8 7.36V16.6Z" fill="white"/>
</svg>
