<svg width="36" height="34" viewBox="0 0 36 34" fill="none" xmlns="http://www.w3.org/2000/svg">
<g filter="url(#filter0_d_1661_8238)">
<path d="M19.1221 0.712773C18.1359 0.712773 17.1497 0.712773 16.1643 0.712773C16.0152 0.712773 15.8662 0.712773 15.7164 0.712773C11.9549 0.712773 8.19415 0.712773 4.43341 0.712773C4.19921 0.712773 4 0.958319 4 1.24765C4 7.99072 4 14.7338 4 21.476C4 21.7653 4.19845 22.0117 4.43341 22.0117C8.04968 22.0117 11.6667 22.0117 15.283 22.0117C15.283 23.0386 15.283 24.0663 15.283 25.0931C15.283 25.4648 15.6617 25.8057 15.9346 25.555C16.2403 25.2734 16.546 24.9926 16.8516 24.711C17.0767 24.5041 17.3018 24.2972 17.5268 24.0903C17.5839 24.0379 17.6683 23.9787 17.7405 23.9229C17.7838 23.9555 17.8264 23.9907 17.8576 24.0268C18.0538 24.2491 18.2948 24.432 18.5085 24.6295C18.8415 24.9377 19.1745 25.2468 19.5076 25.555C19.6931 25.7276 19.8763 25.6649 19.995 25.5052C20.0915 25.4202 20.1592 25.2837 20.1592 25.0922C20.1592 24.0654 20.1592 23.0377 20.1592 22.0109C23.723 22.0109 27.2876 22.0109 30.8522 22.0109C30.9791 22.0109 31.0757 21.9534 31.1449 21.8684C31.1502 21.8632 31.1548 21.8563 31.1601 21.8503C31.1624 21.8469 31.1654 21.8435 31.1677 21.84C31.2384 21.7542 31.2856 21.634 31.2856 21.4751C31.2856 14.7321 31.2856 7.989 31.2856 1.24679C31.2856 0.95746 31.0871 0.711914 30.8529 0.711914C27.1439 0.711914 23.4356 0.711914 19.7266 0.711914C19.5251 0.712773 19.3236 0.712773 19.1221 0.712773ZM15.283 20.9411C11.8104 20.9411 8.33862 20.9411 4.86605 20.9411C4.86605 14.5552 4.86605 8.1693 4.86605 1.78339C8.33862 1.78339 11.8104 1.78339 15.283 1.78339C15.283 8.1693 15.283 14.5552 15.283 20.9411ZM19.2931 24.0276C18.8445 23.6121 18.3952 23.1957 17.9465 22.7801C17.8355 22.678 17.6196 22.6788 17.5093 22.7801C17.0554 23.1974 16.6022 23.6147 16.1483 24.0319C16.1483 16.6157 16.1483 9.19956 16.1483 1.78339C16.1536 1.78339 16.1582 1.78339 16.1627 1.78339C17.1489 1.78339 18.1351 1.78339 19.1205 1.78339C19.1776 1.78339 19.2354 1.78339 19.2924 1.78339C19.2931 9.1987 19.2931 16.6132 19.2931 24.0276ZM20.1592 1.78339C23.5793 1.78339 26.9994 1.78339 30.4188 1.78339C30.4188 8.1693 30.4188 14.5552 30.4188 20.9411C26.9986 20.9411 23.5793 20.9411 20.1592 20.9411C20.1592 14.5552 20.1592 8.1693 20.1592 1.78339Z" fill="#D54253"/>
<path d="M6.83383 6.81209C8.87388 6.81209 10.9132 6.81209 12.9532 6.81209C13.3243 6.81209 13.325 6.09863 12.9532 6.09863C10.9132 6.09863 8.87388 6.09863 6.83383 6.09863C6.46202 6.09863 6.46126 6.81209 6.83383 6.81209Z" fill="#D54253"/>
<path d="M6.83383 9.81307C8.87388 9.81307 10.9132 9.81307 12.9532 9.81307C13.3243 9.81307 13.325 9.09961 12.9532 9.09961C10.9132 9.09961 8.87388 9.09961 6.83383 9.09961C6.46202 9.09961 6.46126 9.81307 6.83383 9.81307Z" fill="#D54253"/>
<path d="M6.83383 12.815C8.87388 12.815 10.9132 12.815 12.9532 12.815C13.3243 12.815 13.325 12.1016 12.9532 12.1016C10.9132 12.1016 8.87388 12.1016 6.83383 12.1016C6.46202 12.1007 6.46126 12.815 6.83383 12.815Z" fill="#D54253"/>
<path d="M6.83383 15.816C8.87388 15.816 10.9132 15.816 12.9532 15.816C13.3243 15.816 13.325 15.1025 12.9532 15.1025C10.9132 15.1025 8.87388 15.1025 6.83383 15.1025C6.46202 15.1017 6.46126 15.816 6.83383 15.816Z" fill="#D54253"/>
<path d="M28.4829 6.09863C26.4429 6.09863 24.4028 6.09863 22.3635 6.09863C21.9925 6.09863 21.9917 6.81209 22.3635 6.81209C24.4036 6.81209 26.4429 6.81209 28.4829 6.81209C28.8547 6.81209 28.8555 6.09863 28.4829 6.09863Z" fill="#D54253"/>
<path d="M28.4829 9.09961C26.4429 9.09961 24.4028 9.09961 22.3635 9.09961C21.9925 9.09961 21.9917 9.81307 22.3635 9.81307C24.4036 9.81307 26.4429 9.81307 28.4829 9.81307C28.8547 9.81307 28.8555 9.09961 28.4829 9.09961Z" fill="#D54253"/>
<path d="M28.4829 12.1006C26.4429 12.1006 24.4028 12.1006 22.3635 12.1006C21.9925 12.1006 21.9917 12.814 22.3635 12.814C24.4036 12.814 26.4429 12.814 28.4829 12.814C28.8547 12.8149 28.8555 12.1006 28.4829 12.1006Z" fill="#D54253"/>
<path d="M28.4829 15.1016C26.4429 15.1016 24.4028 15.1016 22.3635 15.1016C21.9925 15.1016 21.9917 15.815 22.3635 15.815C24.4036 15.815 26.4429 15.815 28.4829 15.815C28.8547 15.8159 28.8555 15.1016 28.4829 15.1016Z" fill="#D54253"/>
</g>
<defs>
<filter id="filter0_d_1661_8238" x="0" y="0.711914" width="35.2852" height="32.9463" filterUnits="userSpaceOnUse" color-interpolation-filters="sRGB">
<feFlood flood-opacity="0" result="BackgroundImageFix"/>
<feColorMatrix in="SourceAlpha" type="matrix" values="0 0 0 0 0 0 0 0 0 0 0 0 0 0 0 0 0 0 127 0" result="hardAlpha"/>
<feOffset dy="4"/>
<feGaussianBlur stdDeviation="2"/>
<feComposite in2="hardAlpha" operator="out"/>
<feColorMatrix type="matrix" values="0 0 0 0 0 0 0 0 0 0 0 0 0 0 0 0 0 0 0.25 0"/>
<feBlend mode="normal" in2="BackgroundImageFix" result="effect1_dropShadow_1661_8238"/>
<feBlend mode="normal" in="SourceGraphic" in2="effect1_dropShadow_1661_8238" result="shape"/>
</filter>
</defs>
</svg>
