<svg width="20" height="20" viewBox="0 0 20 20" fill="none" xmlns="http://www.w3.org/2000/svg">
<path d="M5.78668 15.8333H4.21334C4.09778 15.8333 3.98335 15.8106 3.87658 15.7663C3.76982 15.7221 3.67281 15.6573 3.59109 15.5756C3.50937 15.4939 3.44455 15.3969 3.40033 15.2901C3.35611 15.1833 3.33334 15.0689 3.33334 14.9533V8.79666C3.33334 8.31082 3.72751 7.91666 4.21334 7.91666H5.78668C6.27251 7.91666 6.66668 8.31082 6.66668 8.79666V14.9533C6.66668 15.4392 6.27251 15.8333 5.78668 15.8333Z" stroke="#E1E4EB" stroke-width="1.25" stroke-linecap="round" stroke-linejoin="round"/>
<path d="M6.66666 8.81001L9.70749 4.85084C9.83991 4.6784 10.0095 4.53806 10.2037 4.44028C10.3979 4.3425 10.6117 4.28981 10.8291 4.28613C11.0465 4.28244 11.2619 4.32786 11.4593 4.419C11.6567 4.51014 11.831 4.64465 11.9692 4.81251C12.19 5.08001 12.31 5.41667 12.31 5.76334V8.48917H14.89C15.1365 8.48917 15.3792 8.54993 15.5967 8.66606C15.8141 8.78219 15.9996 8.95013 16.1367 9.15501L16.4108 9.56417C16.5323 9.74564 16.6127 9.95145 16.6464 10.1672C16.68 10.383 16.6662 10.6035 16.6058 10.8133L15.4733 14.7483C15.3833 15.061 15.1941 15.3359 14.9342 15.5316C14.6743 15.7273 14.3578 15.8332 14.0325 15.8333H8.79166C8.58554 15.8333 8.38164 15.7909 8.19266 15.7086C8.00369 15.6263 7.83371 15.5059 7.69332 15.355L6.66666 14.25" stroke="#E1E4EB" stroke-width="1.25" stroke-linecap="round" stroke-linejoin="round"/>
</svg>
