<svg width="25" height="24" viewBox="0 0 25 24" fill="none" xmlns="http://www.w3.org/2000/svg">
<path fill-rule="evenodd" clip-rule="evenodd" d="M10.1282 8.969H13.8422V10.819C14.3772 9.755 15.7492 8.799 17.8102 8.799C21.7612 8.799 22.6992 10.917 22.6992 14.803V22H18.6992V15.688C18.6992 13.475 18.1642 12.227 16.8022 12.227C14.9132 12.227 14.1282 13.572 14.1282 15.687V22H10.1282V8.969ZM3.26922 21.83H7.26922V8.799H3.26922V21.83ZM7.84222 4.55C7.84237 4.88528 7.77587 5.21724 7.64661 5.52659C7.51734 5.83594 7.32787 6.11651 7.08922 6.352C6.60562 6.83262 5.95103 7.10165 5.26922 7.1C4.58861 7.09954 3.93553 6.8312 3.45122 6.353C3.21343 6.11671 3.0246 5.83582 2.89556 5.52643C2.76652 5.21704 2.6998 4.88522 2.69922 4.55C2.69922 3.873 2.96922 3.225 3.45222 2.747C3.9361 2.26816 4.58946 1.9997 5.27022 2C5.95222 2 6.60622 2.269 7.08922 2.747C7.57122 3.225 7.84222 3.873 7.84222 4.55Z" fill="#2878B7"/>
</svg>
