<svg width="25" height="28" viewBox="0 0 25 28" fill="none" xmlns="http://www.w3.org/2000/svg">
<g clip-path="url(#clip0_3184_16220)">
<path fill-rule="evenodd" clip-rule="evenodd" d="M22.6879 8.78627C22.2613 9.2545 21.7646 9.67241 21.2067 10.0115C21.1388 10.0619 21.0448 10.0684 20.9682 10.0181C20.1455 9.49518 19.4519 8.86504 18.9093 8.1802C18.1588 7.23937 17.6862 6.1957 17.5243 5.19142C17.3602 4.17182 17.5133 3.1916 18.021 2.39298C18.2222 2.0801 18.4782 1.79129 18.7889 1.54405C19.5044 0.97517 20.3205 0.673228 21.1366 0.679792C21.9199 0.686356 22.6945 0.977358 23.364 1.58781C23.6003 1.80223 23.7972 2.04509 23.9591 2.31203C24.504 3.21129 24.6221 4.35561 24.3814 5.51743C24.1451 6.66612 23.5587 7.83231 22.6879 8.78627ZM5.72448 20.8224C5.29783 21.2906 4.80116 21.7085 4.24322 22.0476C4.17539 22.098 4.08131 22.1045 4.00473 22.0542C3.18205 21.5291 2.48846 20.9011 1.94584 20.2163C1.19755 19.2777 0.724941 18.234 0.56303 17.2275C0.398931 16.2079 0.55209 15.2277 1.0597 14.4313C1.25881 14.1162 1.5148 13.8296 1.82768 13.5823C2.54316 13.0135 3.35927 12.7115 4.1732 12.7181C4.9565 12.7246 5.73105 13.0156 6.40057 13.6261C6.63687 13.8405 6.83379 14.0834 6.9957 14.3503C7.54051 15.2496 7.65866 16.3939 7.41798 17.5557C7.18168 18.7022 6.5953 19.8684 5.72448 20.8224ZM4.23447 23.2248C5.22125 23.2248 6.05487 23.8856 6.31743 24.787H19.4388C20.0864 24.787 20.6772 24.5223 21.106 24.0934C21.5349 23.6646 21.7996 23.076 21.7996 22.4262C21.7996 21.7785 21.5349 21.1878 21.106 20.7589C20.6772 20.3301 20.0886 20.0653 19.4388 20.0653H14.8484C13.8178 20.0653 12.8814 19.6452 12.2031 18.967C11.5248 18.2887 11.1047 17.3522 11.1047 16.3217C11.1047 15.2912 11.5248 14.3547 12.2031 13.6764C12.8814 12.9981 13.8178 12.5781 14.8484 12.5781H18.999C19.2834 11.7116 20.0995 11.0858 21.0601 11.0858C22.2591 11.0858 23.2305 12.0573 23.2305 13.2563C23.2305 14.4553 22.2591 15.4268 21.0601 15.4268C20.1083 15.4268 19.3009 14.8142 19.0077 13.963H14.8484C14.2007 13.963 13.61 14.2278 13.1811 14.6566C12.7523 15.0855 12.4875 15.674 12.4875 16.3239C12.4875 16.9715 12.7523 17.5623 13.1811 17.9911C13.6056 18.4156 14.1898 18.6803 14.8331 18.6847H19.441C20.4715 18.6847 21.408 19.1048 22.0862 19.7831C22.7645 20.4614 23.1846 21.3978 23.1846 22.4284C23.1846 23.4589 22.7645 24.3954 22.0862 25.0736C21.408 25.7519 20.4715 26.172 19.441 26.172H6.26273C5.94985 26.9881 5.15998 27.5657 4.23447 27.5657C3.03545 27.5657 2.06399 26.5943 2.06399 25.3953C2.06399 24.1962 3.03545 23.2248 4.23447 23.2248ZM4.01786 14.5297C4.98495 14.5297 5.76824 15.313 5.76824 16.2801C5.76824 17.2472 4.98495 18.0305 4.01786 18.0305C3.05077 18.0305 2.26747 17.2472 2.26747 16.2801C2.26747 15.313 3.05077 14.5297 4.01786 14.5297ZM20.9813 2.49144C21.9484 2.49144 22.7317 3.27474 22.7317 4.24183C22.7317 5.20892 21.9484 5.99222 20.9813 5.99222C20.0142 5.99222 19.2309 5.20892 19.2309 4.24183C19.2309 3.27474 20.0142 2.49144 20.9813 2.49144Z" fill="url(#paint0_linear_3184_16220)"/>
</g>
<defs>
<linearGradient id="paint0_linear_3184_16220" x1="11.9735" y1="4.61231" x2="11.9735" y2="23.4889" gradientUnits="userSpaceOnUse">
<stop offset="0.247917" stop-color="#D7495A"/>
<stop offset="1" stop-color="#FF8F6B"/>
</linearGradient>
<clipPath id="clip0_3184_16220">
<rect width="24" height="26.886" fill="white" transform="translate(0.5 0.679688)"/>
</clipPath>
</defs>
</svg>
