<svg width="110" height="17" viewBox="0 0 110 17" fill="none" xmlns="http://www.w3.org/2000/svg">
<path d="M108.184 16.0286C107.86 16.0286 107.583 15.9155 107.356 15.693C107.134 15.4706 107.021 15.1934 107.021 14.8651V10.8642C107.021 10.102 106.857 9.42361 106.532 8.85101C106.222 8.30029 105.781 8.03405 105.186 8.03405H97.1955C96.8126 8.03405 96.4406 8.18723 96.1743 8.45347C95.8826 8.74524 95.6747 9.09537 95.5543 9.5002C95.4303 9.91597 95.3683 10.3755 95.3683 10.8642V14.8688C95.3683 15.197 95.2516 15.4742 95.0255 15.6967C94.7957 15.9192 94.5185 16.0322 94.1939 16.0322C93.8694 16.0322 93.5922 15.9192 93.3697 15.6967C93.1472 15.4742 93.0342 15.197 93.0342 14.8688V10.8642C93.0342 10.0035 93.1946 9.17925 93.5156 8.417C93.8365 7.64745 94.3253 7.00556 94.9635 6.5059C95.6127 5.99895 96.3603 5.74365 97.1919 5.74365H105.186C106.018 5.74365 106.766 5.99895 107.415 6.5059C108.057 7.00556 108.542 7.64745 108.866 8.417C109.187 9.17925 109.348 10.0035 109.348 10.8642V14.8433C109.348 15.1679 109.235 15.4487 109.016 15.6785C108.79 15.9119 108.509 16.0286 108.184 16.0286ZM83.2161 16.0286C82.7164 16.0286 82.3553 15.817 82.173 15.4159L75.1121 7.36298H75.1778C75.0975 7.2098 75.0538 7.04567 75.0538 6.87426C75.0538 6.57155 75.1741 6.30531 75.4112 6.07918C75.6446 5.85671 75.9145 5.74729 76.2172 5.74729C76.6038 5.74729 76.9211 5.90412 77.1582 6.21048L83.2161 13.1182L89.2813 6.20319C89.511 5.90412 89.821 5.74729 90.204 5.74729C90.503 5.74729 90.7729 5.86035 91.01 6.07918C91.2471 6.30166 91.3674 6.5679 91.3674 6.87426C91.3674 7.04567 91.3273 7.20615 91.2434 7.36298H91.3127L84.2482 15.4159C84.0622 15.817 83.7084 16.0286 83.2161 16.0286ZM68.1825 16.0286C67.858 16.0286 67.5771 15.9155 67.3547 15.693C67.1322 15.4706 67.0191 15.1934 67.0191 14.8688V12.2611H57.212C56.5372 12.2611 55.8662 12.0605 55.2243 11.663C54.5824 11.2691 54.0572 10.7402 53.6596 10.0983C53.2585 9.45279 53.0542 8.77442 53.0542 8.0924V5.09446C53.0542 4.76986 53.1673 4.48903 53.3898 4.26656C53.6122 4.04408 53.8894 3.93102 54.214 3.93102C54.5313 3.93102 54.8085 4.04408 55.0383 4.2702C55.268 4.49632 55.3884 4.76986 55.3884 5.07987V8.08876C55.3884 8.56289 55.5744 8.97866 55.9537 9.35796C56.333 9.73726 56.7415 9.92327 57.201 9.92327H67.0191V5.08351C67.0191 4.76986 67.1395 4.49268 67.3729 4.26291C67.5881 4.05137 67.8798 3.93102 68.1825 3.93102C68.5071 3.93102 68.7843 4.04408 69.0105 4.26656C69.2366 4.48903 69.3533 4.76621 69.3533 5.09446V14.8688C69.3533 15.1788 69.2366 15.4523 69.0068 15.6821C68.777 15.9119 68.4998 16.0286 68.1825 16.0286ZM21.2913 16.0286C20.1424 16.0286 19.1541 15.6237 18.348 14.8287C17.542 14.0299 17.1335 13.0452 17.1335 11.9073V8.87654C17.1335 8.07782 17.4691 7.34839 18.1292 6.70649C18.7893 6.06824 19.5188 5.74729 20.2993 5.74729H29.2895C32.0503 5.74729 33.4472 6.79038 33.4472 8.85101C33.4472 9.59138 33.2466 10.2223 32.8454 10.7183C32.4552 11.2107 31.9519 11.5681 31.3428 11.776C30.7447 11.9766 30.0517 12.0787 29.2858 12.0787H22.3526C21.7253 12.0787 21.1892 11.6155 21.1308 11.0284C21.098 10.6928 21.2038 10.3719 21.4262 10.1239C21.6487 9.8795 21.9624 9.73726 22.2942 9.73726L29.6615 9.74091C29.8876 9.74091 30.0371 9.73726 30.1538 9.72997C30.2742 9.72632 30.4055 9.70079 30.5587 9.66432C30.6863 9.63514 30.7884 9.58773 30.865 9.52938C30.9307 9.47832 30.9927 9.39808 31.0474 9.28867C31.0984 9.18655 31.124 9.05525 31.124 8.89113C31.124 8.69418 31.0911 8.53736 31.0255 8.42065C30.9671 8.31488 30.876 8.23829 30.7483 8.19088C30.6024 8.13617 30.4602 8.0997 30.3252 8.08511C30.1721 8.07052 29.9715 8.05958 29.7454 8.05958H20.3248C20.1023 8.05958 19.909 8.13982 19.7303 8.30029C19.5552 8.46076 19.4714 8.65042 19.4714 8.87654V11.9073C19.4714 12.1553 19.5297 12.3851 19.6464 12.6039C19.7376 12.7863 19.8725 12.965 20.044 13.1328C20.4233 13.5048 20.8463 13.6908 21.2986 13.6908C22.7611 13.6908 24.3221 13.6944 25.9742 13.7017H26.3025C27.8561 13.709 29.4864 13.7126 31.2881 13.7126C31.558 13.7126 31.8242 13.8038 32.0285 13.9752C32.3093 14.216 32.4552 14.515 32.4552 14.8615C32.4552 15.1897 32.3421 15.4669 32.1196 15.6857C31.9008 15.9082 31.6236 16.0213 31.2954 16.0213H21.2913V16.0286ZM7.82969 16.0286C7.50145 16.0286 7.22062 15.9155 6.99814 15.693C6.76838 15.4706 6.65167 15.1934 6.65167 14.8688V7.35568C6.65167 5.88953 7.53062 4.56927 8.89101 3.98937C9.32502 3.80702 9.82103 3.71219 10.3717 3.71219H14.2961C14.6243 3.71219 14.9051 3.83255 15.1276 4.07326C15.3537 4.32126 15.4632 4.60939 15.4595 4.93763C15.4559 5.24034 15.3355 5.52847 15.1203 5.74365C14.8978 5.96977 14.628 6.08283 14.3216 6.08283H9.77726C9.33961 6.08283 8.98948 6.4366 8.98948 6.87061V14.8688C8.98948 15.197 8.87642 15.4742 8.65394 15.693C8.43512 15.9155 8.15793 16.0286 7.82969 16.0286ZM50.224 15.9921C50.1365 15.9921 50.0125 15.9666 49.8374 15.9155C49.6806 15.8572 46.6535 14.7265 40.3476 12.3669C40.2272 12.4325 37.4481 13.9461 37.4481 13.9461V14.8761C37.4481 15.2189 37.3059 15.507 37.0214 15.7332C36.8281 15.89 36.5801 15.9775 36.3321 15.9885C35.982 16.003 35.6865 15.8973 35.4531 15.6748C35.227 15.4633 35.1139 15.1897 35.1139 14.8615V1.25767C35.1139 0.911187 35.2452 0.564708 35.5042 0.334938C35.7267 0.134346 35.9929 0.0358737 36.2993 0.0322266C36.6129 0.0322266 36.9156 0.163523 37.1308 0.389646C37.3423 0.612122 37.4518 0.878362 37.4518 1.18107V11.3055C40.5628 9.66067 44.0093 7.81522 47.6929 5.81659C47.8461 5.72541 48.0212 5.678 48.2072 5.678C48.6959 5.678 49.0679 5.90777 49.2831 6.34543C49.3597 6.52414 49.3925 6.68461 49.3925 6.84144C49.3925 7.04932 49.3341 7.25721 49.2174 7.45051C49.1007 7.64381 48.9402 7.79334 48.7397 7.89546C47.8899 8.35135 46.8249 8.92395 45.4791 9.63879C44.4287 10.1968 43.6264 10.6235 43.0756 10.9153C43.7978 11.1888 44.9175 11.6046 46.5113 12.1954C48.2035 12.8227 49.5457 13.3224 50.6179 13.7272C50.8513 13.8148 51.0629 13.9643 51.2015 14.1758C51.3291 14.3691 51.3948 14.5843 51.3948 14.8177C51.3948 14.9271 51.3729 15.0584 51.3291 15.2043L51.3255 15.2116L51.3218 15.2189C51.2234 15.4487 51.0738 15.6383 50.8769 15.7769C50.6726 15.9228 50.4538 15.9921 50.224 15.9921ZM1.30861 6.07918C0.688592 6.07918 0.181641 5.5467 0.181641 4.89386C0.181641 4.24102 0.688592 3.70854 1.30861 3.70854H5.52835C6.14836 3.70854 6.65531 4.24102 6.65531 4.89386C6.65531 5.5467 6.14836 6.07918 5.52835 6.07918H1.30861Z" fill="#EC1C24"/>
<path d="M72.4644 16.0064C71.6329 16.1632 70.9144 15.4447 71.0748 14.6132C71.1624 14.15 71.5417 13.7743 72.0012 13.6831C72.8328 13.5227 73.5512 14.2448 73.3908 15.0764C73.3032 15.5395 72.9276 15.9188 72.4644 16.0064Z" fill="white"/>
</svg>
