<svg width="25" height="19" viewBox="0 0 25 19" fill="none" xmlns="http://www.w3.org/2000/svg">
<g clip-path="url(#clip0_3184_16228)">
<path fill-rule="evenodd" clip-rule="evenodd" d="M23.0832 7.15234L23.6691 7.73828C23.7066 7.77469 23.7364 7.81826 23.7568 7.8664C23.7771 7.91454 23.7876 7.96628 23.7876 8.01855C23.7876 8.07083 23.7771 8.12257 23.7568 8.17071C23.7364 8.21885 23.7066 8.26242 23.6691 8.29883L23.1964 8.77148C23.3282 9.01779 23.4268 9.2805 23.4894 9.55273H24.1007C24.2043 9.55273 24.3037 9.59389 24.377 9.66715C24.4502 9.7404 24.4914 9.83976 24.4914 9.94336V10.7832C24.4914 10.8868 24.4502 10.9862 24.377 11.0594C24.3037 11.1327 24.2043 11.1738 24.1007 11.1738H23.4328C23.3517 11.4407 23.2355 11.6955 23.0871 11.9316L23.5207 12.3633C23.5582 12.3997 23.588 12.4433 23.6083 12.4914C23.6287 12.5395 23.6392 12.5913 23.6392 12.6436C23.6392 12.6958 23.6287 12.7476 23.6083 12.7957C23.588 12.8439 23.5582 12.8874 23.5207 12.9238L22.9347 13.5098C22.8988 13.5481 22.8555 13.5788 22.8075 13.6C22.7595 13.6212 22.7076 13.6325 22.6551 13.6332C22.6026 13.634 22.5505 13.6241 22.5019 13.6042C22.4533 13.5844 22.4092 13.5549 22.3722 13.5176L21.8996 13.0449C21.6538 13.1779 21.3909 13.2765 21.1183 13.3379V13.9492C21.1183 14.0528 21.0772 14.1522 21.0039 14.2254C20.9306 14.2987 20.8313 14.3398 20.7277 14.3398H19.8957C19.7921 14.3398 19.6927 14.2987 19.6194 14.2254C19.5462 14.1522 19.505 14.0528 19.505 13.9492V13.2734C19.2367 13.1933 18.9799 13.0784 18.7414 12.9316L18.3097 13.3613C18.2733 13.3988 18.2297 13.4286 18.1816 13.449C18.1335 13.4694 18.0817 13.4799 18.0294 13.4799C17.9772 13.4799 17.9254 13.4694 17.8773 13.449C17.8292 13.4286 17.7856 13.3988 17.7492 13.3613L17.1632 12.7754C17.1257 12.739 17.0959 12.6954 17.0756 12.6473C17.0552 12.5991 17.0447 12.5474 17.0447 12.4951C17.0447 12.4428 17.0552 12.3911 17.0756 12.343C17.0959 12.2948 17.1257 12.2513 17.1632 12.2148L17.6359 11.7422C17.5033 11.4963 17.4047 11.2334 17.3429 10.9609H16.7316C16.628 10.9609 16.5286 10.9198 16.4554 10.8465C16.3821 10.7733 16.341 10.6739 16.341 10.5703V9.73633C16.341 9.63273 16.3821 9.53337 16.4554 9.46011C16.5286 9.38686 16.628 9.3457 16.7316 9.3457H17.3996C17.4806 9.07885 17.5969 8.824 17.7453 8.58789L17.3136 8.15039C17.2761 8.11398 17.2463 8.07041 17.2259 8.02227C17.2056 7.97413 17.1951 7.92239 17.1951 7.87012C17.1951 7.81785 17.2056 7.76611 17.2259 7.71796C17.2463 7.66982 17.2761 7.62625 17.3136 7.58984L17.8996 7.00391C17.936 6.9664 17.9795 6.93659 18.0277 6.91623C18.0758 6.89587 18.1276 6.88537 18.1798 6.88537C18.2321 6.88537 18.2838 6.89587 18.332 6.91623C18.3801 6.93659 18.4237 6.9664 18.4601 7.00391L18.9328 7.47656C19.1787 7.34392 19.4415 7.24536 19.714 7.18359V6.57227C19.714 6.46867 19.7552 6.36931 19.8284 6.29605C19.9017 6.2228 20.001 6.18164 20.1046 6.18164H20.9328C21.0364 6.18164 21.1357 6.2228 21.209 6.29605C21.2822 6.36931 21.3234 6.46867 21.3234 6.57227V7.23828C21.5902 7.31931 21.8451 7.43557 22.0812 7.58398L22.5128 7.15234C22.5492 7.11514 22.5927 7.08558 22.6406 7.06539C22.6886 7.04521 22.7401 7.03481 22.7921 7.03481C22.8442 7.03481 22.8957 7.04521 22.9437 7.06539C22.9916 7.08558 23.0351 7.11514 23.0714 7.15234H23.0832ZM9.11441 10.5879C9.00174 10.5779 8.89753 10.524 8.8244 10.4377C8.75127 10.3514 8.71512 10.2397 8.72378 10.127C8.71816 10.0708 8.72389 10.0142 8.74064 9.96034C8.75738 9.9065 8.7848 9.85658 8.82125 9.81357C8.85771 9.77055 8.90246 9.73532 8.95282 9.70997C9.00319 9.68462 9.05814 9.66967 9.11441 9.66602H14.0109C14.1234 9.67645 14.2273 9.73057 14.3003 9.81674C14.3733 9.90292 14.4097 10.0143 14.4015 10.127C14.4069 10.183 14.4009 10.2396 14.3841 10.2933C14.3672 10.347 14.3398 10.3968 14.3034 10.4398C14.267 10.4827 14.2224 10.518 14.1721 10.5434C14.1219 10.5689 14.0671 10.584 14.0109 10.5879H9.11441ZM5.88003 9.2207H7.52847C7.54903 9.21957 7.5696 9.22279 7.58883 9.23015C7.60806 9.2375 7.62553 9.24883 7.64009 9.26339C7.65464 9.27795 7.66597 9.29541 7.67333 9.31464C7.68068 9.33387 7.6839 9.35444 7.68277 9.375V11.0254C7.68336 11.0455 7.67973 11.0656 7.6721 11.0843C7.66448 11.1029 7.65304 11.1198 7.6385 11.1338C7.62397 11.1478 7.60667 11.1586 7.58772 11.1655C7.56877 11.1723 7.54859 11.1752 7.52847 11.1738H5.88003C5.85957 11.1752 5.83905 11.1723 5.81981 11.1652C5.80058 11.158 5.78309 11.1469 5.76849 11.1325C5.7539 11.1181 5.74254 11.1007 5.73517 11.0816C5.72779 11.0625 5.72458 11.042 5.72574 11.0215V9.36914C5.72461 9.34858 5.72783 9.32802 5.73518 9.30878C5.74254 9.28955 5.75386 9.27209 5.76842 9.25753C5.78298 9.24297 5.80045 9.23164 5.81968 9.22429C5.83891 9.21693 5.85948 9.21371 5.88003 9.21484V9.2207ZM5.88003 13.293H7.52847C7.54903 13.2918 7.5696 13.2951 7.58883 13.3024C7.60806 13.3098 7.62553 13.3211 7.64009 13.3357C7.65464 13.3502 7.66597 13.3677 7.67333 13.3869C7.68068 13.4061 7.6839 13.4267 7.68277 13.4473V15.0957C7.6839 15.1163 7.68068 15.1368 7.67333 15.1561C7.66597 15.1753 7.65464 15.1928 7.64009 15.2073C7.62553 15.2219 7.60806 15.2332 7.58883 15.2406C7.5696 15.2479 7.54903 15.2511 7.52847 15.25H5.88003C5.85948 15.2511 5.83891 15.2479 5.81968 15.2406C5.80045 15.2332 5.78298 15.2219 5.76842 15.2073C5.75386 15.1928 5.74254 15.1753 5.73518 15.1561C5.72783 15.1368 5.72461 15.1163 5.72574 15.0957V13.4414C5.72461 13.4208 5.72783 13.4003 5.73518 13.381C5.74254 13.3618 5.75386 13.3444 5.76842 13.3298C5.78298 13.3152 5.80045 13.3039 5.81968 13.2966C5.83891 13.2892 5.85948 13.286 5.88003 13.2871V13.293ZM9.11441 14.6602C9.0021 14.6502 8.89821 14.5965 8.82513 14.5106C8.75206 14.4248 8.71566 14.3136 8.72378 14.2012C8.71816 14.1451 8.72389 14.0884 8.74064 14.0346C8.75738 13.9807 8.7848 13.9308 8.82125 13.8878C8.85771 13.8448 8.90246 13.8095 8.95282 13.7842C9.00319 13.7588 9.05814 13.7439 9.11441 13.7402H12.4543C12.5669 13.7502 12.6711 13.8042 12.7443 13.8905C12.8174 13.9767 12.8535 14.0884 12.8449 14.2012C12.8502 14.2571 12.8443 14.3136 12.8274 14.3672C12.8105 14.4208 12.7831 14.4705 12.7466 14.5133C12.7102 14.5561 12.6656 14.5911 12.6153 14.6164C12.5651 14.6416 12.5103 14.6565 12.4543 14.6602H9.11441ZM6.3566 7.10547C6.30274 7.14356 6.23655 7.16009 6.1711 7.15177C6.10566 7.14345 6.0457 7.1109 6.00308 7.06055L5.96597 7.0293L5.47378 6.52344C5.42848 6.46531 5.40799 6.39164 5.41677 6.31847C5.42555 6.2453 5.46289 6.17857 5.52066 6.13281C5.57841 6.07893 5.65366 6.04768 5.73259 6.04481C5.81152 6.04194 5.88884 6.06764 5.95035 6.11719L6.21207 6.39453L7.17105 5.50977C7.2022 5.48842 7.23746 5.4738 7.27459 5.46686C7.31171 5.45991 7.34987 5.46078 7.38663 5.46942C7.42339 5.47806 7.45795 5.49428 7.48809 5.51703C7.51823 5.53978 7.54329 5.56857 7.56168 5.60156C7.61353 5.66312 7.63928 5.74249 7.63344 5.82276C7.62761 5.90303 7.59064 5.97785 7.53043 6.03125L6.35855 7.10937L6.3566 7.10547ZM9.09097 6.71484C8.87613 6.71484 8.73355 6.5 8.73355 6.25391C8.73355 6.00781 8.87613 5.79297 9.09097 5.79297H14.755C14.8675 5.80341 14.9714 5.85752 15.0444 5.9437C15.1175 6.02987 15.1538 6.14124 15.1457 6.25391C15.151 6.30996 15.1451 6.36652 15.1282 6.42025C15.1114 6.47397 15.0839 6.52378 15.0475 6.56674C15.0111 6.6097 14.9665 6.64493 14.9163 6.67037C14.866 6.69581 14.8112 6.71093 14.755 6.71484H9.09097ZM1.18082 13.9707C1.75308 13.3691 1.9855 13.293 2.75504 13.1523V0.822266C0.960113 0.998047 1.16714 2.66016 1.17886 4.20508C1.17886 4.41211 1.17886 4.52148 1.17886 4.57227V13.9707H1.18082ZM3.42691 2.59766H20.2687C20.3305 2.59733 20.3918 2.60943 20.4488 2.63325C20.5059 2.65708 20.5575 2.69213 20.6007 2.73633C20.6446 2.77981 20.6794 2.83153 20.7032 2.88851C20.727 2.94549 20.7393 3.00661 20.7394 3.06836V4.43555H19.8703V3.36133H3.42691V13.4902C3.42715 13.5589 3.40259 13.6254 3.35774 13.6774C3.31288 13.7295 3.25075 13.7636 3.18277 13.7734C0.62027 14.1699 0.497223 17.209 3.10855 17.6445H19.8703V16.3691H20.7433V18.0488C20.7429 18.1735 20.693 18.2929 20.6046 18.3809C20.5612 18.4247 20.5094 18.4595 20.4525 18.4833C20.3955 18.5071 20.3344 18.5194 20.2726 18.5195H3.08511C2.38199 18.5195 1.40738 17.9688 0.999176 17.3867C0.590973 16.8047 0.46402 16.0918 0.497223 15.2441V4.21289C0.497223 2.32422 0.477691 0.283203 3.10855 0.236328H3.14371C3.21951 0.237358 3.29184 0.268329 3.34489 0.322483C3.39795 0.376638 3.42743 0.449579 3.42691 0.525391V2.59766ZM20.4191 8.63477C20.7413 8.63477 21.0562 8.7303 21.3241 8.90929C21.5919 9.08827 21.8007 9.34267 21.924 9.64032C22.0473 9.93796 22.0796 10.2655 22.0167 10.5815C21.9539 10.8974 21.7987 11.1877 21.5709 11.4155C21.3431 11.6433 21.0529 11.7984 20.7369 11.8613C20.4209 11.9241 20.0934 11.8919 19.7957 11.7686C19.4981 11.6453 19.2437 11.4365 19.0647 11.1686C18.8857 10.9008 18.7902 10.5858 18.7902 10.2637C18.7902 10.0498 18.8323 9.83794 18.9142 9.64032C18.996 9.44269 19.116 9.26312 19.2673 9.11186C19.4185 8.9606 19.5981 8.84062 19.7957 8.75876C19.9934 8.6769 20.2052 8.63477 20.4191 8.63477Z" fill="url(#paint0_linear_3184_16228)"/>
</g>
<defs>
<linearGradient id="paint0_linear_3184_16228" x1="11.9653" y1="2.91061" x2="11.9653" y2="15.7472" gradientUnits="userSpaceOnUse">
<stop offset="0.247917" stop-color="#D7495A"/>
<stop offset="1" stop-color="#FF8F6B"/>
</linearGradient>
<clipPath id="clip0_3184_16228">
<rect width="24" height="18.2832" fill="white" transform="translate(0.5 0.236328)"/>
</clipPath>
</defs>
</svg>
