<svg width="51" height="50" viewBox="0 0 51 50" fill="none" xmlns="http://www.w3.org/2000/svg">
<path d="M0.555696 27.3161C1.21554 25.908 1.21554 23.6105 0.555696 22.2129C-0.104148 20.8048 0.28963 18.8037 1.44968 17.7661C2.59909 16.7179 3.48243 14.6004 3.40793 13.0546C3.33343 11.5088 4.47219 9.80422 5.94088 9.28543C7.40956 8.75605 9.03789 7.13614 9.57002 5.67505C10.1022 4.21396 11.805 3.08108 13.3588 3.1552C14.9126 3.22931 17.0518 2.35054 18.0948 1.20708C19.1484 0.0636139 21.1599 -0.338715 22.5647 0.317717C23.9695 0.974149 26.279 0.974149 27.6945 0.317717C29.1099 -0.338715 31.1214 0.0530262 32.1644 1.20708C33.218 2.35054 35.3465 3.22931 36.9004 3.1552C38.4542 3.08108 40.1676 4.21396 40.6891 5.67505C41.2213 7.13614 42.8496 8.75605 44.3183 9.28543C45.787 9.81481 46.9257 11.5088 46.8512 13.0546C46.7767 14.6004 47.6601 16.7285 48.8095 17.7661C49.9589 18.8143 50.3633 20.8153 49.7035 22.2129C49.0436 23.6105 49.0436 25.908 49.7035 27.3161C50.3633 28.7137 49.9695 30.7253 48.8095 31.7629C47.6814 32.8111 46.798 34.9286 46.8619 36.485C46.9364 38.0308 45.7976 39.7248 44.3289 40.2542C42.8602 40.7836 41.2319 42.4035 40.6998 43.8646C40.1677 45.3257 38.4648 46.4585 36.911 46.3844C35.3572 46.3103 33.218 47.1891 32.175 48.3325C31.1214 49.476 29.1099 49.8783 27.7051 49.2219C26.2896 48.5655 23.9908 48.5655 22.5753 49.2219C21.1599 49.8783 19.1484 49.4866 18.1054 48.3325C17.0518 47.1891 14.9233 46.3103 13.3694 46.3844C11.8156 46.4585 10.1022 45.3257 9.58067 43.8646C9.04853 42.4035 7.42021 40.7836 5.95152 40.2542C4.48284 39.7248 3.34407 38.0308 3.41857 36.485C3.48243 34.9286 2.59909 32.8111 1.44968 31.7629C0.28963 30.7253 -0.104148 28.7137 0.555696 27.3161Z" fill="url(#paint0_linear_2329_11270)"/>
<path d="M47.0243 24.7642C47.0243 36.7812 37.2331 46.5324 25.143 46.5324C13.0636 46.5324 3.26172 36.7812 3.26172 24.7642C3.26172 12.7473 13.053 2.99609 25.143 2.99609C37.2224 2.99609 47.0243 12.7473 47.0243 24.7642Z" fill="url(#paint1_linear_2329_11270)"/>
<path d="M25.1382 4.78468C36.2172 4.78468 45.2209 13.7524 45.2209 24.7635C45.2209 35.7852 36.2065 44.7423 25.1382 44.7423C14.0592 44.7423 5.05549 35.7746 5.05549 24.7635C5.05549 13.7418 14.0592 4.78468 25.1382 4.78468ZM25.1382 4.35059C13.8037 4.35059 4.61914 13.4877 4.61914 24.7635C4.61914 36.0393 13.8037 45.1764 25.1382 45.1764C36.4726 45.1764 45.6572 36.0393 45.6572 24.7635C45.6572 13.4877 36.4726 4.35059 25.1382 4.35059Z" fill="url(#paint2_linear_2329_11270)"/>
<path d="M15.7012 25.1367C15.2116 25.4331 14.8285 25.4966 14.5624 25.3272C14.2857 25.1578 14.126 24.8508 14.0728 24.3955C14.0196 23.9509 14.0835 23.4003 14.2644 22.7545C14.4453 22.1086 14.7433 21.4628 15.169 20.8169C15.5947 20.1711 16.1375 19.5676 16.808 19.0064C17.4785 18.4453 18.2873 18.0218 19.2132 17.7253C20.0646 17.4501 20.8522 17.3971 21.5653 17.5665C22.2783 17.7253 22.8211 18.0536 23.1936 18.5406C23.5661 19.0276 23.7257 19.6523 23.6619 20.404C23.598 21.1557 23.2255 21.9921 22.5444 22.9133C22.5125 22.9662 22.4273 23.0721 22.3102 23.2203C22.1825 23.3685 22.0335 23.5485 21.8526 23.7603C21.6717 23.972 21.4801 24.205 21.2673 24.4485C21.0544 24.692 20.8309 24.9461 20.5968 25.2002C21.0544 25.1896 21.4482 25.3378 21.7781 25.6555C22.108 25.9625 22.2996 26.4601 22.3422 27.1377V27.1695C22.7253 27.0107 23.1297 26.8624 23.5341 26.7248C23.9386 26.5872 24.343 26.4601 24.7368 26.3542C24.8432 26.3437 24.907 26.3648 24.9496 26.4178C24.9922 26.4707 25.0028 26.5236 24.9922 26.5766C24.9815 26.6295 24.9496 26.6825 24.9177 26.7142C24.8751 26.746 24.8326 26.746 24.79 26.7142C24.3962 26.8307 23.9811 26.9683 23.5554 27.1377C23.1297 27.3071 22.7359 27.4765 22.3741 27.6459C22.2464 28.26 22.0229 28.8317 21.6823 29.3611C21.3524 29.8905 20.9693 30.3669 20.5436 30.7799C20.1179 31.1928 19.6921 31.5422 19.2558 31.828C18.8195 32.1139 18.4363 32.3257 18.117 32.4527C17.8829 32.5586 17.6594 32.6009 17.4359 32.5903C17.2018 32.5798 17.0208 32.5162 16.8612 32.4104C16.7016 32.3045 16.6058 32.1457 16.5526 31.9445C16.4994 31.7433 16.5313 31.4998 16.659 31.214C16.7761 30.9281 17.0102 30.6105 17.3401 30.2505C17.67 29.8905 18.1596 29.5094 18.7875 29.0858C19.011 28.927 19.2239 28.7894 19.4154 28.6623C19.6176 28.5247 19.8092 28.4082 20.0008 28.3024C20.1924 28.1965 20.3946 28.0906 20.6074 27.9847C20.8203 27.8789 21.0544 27.773 21.3205 27.6459C21.3524 27.3389 21.3418 27.0636 21.2885 26.8201C21.2353 26.5766 21.1395 26.3754 21.0118 26.206C20.8841 26.0366 20.7245 25.9307 20.5223 25.8778C20.3307 25.8249 20.1072 25.846 19.8518 25.9202C19.4793 26.2801 19.1387 26.5554 18.8407 26.7566C18.5427 26.9472 18.3405 26.9683 18.2128 26.8095C18.1383 26.7036 18.1064 26.5978 18.1383 26.4707C18.1703 26.3437 18.2341 26.2272 18.3405 26.1107C18.447 25.9943 18.5853 25.8778 18.7556 25.7508C18.9259 25.6343 19.1174 25.5284 19.3197 25.4331C19.7028 25.0837 20.1072 24.6708 20.5116 24.205C20.9161 23.7391 21.2885 23.2521 21.6185 22.7545C21.959 22.2568 22.2251 21.7698 22.4273 21.2934C22.6295 20.8169 22.7253 20.3828 22.704 19.9911C22.6721 19.3876 22.4592 18.9535 22.0761 18.6782C21.693 18.4029 21.2247 18.2653 20.6606 18.2759C20.0966 18.2759 19.4899 18.4135 18.8195 18.6676C18.1596 18.9217 17.5317 19.2817 16.9357 19.7476C16.3397 20.2134 15.8182 20.7746 15.3712 21.4204C14.9242 22.0768 14.6475 22.7862 14.5198 23.5697C14.4879 23.8238 14.4666 24.0567 14.4772 24.2791C14.4879 24.5014 14.5198 24.6708 14.5837 24.7979C14.6582 24.9249 14.754 24.9884 14.871 24.999C14.9987 25.0096 15.1584 24.9355 15.3499 24.7661C15.4244 24.7026 15.5096 24.6708 15.5947 24.6708C15.6799 24.6814 15.7437 24.7026 15.7863 24.7555C15.8289 24.8085 15.8395 24.872 15.8395 24.9461C15.8395 25.0096 15.7863 25.0731 15.7012 25.1367ZM19.2345 20.2558C19.1068 20.8063 18.9472 21.4522 18.7343 22.1827C18.5321 22.9133 18.3192 23.6756 18.1064 24.4591C17.8935 25.2425 17.6913 26.0366 17.4998 26.8201C17.3082 27.6036 17.1698 28.3447 17.0847 29.0223C17.1273 29.0117 17.1379 29.0647 17.0953 29.1705C17.0528 29.2764 16.9996 29.3717 16.9251 29.4458C16.8506 29.5199 16.7761 29.5517 16.7016 29.5305C16.6271 29.5094 16.5845 29.3823 16.5739 29.1282C16.6483 28.4929 16.7548 27.7942 16.8825 27.0319C17.0102 26.2695 17.1486 25.4861 17.2869 24.7026C17.4359 23.9191 17.5849 23.1462 17.7339 22.3839C17.8829 21.6216 18.0213 20.9228 18.1383 20.277C18.0425 20.2452 18.0213 20.1923 18.0532 20.1287C18.0851 20.0652 18.149 20.0123 18.2447 19.9593C18.3299 19.9064 18.447 19.864 18.5747 19.8429C18.7024 19.8111 18.8301 19.8111 18.9365 19.8217C19.0429 19.8323 19.1281 19.8746 19.1813 19.9382C19.2558 20.0017 19.2664 20.1076 19.2345 20.2558ZM21.2673 28.1965C20.7671 28.4612 20.2562 28.747 19.756 29.0541C19.2452 29.3717 18.7982 29.6788 18.4044 29.9858C18.0106 30.2928 17.6913 30.5893 17.4572 30.8752C17.2124 31.161 17.1166 31.4045 17.1486 31.6057C17.1698 31.8069 17.2763 31.9022 17.4572 31.8916C17.6381 31.8704 17.8297 31.8069 18.0425 31.701C18.2447 31.5845 18.4363 31.4681 18.6066 31.341C18.7769 31.214 18.862 31.1504 18.862 31.1398C19.5219 30.6211 20.0327 30.1023 20.4052 29.5729C20.7671 29.0541 21.0544 28.5882 21.2673 28.1965Z" fill="url(#paint3_linear_2329_11270)"/>
<path d="M25.4375 27.0528C25.3311 27.3599 25.2672 27.6352 25.2353 27.8893C25.2034 28.1328 25.214 28.3445 25.246 28.5139C25.2779 28.6833 25.3417 28.8104 25.4162 28.8951C25.4907 28.9798 25.5972 29.001 25.7249 28.9692C26.0229 28.8845 26.3209 28.768 26.6082 28.5986C26.9062 28.4398 27.1936 28.2387 27.4596 28.0163C27.7363 27.794 27.9811 27.5399 28.2153 27.2646C28.4494 26.9893 28.641 26.714 28.8113 26.4176C28.8538 26.3223 28.907 26.2694 28.9709 26.2588C29.0347 26.2376 29.088 26.2482 29.1199 26.2799C29.1625 26.3117 29.1837 26.3541 29.1837 26.4282C29.1944 26.4917 29.1625 26.5764 29.1092 26.6611C28.194 28.154 27.0659 29.0751 25.7142 29.4139C25.1821 29.5515 24.7777 29.488 24.5223 29.2233C24.2668 28.9586 24.1178 28.6198 24.0753 28.1963C24.0327 27.7728 24.0966 27.3281 24.2668 26.8623C24.4371 26.3964 24.6713 26.0258 24.9799 25.74C25.2992 25.4435 25.5972 25.2424 25.8739 25.1471C26.1506 25.0412 26.3954 25.0094 26.5976 25.0306C26.7998 25.0518 26.9594 25.1259 27.0765 25.2635C27.1936 25.3906 27.2468 25.5494 27.2468 25.7188C27.2361 25.9835 27.0765 26.2482 26.7572 26.5129C26.4699 26.767 26.0229 26.9576 25.4375 27.0528ZM25.5546 26.7881C25.7036 26.767 25.8739 26.7034 26.0654 26.5976C26.257 26.4917 26.4273 26.3752 26.5763 26.2482C26.7253 26.1211 26.8317 26.0047 26.8956 25.8882C26.9594 25.7717 26.9488 25.687 26.853 25.6341C26.7359 25.6129 26.6189 25.6341 26.4912 25.7082C26.3634 25.7823 26.2464 25.8776 26.1293 25.9941C26.0122 26.1105 25.9058 26.2482 25.81 26.3964C25.7142 26.5446 25.6291 26.6717 25.5546 26.7881Z" fill="url(#paint4_linear_2329_11270)"/>
<path d="M31.0032 24.7456C30.8435 24.7456 30.6626 24.8514 30.4604 25.0632C30.2582 25.275 30.0772 25.5396 29.9176 25.8467C29.7686 26.1643 29.6728 26.4925 29.6409 26.8419C29.609 27.1913 29.6835 27.4983 29.8644 27.763C30.1624 27.5301 30.4391 27.3078 30.7052 27.1172C30.9712 26.9266 31.2373 26.7466 31.5034 26.5772C31.7694 26.4078 32.0355 26.2384 32.3122 26.069C32.5889 25.8996 32.8975 25.7196 33.2275 25.5291C33.419 25.4761 33.5361 25.4973 33.5574 25.5926C33.5893 25.6879 33.5042 25.7726 33.3126 25.8361C32.706 26.1961 32.1632 26.5455 31.6736 26.8843C31.1841 27.2231 30.6626 27.6148 30.0985 28.0701C30.2369 28.2818 30.3433 28.4936 30.4284 28.7053C30.5136 28.9171 30.5455 29.1288 30.5349 29.33C30.5136 29.5418 30.4391 29.7429 30.3114 29.9547C30.1837 30.1558 29.9708 30.357 29.6728 30.5476C29.1833 30.8652 28.8001 31.0134 28.5128 31.0029C28.2361 30.9817 28.0764 30.8546 28.0232 30.6217C27.9806 30.3888 28.0551 30.0606 28.268 29.637C28.4808 29.2135 28.832 28.7689 29.3216 28.2818C28.981 27.8689 28.7788 27.4666 28.7256 27.0748C28.6724 26.6831 28.7043 26.3125 28.8214 25.9631C28.9385 25.6138 29.1194 25.3067 29.3642 25.042C29.609 24.7773 29.875 24.5656 30.1517 24.4174C30.4284 24.2691 30.6945 24.195 30.9499 24.1738C31.2054 24.1633 31.3863 24.2374 31.514 24.4174C31.5566 24.5021 31.5672 24.5762 31.5459 24.6503C31.5246 24.735 31.4821 24.7879 31.4182 24.8303C31.3544 24.8726 31.2799 24.8938 31.2054 24.8938C31.1309 24.862 31.067 24.8197 31.0032 24.7456ZM29.5557 28.5889L29.4387 28.7053C29.4068 28.7371 29.3429 28.8218 29.2471 28.9383C29.1513 29.0653 29.0555 29.203 28.9598 29.3512C28.8533 29.4994 28.7682 29.6476 28.6831 29.7959C28.5979 29.9441 28.566 30.0606 28.5553 30.1453C28.5447 30.23 28.5979 30.2723 28.6937 30.2617C28.7895 30.2511 28.9598 30.177 29.2152 30.0182C29.577 29.7853 29.7686 29.5523 29.8005 29.3406C29.8218 29.1183 29.7367 28.8642 29.5557 28.5889Z" fill="url(#paint5_linear_2329_11270)"/>
<path d="M35.8561 21.4615C35.7178 21.6203 35.5794 21.832 35.4411 22.0861C35.3027 22.3402 35.175 22.6261 35.0473 22.9225C35.4836 22.8802 35.9094 22.8484 36.3457 22.8378C36.782 22.8273 37.2503 22.8273 37.7505 22.8378C37.974 22.8378 38.1017 22.8802 38.123 22.9543C38.1443 23.039 38.1124 23.1131 38.0485 23.1767C37.9847 23.2402 37.9102 23.2825 37.825 23.3037C37.7505 23.3249 37.7186 23.2719 37.7612 23.1449C37.2397 23.1661 36.7395 23.1978 36.2606 23.2508C35.7923 23.2931 35.3134 23.3566 34.8557 23.4413C34.6429 24.0342 34.4407 24.6589 34.2704 25.3153C34.0895 25.9824 33.9617 26.5965 33.8553 27.1576C33.7595 27.7187 33.717 28.2058 33.7276 28.6081C33.7382 29.0104 33.8234 29.2434 33.9617 29.2963C34.0469 29.3281 34.1427 29.2963 34.2597 29.1904C34.3768 29.0845 34.5045 28.9363 34.6429 28.7457C34.7812 28.5552 34.9089 28.354 35.0473 28.1211C35.175 27.8881 35.3027 27.6658 35.4198 27.4435C35.5369 27.2211 35.6433 27.02 35.7391 26.8506C35.8349 26.6706 35.8881 26.5541 35.9306 26.48C35.9732 26.3847 36.0264 26.3318 36.0796 26.2894C36.1328 26.2576 36.1861 26.2471 36.2286 26.2682C36.2712 26.2894 36.3031 26.3212 36.3244 26.3741C36.3457 26.427 36.3244 26.5012 36.2818 26.5965C36.1009 26.9458 35.9306 27.2846 35.7604 27.6129C35.5901 27.9411 35.4091 28.2587 35.1857 28.5869C34.9196 28.9893 34.6535 29.3069 34.3875 29.5504C34.1107 29.7939 33.866 29.8998 33.6318 29.8786C33.27 29.8468 33.0145 29.6245 32.8868 29.2222C32.7591 28.8199 32.7059 28.3116 32.7272 27.7082C32.7485 27.1047 32.8336 26.4482 32.9826 25.7494C33.1316 25.0507 33.3019 24.3731 33.4935 23.7484C33.2593 23.8013 33.0145 23.8754 32.7698 23.9495C32.525 24.0237 32.2696 24.0978 32.0248 24.1825C31.9184 24.2037 31.8545 24.1825 31.8226 24.1189C31.7906 24.0554 31.7906 23.9813 31.8013 23.8754C31.8226 23.7801 31.8545 23.6849 31.9184 23.6002C31.9822 23.5155 32.0674 23.4625 32.1631 23.4413C32.4398 23.3778 32.7059 23.3143 32.9613 23.2508C33.2168 23.1978 33.4615 23.1449 33.7063 23.1025C33.8447 22.6896 33.983 22.3402 34.1214 22.0332C34.2597 21.7261 34.3875 21.5038 34.4939 21.3556C34.5364 21.2603 34.6429 21.2074 34.8238 21.165C34.9941 21.1332 35.1644 21.1227 35.324 21.1438C35.4943 21.165 35.6326 21.1968 35.7391 21.2497C35.8668 21.2921 35.9093 21.3662 35.8561 21.4615Z" fill="url(#paint6_linear_2329_11270)"/>
<path d="M24.8478 38.3398L25.4012 39.6315L26.806 39.7586L25.7524 40.6903L26.0611 42.0667L24.8478 41.3467L23.6239 42.0667L23.9325 40.6903L22.8789 39.7586L24.2837 39.6315L24.8478 38.3398Z" fill="url(#paint7_linear_2329_11270)"/>
<path d="M30.371 38.1064L30.7861 39.0699L31.8291 39.1652L31.0415 39.8534L31.2757 40.8804L30.371 40.351L29.4558 40.8804L29.6899 39.8534L28.9023 39.1652L29.9453 39.0699L30.371 38.1064Z" fill="url(#paint8_linear_2329_11270)"/>
<path d="M19.664 38.1064L20.0791 39.0699L21.1327 39.1652L20.3345 39.8534L20.5686 40.8804L19.664 40.351L18.7487 40.8804L18.9829 39.8534L18.1953 39.1652L19.2383 39.0699L19.664 38.1064Z" fill="url(#paint9_linear_2329_11270)"/>
<path d="M34.2776 37.4717L34.5649 38.1493L35.2992 38.2128L34.7458 38.6998L34.9055 39.4092L34.2776 39.0386L33.6496 39.4092L33.8093 38.6998L33.2559 38.2128L33.9902 38.1493L34.2776 37.4717Z" fill="url(#paint10_linear_2329_11270)"/>
<path d="M16.0041 37.4717L16.2915 38.1493L17.0258 38.2128L16.4724 38.6998L16.632 39.4092L16.0041 39.0386L15.3656 39.4092L15.5252 38.6998L14.9824 38.2128L15.7061 38.1493L16.0041 37.4717Z" fill="url(#paint11_linear_2329_11270)"/>
<path d="M14.2497 43.6421C20.4863 30.524 27.883 17.9566 36.3439 6.07725C33.0659 4.12913 29.2346 3.00684 25.1371 3.00684C13.0577 2.99626 3.25586 12.7474 3.25586 24.7644C3.25586 32.8427 7.6832 39.8835 14.2497 43.6421Z" fill="url(#paint12_linear_2329_11270)" style="mix-blend-mode:screen"/>
<defs>
<linearGradient id="paint0_linear_2329_11270" x1="44.7254" y1="1.07537" x2="3.64543" y2="51.2715" gradientUnits="userSpaceOnUse">
<stop stop-color="#B2782A"/>
<stop offset="0.0576" stop-color="#B77F2E"/>
<stop offset="0.1404" stop-color="#C49239"/>
<stop offset="0.2379" stop-color="#DAB14C"/>
<stop offset="0.3333" stop-color="#F4D662"/>
<stop offset="0.5161" stop-color="#F4DE8B"/>
<stop offset="0.6613" stop-color="#F4D662"/>
<stop offset="1" stop-color="#B2782A"/>
</linearGradient>
<linearGradient id="paint1_linear_2329_11270" x1="13.0825" y1="39.4779" x2="38.3644" y2="8.30697" gradientUnits="userSpaceOnUse">
<stop stop-color="#020000"/>
<stop offset="0.3493" stop-color="#100F0F"/>
<stop offset="1" stop-color="#353535"/>
</linearGradient>
<linearGradient id="paint2_linear_2329_11270" x1="4.61669" y1="24.763" x2="45.657" y2="24.763" gradientUnits="userSpaceOnUse">
<stop stop-color="#B2782A"/>
<stop offset="0.0576" stop-color="#B77F2E"/>
<stop offset="0.1404" stop-color="#C49239"/>
<stop offset="0.2379" stop-color="#DAB14C"/>
<stop offset="0.3333" stop-color="#F4D662"/>
<stop offset="0.5161" stop-color="#F4DE8B"/>
<stop offset="0.6613" stop-color="#F4D662"/>
<stop offset="1" stop-color="#B2782A"/>
</linearGradient>
<linearGradient id="paint3_linear_2329_11270" x1="19.5245" y1="9.16346" x2="19.5245" y2="45.1854" gradientUnits="userSpaceOnUse">
<stop stop-color="#B2782A"/>
<stop offset="0.0576" stop-color="#B77F2E"/>
<stop offset="0.1404" stop-color="#C49239"/>
<stop offset="0.2379" stop-color="#DAB14C"/>
<stop offset="0.3333" stop-color="#F4D662"/>
<stop offset="0.5161" stop-color="#F4DE8B"/>
<stop offset="0.6613" stop-color="#F4D662"/>
<stop offset="1" stop-color="#B2782A"/>
</linearGradient>
<linearGradient id="paint4_linear_2329_11270" x1="26.6457" y1="9.16126" x2="26.6457" y2="45.1861" gradientUnits="userSpaceOnUse">
<stop stop-color="#B2782A"/>
<stop offset="0.0576" stop-color="#B77F2E"/>
<stop offset="0.1404" stop-color="#C49239"/>
<stop offset="0.2379" stop-color="#DAB14C"/>
<stop offset="0.3333" stop-color="#F4D662"/>
<stop offset="0.5161" stop-color="#F4DE8B"/>
<stop offset="0.6613" stop-color="#F4D662"/>
<stop offset="1" stop-color="#B2782A"/>
</linearGradient>
<linearGradient id="paint5_linear_2329_11270" x1="30.7956" y1="9.16282" x2="30.7956" y2="45.1863" gradientUnits="userSpaceOnUse">
<stop stop-color="#B2782A"/>
<stop offset="0.0576" stop-color="#B77F2E"/>
<stop offset="0.1404" stop-color="#C49239"/>
<stop offset="0.2379" stop-color="#DAB14C"/>
<stop offset="0.3333" stop-color="#F4D662"/>
<stop offset="0.5161" stop-color="#F4DE8B"/>
<stop offset="0.6613" stop-color="#F4D662"/>
<stop offset="1" stop-color="#B2782A"/>
</linearGradient>
<linearGradient id="paint6_linear_2329_11270" x1="34.9705" y1="9.16236" x2="34.9705" y2="45.1832" gradientUnits="userSpaceOnUse">
<stop stop-color="#B2782A"/>
<stop offset="0.0576" stop-color="#B77F2E"/>
<stop offset="0.1404" stop-color="#C49239"/>
<stop offset="0.2379" stop-color="#DAB14C"/>
<stop offset="0.3333" stop-color="#F4D662"/>
<stop offset="0.5161" stop-color="#F4DE8B"/>
<stop offset="0.6613" stop-color="#F4D662"/>
<stop offset="1" stop-color="#B2782A"/>
</linearGradient>
<linearGradient id="paint7_linear_2329_11270" x1="39.7558" y1="39.5864" x2="12.2148" y2="40.7844" gradientUnits="userSpaceOnUse">
<stop stop-color="#B2782A"/>
<stop offset="0.0576" stop-color="#B77F2E"/>
<stop offset="0.1404" stop-color="#C49239"/>
<stop offset="0.2379" stop-color="#DAB14C"/>
<stop offset="0.3333" stop-color="#F4D662"/>
<stop offset="0.5161" stop-color="#F4DE8B"/>
<stop offset="0.6613" stop-color="#F4D662"/>
<stop offset="1" stop-color="#B2782A"/>
</linearGradient>
<linearGradient id="paint8_linear_2329_11270" x1="39.7405" y1="39.1081" x2="12.1909" y2="40.3064" gradientUnits="userSpaceOnUse">
<stop stop-color="#B2782A"/>
<stop offset="0.0576" stop-color="#B77F2E"/>
<stop offset="0.1404" stop-color="#C49239"/>
<stop offset="0.2379" stop-color="#DAB14C"/>
<stop offset="0.3333" stop-color="#F4D662"/>
<stop offset="0.5161" stop-color="#F4DE8B"/>
<stop offset="0.6613" stop-color="#F4D662"/>
<stop offset="1" stop-color="#B2782A"/>
</linearGradient>
<linearGradient id="paint9_linear_2329_11270" x1="39.7163" y1="38.6483" x2="12.1668" y2="39.8466" gradientUnits="userSpaceOnUse">
<stop stop-color="#B2782A"/>
<stop offset="0.0576" stop-color="#B77F2E"/>
<stop offset="0.1404" stop-color="#C49239"/>
<stop offset="0.2379" stop-color="#DAB14C"/>
<stop offset="0.3333" stop-color="#F4D662"/>
<stop offset="0.5161" stop-color="#F4DE8B"/>
<stop offset="0.6613" stop-color="#F4D662"/>
<stop offset="1" stop-color="#B2782A"/>
</linearGradient>
<linearGradient id="paint10_linear_2329_11270" x1="39.7053" y1="38.2224" x2="12.159" y2="39.4206" gradientUnits="userSpaceOnUse">
<stop stop-color="#B2782A"/>
<stop offset="0.0576" stop-color="#B77F2E"/>
<stop offset="0.1404" stop-color="#C49239"/>
<stop offset="0.2379" stop-color="#DAB14C"/>
<stop offset="0.3333" stop-color="#F4D662"/>
<stop offset="0.5161" stop-color="#F4DE8B"/>
<stop offset="0.6613" stop-color="#F4D662"/>
<stop offset="1" stop-color="#B2782A"/>
</linearGradient>
<linearGradient id="paint11_linear_2329_11270" x1="39.6659" y1="37.4374" x2="12.1149" y2="38.6357" gradientUnits="userSpaceOnUse">
<stop stop-color="#B2782A"/>
<stop offset="0.0576" stop-color="#B77F2E"/>
<stop offset="0.1404" stop-color="#C49239"/>
<stop offset="0.2379" stop-color="#DAB14C"/>
<stop offset="0.3333" stop-color="#F4D662"/>
<stop offset="0.5161" stop-color="#F4DE8B"/>
<stop offset="0.6613" stop-color="#F4D662"/>
<stop offset="1" stop-color="#B2782A"/>
</linearGradient>
<linearGradient id="paint12_linear_2329_11270" x1="40.5655" y1="25.4746" x2="6.67592" y2="21.8348" gradientUnits="userSpaceOnUse">
<stop stop-color="#A6A6A6"/>
<stop offset="0.0534" stop-color="#8B8B8B"/>
<stop offset="0.1398" stop-color="#666666"/>
<stop offset="0.2336" stop-color="#464646"/>
<stop offset="0.3349" stop-color="#2D2D2D"/>
<stop offset="0.4463" stop-color="#191919"/>
<stop offset="0.5734" stop-color="#0B0B0B"/>
<stop offset="0.7295" stop-color="#020202"/>
<stop offset="1"/>
</linearGradient>
</defs>
</svg>
