<svg width="28" height="28" viewBox="0 0 28 28" fill="none" xmlns="http://www.w3.org/2000/svg">
<path d="M3.5 4.66667C3.5 4.35725 3.62292 4.0605 3.84171 3.84171C4.0605 3.62292 4.35725 3.5 4.66667 3.5H8.16667C8.47609 3.5 8.77283 3.62292 8.99162 3.84171C9.21042 4.0605 9.33333 4.35725 9.33333 4.66667V8.16667C9.33333 8.47609 9.21042 8.77283 8.99162 8.99162C8.77283 9.21042 8.47609 9.33333 8.16667 9.33333H4.66667C4.35725 9.33333 4.0605 9.21042 3.84171 8.99162C3.62292 8.77283 3.5 8.47609 3.5 8.16667V4.66667ZM3.5 12.25C3.5 11.9406 3.62292 11.6438 3.84171 11.425C4.0605 11.2062 4.35725 11.0833 4.66667 11.0833H8.16667C8.47609 11.0833 8.77283 11.2062 8.99162 11.425C9.21042 11.6438 9.33333 11.9406 9.33333 12.25V15.75C9.33333 16.0594 9.21042 16.3562 8.99162 16.575C8.77283 16.7937 8.47609 16.9167 8.16667 16.9167H4.66667C4.35725 16.9167 4.0605 16.7937 3.84171 16.575C3.62292 16.3562 3.5 16.0594 3.5 15.75V12.25ZM3.5 19.8333C3.5 19.5239 3.62292 19.2272 3.84171 19.0084C4.0605 18.7896 4.35725 18.6667 4.66667 18.6667H8.16667C8.47609 18.6667 8.77283 18.7896 8.99162 19.0084C9.21042 19.2272 9.33333 19.5239 9.33333 19.8333V23.3333C9.33333 23.6428 9.21042 23.9395 8.99162 24.1583C8.77283 24.3771 8.47609 24.5 8.16667 24.5H4.66667C4.35725 24.5 4.0605 24.3771 3.84171 24.1583C3.62292 23.9395 3.5 23.6428 3.5 23.3333V19.8333ZM11.0833 4.66667C11.0833 4.35725 11.2062 4.0605 11.425 3.84171C11.6438 3.62292 11.9406 3.5 12.25 3.5H15.75C16.0594 3.5 16.3562 3.62292 16.575 3.84171C16.7937 4.0605 16.9167 4.35725 16.9167 4.66667V8.16667C16.9167 8.47609 16.7937 8.77283 16.575 8.99162C16.3562 9.21042 16.0594 9.33333 15.75 9.33333H12.25C11.9406 9.33333 11.6438 9.21042 11.425 8.99162C11.2062 8.77283 11.0833 8.47609 11.0833 8.16667V4.66667ZM11.0833 12.25C11.0833 11.9406 11.2062 11.6438 11.425 11.425C11.6438 11.2062 11.9406 11.0833 12.25 11.0833H15.75C16.0594 11.0833 16.3562 11.2062 16.575 11.425C16.7937 11.6438 16.9167 11.9406 16.9167 12.25V15.75C16.9167 16.0594 16.7937 16.3562 16.575 16.575C16.3562 16.7937 16.0594 16.9167 15.75 16.9167H12.25C11.9406 16.9167 11.6438 16.7937 11.425 16.575C11.2062 16.3562 11.0833 16.0594 11.0833 15.75V12.25ZM11.0833 19.8333C11.0833 19.5239 11.2062 19.2272 11.425 19.0084C11.6438 18.7896 11.9406 18.6667 12.25 18.6667H15.75C16.0594 18.6667 16.3562 18.7896 16.575 19.0084C16.7937 19.2272 16.9167 19.5239 16.9167 19.8333V23.3333C16.9167 23.6428 16.7937 23.9395 16.575 24.1583C16.3562 24.3771 16.0594 24.5 15.75 24.5H12.25C11.9406 24.5 11.6438 24.3771 11.425 24.1583C11.2062 23.9395 11.0833 23.6428 11.0833 23.3333V19.8333ZM18.6667 4.66667C18.6667 4.35725 18.7896 4.0605 19.0084 3.84171C19.2272 3.62292 19.5239 3.5 19.8333 3.5H23.3333C23.6428 3.5 23.9395 3.62292 24.1583 3.84171C24.3771 4.0605 24.5 4.35725 24.5 4.66667V8.16667C24.5 8.47609 24.3771 8.77283 24.1583 8.99162C23.9395 9.21042 23.6428 9.33333 23.3333 9.33333H19.8333C19.5239 9.33333 19.2272 9.21042 19.0084 8.99162C18.7896 8.77283 18.6667 8.47609 18.6667 8.16667V4.66667ZM18.6667 12.25C18.6667 11.9406 18.7896 11.6438 19.0084 11.425C19.2272 11.2062 19.5239 11.0833 19.8333 11.0833H23.3333C23.6428 11.0833 23.9395 11.2062 24.1583 11.425C24.3771 11.6438 24.5 11.9406 24.5 12.25V15.75C24.5 16.0594 24.3771 16.3562 24.1583 16.575C23.9395 16.7937 23.6428 16.9167 23.3333 16.9167H19.8333C19.5239 16.9167 19.2272 16.7937 19.0084 16.575C18.7896 16.3562 18.6667 16.0594 18.6667 15.75V12.25ZM18.6667 19.8333C18.6667 19.5239 18.7896 19.2272 19.0084 19.0084C19.2272 18.7896 19.5239 18.6667 19.8333 18.6667H23.3333C23.6428 18.6667 23.9395 18.7896 24.1583 19.0084C24.3771 19.2272 24.5 19.5239 24.5 19.8333V23.3333C24.5 23.6428 24.3771 23.9395 24.1583 24.1583C23.9395 24.3771 23.6428 24.5 23.3333 24.5H19.8333C19.5239 24.5 19.2272 24.3771 19.0084 24.1583C18.7896 23.9395 18.6667 23.6428 18.6667 23.3333V19.8333Z" fill="#FAFBFC"/>
</svg>
