<svg width="25" height="24" viewBox="0 0 25 24" fill="none" xmlns="http://www.w3.org/2000/svg">
<g clip-path="url(#clip0_1603_6011)">
<path d="M17.6402 8.96753H23.8394C24.4252 8.96753 24.8999 9.47615 24.8999 10.1035V16.1518C24.8999 18.4574 23.1549 20.3266 21.0024 20.3266H20.984C18.8315 20.3269 17.0862 18.4581 17.0859 16.1524V9.5613C17.0859 9.48333 17.1003 9.40612 17.1281 9.33408C17.1559 9.26204 17.1968 9.19659 17.2482 9.14145C17.2997 9.08631 17.3608 9.04257 17.4281 9.01273C17.4953 8.98289 17.5674 8.96753 17.6402 8.96753Z" fill="#5059C9"/>
<path d="M21.83 7.77198C23.2172 7.77198 24.3417 6.56748 24.3417 5.08167C24.3417 3.59585 23.2172 2.39136 21.83 2.39136C20.4429 2.39136 19.3184 3.59585 19.3184 5.08167C19.3184 6.56748 20.4429 7.77198 21.83 7.77198Z" fill="#5059C9"/>
<path d="M14.0166 7.77198C16.0203 7.77198 17.6445 6.03217 17.6445 3.88599C17.6445 1.73982 16.0203 0 14.0166 0C12.013 0 10.3887 1.73982 10.3887 3.88599C10.3887 6.03217 12.013 7.77198 14.0166 7.77198Z" fill="#7B83EB"/>
<path d="M18.8534 8.96753H8.62053C8.04182 8.98289 7.58403 9.49734 7.59744 10.1172V17.0157C7.51663 20.7356 10.2642 23.8225 13.7369 23.9136C17.2097 23.8225 19.9573 20.7356 19.8765 17.0157V10.1172C19.8899 9.49734 19.4322 8.98289 18.8534 8.96753Z" fill="#7B83EB"/>
<path opacity="0.1" d="M14.2957 8.96753V18.6346C14.2944 18.8514 14.2333 19.063 14.1201 19.2428C14.0069 19.4225 13.8466 19.5625 13.6594 19.645C13.5376 19.7002 13.4066 19.7287 13.2743 19.7287H8.0891C8.01654 19.5313 7.9496 19.334 7.89372 19.1309C7.69835 18.4449 7.59868 17.7317 7.59794 17.0145V10.1154C7.58454 9.49653 8.04157 8.98289 8.61935 8.96763H14.2956L14.2957 8.96753Z" fill="black"/>
<path opacity="0.2" d="M13.7373 8.96753V19.2325C13.7373 19.3742 13.7108 19.5145 13.6593 19.645C13.5822 19.8455 13.4515 20.0172 13.2837 20.1384C13.1159 20.2597 12.9184 20.3251 12.7159 20.3266H8.35141C8.25654 20.1292 8.16719 19.9319 8.0891 19.7287C8.01408 19.5333 7.94886 19.3337 7.89372 19.1309C7.69835 18.4449 7.59868 17.7317 7.59794 17.0145V10.1154C7.58454 9.49653 8.04157 8.98289 8.61935 8.96763H13.7374L13.7373 8.96753Z" fill="black"/>
<path opacity="0.2" d="M13.7374 8.96753V18.0368C13.7332 18.6391 13.2784 19.1264 12.716 19.1309H7.89372C7.69835 18.4449 7.59868 17.7317 7.59794 17.0145V10.1154C7.58454 9.49653 8.04157 8.98289 8.61935 8.96763H13.7374V8.96753Z" fill="black"/>
<path opacity="0.2" d="M13.1794 8.96753V18.0368C13.175 18.6391 12.7203 19.1264 12.1579 19.1309H7.89372C7.69835 18.4449 7.59868 17.7317 7.59794 17.0145V10.1154C7.58454 9.49653 8.04157 8.98289 8.61935 8.96763H13.1794V8.96753Z" fill="black"/>
<path opacity="0.1" d="M14.2948 5.87677V7.75992C14.1999 7.76595 14.1106 7.77197 14.0157 7.77197C13.9208 7.77197 13.8315 7.76595 13.7366 7.75992C13.5482 7.74654 13.3614 7.71454 13.1785 7.66432C12.6213 7.52298 12.1033 7.24238 11.6667 6.84546C11.2302 6.44853 10.8876 5.94657 10.6669 5.38061C10.5899 5.18779 10.5301 4.9876 10.4883 4.78271H13.2734C13.8366 4.78502 14.2927 5.27346 14.2948 5.87677Z" fill="black"/>
<path opacity="0.2" d="M13.7376 6.47457V7.75993C13.5492 7.74655 13.3624 7.71455 13.1795 7.66433C12.6223 7.52298 12.1043 7.24237 11.6678 6.84545C11.2313 6.44852 10.8886 5.94656 10.668 5.38062H12.7162C13.2795 5.38282 13.7355 5.87136 13.7376 6.47457Z" fill="black"/>
<path opacity="0.2" d="M13.7376 6.47457V7.75993C13.5492 7.74655 13.3624 7.71455 13.1795 7.66433C12.6223 7.52298 12.1043 7.24237 11.6678 6.84545C11.2313 6.44852 10.8886 5.94656 10.668 5.38062H12.7162C13.2795 5.38282 13.7355 5.87136 13.7376 6.47457Z" fill="black"/>
<path opacity="0.2" d="M13.1796 6.47467V7.66443C12.6224 7.52308 12.1044 7.24246 11.6678 6.84552C11.2313 6.44858 10.8886 5.94659 10.668 5.38062H12.1582C12.7215 5.38292 13.1775 5.87146 13.1796 6.47467Z" fill="black"/>
<path d="M1.92348 5.38047H12.1563C12.7214 5.38047 13.1795 5.87112 13.1795 6.47634V17.4371C13.1795 18.0423 12.7214 18.533 12.1564 18.533H1.92348C1.35845 18.533 0.900391 18.0423 0.900391 17.4371V6.47644C0.900391 5.87102 1.35845 5.38037 1.92348 5.38037V5.38047Z" fill="url(#paint0_linear_1603_6011)"/>
<path d="M9.73256 9.5522H7.68694V15.5187H6.38372V9.5522H4.34766V8.39478H9.73256V9.5522Z" fill="white"/>
</g>
<defs>
<linearGradient id="paint0_linear_1603_6011" x1="3.03351" y1="4.52414" x2="11.9003" y2="18.8611" gradientUnits="userSpaceOnUse">
<stop stop-color="#5A62C3"/>
<stop offset="0.5" stop-color="#4D55BD"/>
<stop offset="1" stop-color="#3940AB"/>
</linearGradient>
<clipPath id="clip0_1603_6011">
<rect width="24" height="24" fill="white" transform="translate(0.900391)"/>
</clipPath>
</defs>
</svg>
