<svg width="25" height="24" viewBox="0 0 25 24" fill="none" xmlns="http://www.w3.org/2000/svg">
<path d="M12.002 3.42857C12.7083 3.42857 13.3988 3.63804 13.9862 4.03047C14.5735 4.4229 15.0312 4.98069 15.3015 5.63328C15.5719 6.28588 15.6426 7.00397 15.5048 7.69676C15.367 8.38955 15.0268 9.02592 14.5274 9.5254C14.0279 10.0249 13.3915 10.365 12.6987 10.5028C12.0059 10.6406 11.2878 10.5699 10.6352 10.2996C9.98264 10.0293 9.42486 9.57152 9.03243 8.9842C8.63999 8.39688 8.43053 7.70637 8.43053 7.00001C8.43053 6.05281 8.80681 5.1444 9.47658 4.47462C10.1464 3.80485 11.0548 3.42857 12.002 3.42857ZM12.002 2C11.0131 2 10.0464 2.29325 9.22411 2.84265C8.40186 3.39206 7.761 4.17296 7.38256 5.08659C7.00412 6.00022 6.9051 7.00556 7.09803 7.97547C7.29096 8.94537 7.76716 9.83629 8.46642 10.5356C9.16569 11.2348 10.0566 11.711 11.0265 11.9039C11.9964 12.0969 13.0018 11.9979 13.9154 11.6194C14.829 11.241 15.6099 10.6001 16.1593 9.77787C16.7087 8.95562 17.002 7.98892 17.002 7.00001C17.002 5.67393 16.4752 4.40215 15.5375 3.46447C14.5998 2.52679 13.3281 2 12.002 2Z" fill="#E1E4EB"/>
<path d="M20.75 21.75H19.125V18.1042C19.125 17.6254 19.02 17.1513 18.8158 16.709C18.6116 16.2666 18.3124 15.8647 17.9352 15.5262C17.5579 15.1876 17.1101 14.9191 16.6172 14.7359C16.1243 14.5526 15.596 14.4583 15.0625 14.4583H10.1875C9.11007 14.4583 8.07675 14.8425 7.31489 15.5262C6.55302 16.2099 6.125 17.1372 6.125 18.1042V21.75H4.5V18.1042C4.5 16.7505 5.09922 15.4522 6.16583 14.495C7.23245 13.5378 8.67909 13 10.1875 13H15.0625C16.5709 13 18.0176 13.5378 19.0842 14.495C20.1508 15.4522 20.75 16.7505 20.75 18.1042V21.75Z" fill="#E1E4EB"/>
</svg>
