<svg width="29" height="28" viewBox="0 0 29 28" fill="none" xmlns="http://www.w3.org/2000/svg">
<g id="B&#195;&#160;i vi&#225;&#186;&#191;t">
<path id="Vector" d="M21.8864 23.3337H6.13639C5.1679 23.3337 4.23609 22.9632 3.53212 22.298C2.82815 21.6329 2.40539 20.7236 2.35056 19.7567L2.34473 19.542V7.29199C2.34464 6.62684 2.59707 5.98647 3.05099 5.50028C3.50491 5.01409 4.12647 4.71835 4.79006 4.67283L4.96973 4.66699H19.5531C20.2182 4.66691 20.8586 4.91934 21.3448 5.37326C21.831 5.82718 22.1267 6.44874 22.1722 7.11233L22.1781 7.29199V8.16699H23.0531C23.7182 8.16691 24.3586 8.41934 24.8448 8.87326C25.331 9.32718 25.6267 9.94874 25.6722 10.6123L25.6781 10.792V19.542C25.6781 20.5105 25.3076 21.4423 24.6424 22.1463C23.9773 22.8502 23.068 23.273 22.1011 23.3278L21.8864 23.3337ZM6.13639 21.5837H21.8864C22.399 21.5836 22.8928 21.3908 23.2697 21.0434C23.6467 20.6961 23.8792 20.2197 23.9211 19.7088L23.9281 19.542V10.792C23.9281 10.5805 23.8515 10.3763 23.7125 10.2169C23.5735 10.0576 23.3815 9.95392 23.1721 9.92516L23.0531 9.91699H22.1781V18.9587C22.1781 19.1701 22.1015 19.3744 21.9625 19.5337C21.8235 19.6931 21.6315 19.7967 21.4221 19.8255L21.3031 19.8337C21.0916 19.8336 20.8873 19.7571 20.728 19.6181C20.5686 19.4791 20.465 19.2871 20.4362 19.0777L20.4281 18.9587V7.29199C20.4281 7.08055 20.3515 6.87626 20.2125 6.71691C20.0735 6.55755 19.8815 6.45392 19.6721 6.42516L19.5531 6.41699H4.96973C4.75828 6.417 4.55399 6.49358 4.39464 6.63255C4.23529 6.77153 4.13165 6.96351 4.10289 7.17299L4.09473 7.29199V19.542C4.09475 20.0544 4.28743 20.548 4.63452 20.9249C4.98161 21.3019 5.45774 21.5345 5.96839 21.5767L6.13639 21.5837ZM14.2984 16.917H17.8054C18.0271 16.9171 18.2405 17.0013 18.4025 17.1526C18.5645 17.304 18.663 17.5112 18.6781 17.7324C18.6932 17.9535 18.6238 18.1722 18.4839 18.3442C18.344 18.5161 18.144 18.6286 17.9244 18.6588L17.8054 18.667H14.2984C14.0767 18.6669 13.8633 18.5827 13.7013 18.4314C13.5393 18.28 13.4408 18.0728 13.4257 17.8516C13.4106 17.6305 13.48 17.4118 13.6199 17.2398C13.7598 17.0678 13.9598 16.9554 14.1794 16.9252L14.2984 16.917ZM10.7949 12.8395C11.027 12.8395 11.2495 12.9317 11.4136 13.0958C11.5777 13.2599 11.6699 13.4824 11.6699 13.7145V17.792C11.6699 18.0241 11.5777 18.2466 11.4136 18.4107C11.2495 18.5748 11.027 18.667 10.7949 18.667H6.71739C6.48533 18.667 6.26277 18.5748 6.09868 18.4107C5.93458 18.2466 5.84239 18.0241 5.84239 17.792V13.7145C5.84239 13.4824 5.93458 13.2599 6.09868 13.0958C6.26277 12.9317 6.48533 12.8395 6.71739 12.8395H10.7949ZM9.91989 14.5895H7.59239V16.917H9.91989V14.5895ZM14.2984 12.8395H17.8054C18.0271 12.8396 18.2405 12.9238 18.4025 13.0751C18.5645 13.2265 18.663 13.4337 18.6781 13.6549C18.6932 13.876 18.6238 14.0947 18.4839 14.2667C18.344 14.4386 18.144 14.5511 17.9244 14.5813L17.8054 14.5895H14.2984C14.0751 14.5918 13.8594 14.5086 13.6955 14.357C13.5315 14.2054 13.4317 13.9969 13.4165 13.7741C13.4013 13.5514 13.4718 13.3312 13.6137 13.1588C13.7555 12.9863 13.9579 12.8746 14.1794 12.8465L14.2984 12.8395ZM6.71739 8.75266H17.8054C18.0287 8.75039 18.2444 8.83356 18.4083 8.98514C18.5723 9.13672 18.6721 9.34525 18.6873 9.56801C18.7025 9.79078 18.6319 10.0109 18.4901 10.1834C18.3483 10.3558 18.1459 10.4676 17.9244 10.4957L17.8054 10.5027H6.71739C6.4957 10.5026 6.2823 10.4184 6.1203 10.267C5.95831 10.1157 5.85981 9.90848 5.8447 9.6873C5.82959 9.46612 5.89899 9.24745 6.0389 9.07548C6.1788 8.9035 6.37877 8.79104 6.59839 8.76083L6.71739 8.75266Z" fill="#FAFBFC"/>
</g>
</svg>
