<svg width="32" height="32" viewBox="0 0 32 32" fill="none" xmlns="http://www.w3.org/2000/svg">
<path id="Vector" d="M23.6001 0.8L23.6 0.8H3.61623L3.40549 0.808553C2.76122 0.86899 2.11215 1.2343 1.60954 1.90722C1.10031 2.58902 0.799903 3.51473 0.8 4.49992L0.8 4.5L0.8 25.4913L0.807601 25.8409C0.877441 27.339 1.40219 28.7194 2.23897 29.7077C3.0737 30.6936 4.13805 31.2001 5.19993 31.2H5.2H26.7864L27.0517 31.191C28.1096 31.1116 29.1507 30.5283 29.9415 29.4821C30.7384 28.4278 31.2001 27.0041 31.2 25.5V10.5117L31.1911 10.2075C31.1364 9.30806 30.8332 8.48235 30.36 7.8678C30.1312 7.57056 29.8732 7.33547 29.6 7.16243V27V27.0284L29.598 27.0567L29.5852 27.2367L29.5831 27.2658L29.5789 27.2947C29.5212 27.6935 29.3419 28.086 29.036 28.3771C28.724 28.6739 28.2962 28.8447 27.8376 28.7927C27.3837 28.7412 27.0087 28.4845 26.7625 28.147C26.5185 27.8125 26.3996 27.4027 26.4 27C26.4 26.9996 26.4 26.9992 26.4 26.9988M23.6001 0.8L27.2 27L26.4 26.9988M23.6001 0.8C24.2482 0.799901 24.9139 1.10601 25.4497 1.73128C25.9872 2.35857 26.3366 3.24645 26.3926 4.22475L26.4 4.51034M23.6001 0.8L26.4 4.51034M26.4 26.9988L26.4 4.51034M26.4 26.9988L26.4 4.51034M17.2064 20.2H17.1721L17.138 20.2029L16.9748 20.2169L16.941 20.2198L16.9076 20.2256C16.353 20.321 15.8986 20.6664 15.6054 21.117C15.3134 21.5657 15.1815 22.1114 15.2108 22.6459C15.2399 23.1799 15.4306 23.7084 15.7799 24.1164C16.1329 24.5287 16.638 24.7998 17.2061 24.8H17.2064H21.2032H21.2375L21.2716 24.7971L21.4348 24.7831L21.4686 24.7802L21.502 24.7744C22.0566 24.679 22.511 24.3336 22.8042 23.883C23.0962 23.4343 23.2281 22.8886 23.1989 22.3541C23.1697 21.8201 22.979 21.2916 22.6297 20.8836C22.2767 20.4713 21.7716 20.2002 21.2035 20.2L21.2032 21V20.2H17.2064ZM21.2 13.2L21.198 13.2L17.2012 13.21L17.1728 13.2101L17.1445 13.2122L16.9813 13.2242L16.948 13.2266L16.915 13.2318C16.354 13.3206 15.8926 13.6655 15.5949 14.1186C15.2985 14.5696 15.1648 15.12 15.1948 15.6588C15.2248 16.1971 15.4188 16.7296 15.774 17.1384C16.132 17.5504 16.6425 17.8173 17.2131 17.81L21.2068 17.8L21.2404 17.7999L21.2738 17.797L21.4354 17.783L21.4689 17.7801L21.502 17.7744C22.0569 17.679 22.5114 17.3333 22.8046 16.8824C23.0966 16.4334 23.2283 15.8874 23.1988 15.3527C23.1693 14.8184 22.9782 14.2898 22.6283 13.882C22.2749 13.47 21.7696 13.1996 21.2016 13.2C21.2016 13.2 21.2015 13.2 21.2015 13.2C21.2012 13.2 21.2009 13.2 21.2006 13.2L21.2 13.2ZM5.9968 6.208H5.96255L5.92842 6.21093L5.76522 6.22493L5.73143 6.22783L5.698 6.23358C5.14335 6.32897 4.68903 6.67444 4.39578 7.12503C4.10378 7.57371 3.97194 8.11943 4.00115 8.6539C4.03034 9.18795 4.22095 9.71643 4.57026 10.1244C4.92333 10.5367 5.4284 10.8078 5.99649 10.808H5.9968H21.2032H21.2326L21.2619 10.8058L21.4251 10.7938L21.4585 10.7914L21.4917 10.7861C22.052 10.6973 22.5129 10.3529 22.8106 9.90038C23.1069 9.44998 23.2408 8.90031 23.2114 8.36212C23.1821 7.82436 22.989 7.29215 22.635 6.88308C22.2783 6.4708 21.769 6.20262 21.1989 6.208H5.9968ZM11.5968 13.2H5.9968C5.40142 13.2 4.87778 13.4968 4.52358 13.9396C4.17308 14.3777 3.9968 14.9407 3.9968 15.5V22.5C3.9968 23.594 4.73521 24.8 5.9968 24.8H11.5968C12.1922 24.8 12.7158 24.5032 13.07 24.0604C13.4205 23.6223 13.5968 23.0593 13.5968 22.5V15.5C13.5968 14.9407 13.4205 14.3777 13.07 13.9396C12.7158 13.4968 12.1922 13.2 11.5968 13.2ZM9.5968 17.8V20.2H7.9968V17.8H9.5968Z" stroke="white" stroke-width="1.6"/>
</svg>
