<svg width="23" height="24" viewBox="0 0 23 24" fill="none" xmlns="http://www.w3.org/2000/svg">
<path d="M11.435 12.3437H18V14.748C18 15.0758 17.7075 15.346 17.35 15.346C16.9925 15.346 16.7 15.0758 16.7 14.748V13.5446H15.4V14.7456C15.4 15.0758 15.1075 15.346 14.75 15.346C14.3925 15.346 14.1 15.0758 14.1 14.7456V13.5446H11.435C11.2719 14.272 10.8228 14.9177 10.1745 15.3571C9.52615 15.7965 8.72456 15.9983 7.92454 15.9237C7.12451 15.849 6.38282 15.5032 5.84269 14.9529C5.30257 14.4026 5.00235 13.687 5 12.9442C4.99919 12.1997 5.29788 11.4814 5.83809 10.9289C6.3783 10.3763 7.12149 10.0289 7.92338 9.95411C8.72527 9.87929 9.52865 10.0824 10.1776 10.524C10.8265 10.9655 11.2746 11.6141 11.435 12.3437ZM8.25 14.7456C8.76717 14.7456 9.26316 14.5558 9.62886 14.2179C9.99456 13.8801 10.2 13.4219 10.2 12.9442C10.2 12.4664 9.99456 12.0083 9.62886 11.6704C9.26316 11.3326 8.76717 11.1428 8.25 11.1428C7.73283 11.1428 7.23684 11.3326 6.87114 11.6704C6.50545 12.0083 6.3 12.4664 6.3 12.9442C6.3 13.4219 6.50545 13.8801 6.87114 14.2179C7.23684 14.5558 7.73283 14.7456 8.25 14.7456Z" fill="#777682"/>
<circle cx="11.5" cy="12.4389" r="9.25" stroke="#777682" stroke-width="1.5"/>
</svg>
