<svg width="30" height="36" viewBox="0 0 30 36" fill="none" xmlns="http://www.w3.org/2000/svg">
<g filter="url(#filter0_d_1661_8250)">
<path d="M23.1539 0.924903L5.1646 2.89479C4.94448 2.91889 4.78138 3.12575 4.80086 3.35715L6.79641 27.0701C6.81585 27.3011 7.0105 27.4692 7.23062 27.4451L25.6189 25.4315L23.5881 1.29989C23.5687 1.06848 23.374 0.900798 23.1539 0.924903Z" fill="white"/>
<path d="M21.6755 25.0865C19.8078 25.3029 18.1602 23.9007 18.003 21.9611C17.8457 20.0215 19.237 18.2673 21.1051 18.0509C22.9731 17.8345 24.6203 19.2363 24.7776 21.1763C24.9348 23.1158 23.5435 24.8701 21.6755 25.0865ZM21.1571 18.6923C19.6299 18.8692 18.4919 20.3036 18.6205 21.8896C18.7491 23.4756 20.0959 24.6221 21.6235 24.4451C23.151 24.2682 24.2886 22.8338 24.16 21.2478C24.0314 19.6614 22.6842 18.5153 21.1571 18.6923Z" fill="#D54253"/>
<path d="M10.9457 19.913L11.0277 20.8865L9.83389 19.3463L10.2373 18.999L10.9457 19.913Z" fill="#EC4643"/>
<path fill-rule="evenodd" clip-rule="evenodd" d="M7.97498 8.70608L22.0584 6.9823L22.8829 15.5983L8.79954 17.3221L7.97498 8.70608ZM14.4021 14.2475L11.0231 13.1384L10.9437 12.3095L14.0347 10.4085L14.1287 11.3899L11.9581 12.5908L14.3097 13.282L14.4021 14.2475ZM14.7611 14.8877L15.4291 9.51221L16.1087 9.42903L15.428 14.8061L14.7611 14.8877ZM16.8424 13.9626L16.7487 12.9835L18.9039 11.7568L16.5679 11.0936L16.4739 10.1123L19.8403 11.2229L19.9196 12.0517L16.8424 13.9626ZM7.72656 6.11035L21.81 4.38657L22.0187 6.56789L7.93532 8.29167L7.72656 6.11035ZM17.8787 5.78919L18.6494 5.69487L18.7235 6.46903L17.9528 6.56336L17.8787 5.78919ZM19.1363 5.63527L19.907 5.54094L19.9811 6.3151L19.2104 6.40943L19.1363 5.63527ZM20.3961 5.48108L21.1667 5.38675L21.2408 6.16092L20.4701 6.25524L20.3961 5.48108Z" fill="#D54253"/>
<path d="M8.40006 17.6903L9.57318 17.7593C9.8229 16.7988 9.70899 16.1406 9.21948 16.1087C8.56811 16.0662 8.30716 16.5734 8.40006 17.6903Z" fill="white"/>
<path d="M20.831 22.2903L20.5692 23.4359L20.1176 23.4882L20.9821 19.8424L21.5091 19.7813L22.9476 23.1602L22.481 23.2143L22.0303 22.1513L20.831 22.2903ZM21.9108 21.8075L21.4976 20.8349C21.4037 20.6144 21.3367 20.4119 21.27 20.2143L21.2602 20.2154C21.2269 20.4296 21.189 20.6497 21.1412 20.8709L20.8923 21.9255L21.9108 21.8075Z" fill="#D54253"/>
</g>
<defs>
<filter id="filter0_d_1661_8250" x="0.798828" y="0.922852" width="28.8203" height="34.5244" filterUnits="userSpaceOnUse" color-interpolation-filters="sRGB">
<feFlood flood-opacity="0" result="BackgroundImageFix"/>
<feColorMatrix in="SourceAlpha" type="matrix" values="0 0 0 0 0 0 0 0 0 0 0 0 0 0 0 0 0 0 127 0" result="hardAlpha"/>
<feOffset dy="4"/>
<feGaussianBlur stdDeviation="2"/>
<feComposite in2="hardAlpha" operator="out"/>
<feColorMatrix type="matrix" values="0 0 0 0 0 0 0 0 0 0 0 0 0 0 0 0 0 0 0.25 0"/>
<feBlend mode="normal" in2="BackgroundImageFix" result="effect1_dropShadow_1661_8250"/>
<feBlend mode="normal" in="SourceGraphic" in2="effect1_dropShadow_1661_8250" result="shape"/>
</filter>
</defs>
</svg>
