<svg width="50" height="49" viewBox="0 0 50 49" fill="none" xmlns="http://www.w3.org/2000/svg">
<rect x="0.5" y="0.5" width="48.0012" height="48" rx="24" fill="#111319"/>
<path d="M24.3961 10C17.0325 10 17.4917 13.2093 17.4917 13.2093L17.5001 16.5347H24.5254V17.5327H14.7125C14.7125 17.5327 10 16.995 10 24.4625C10 31.93 14.112 31.6642 14.112 31.6642H16.5649V28.1999C16.5649 28.1999 16.4332 24.0674 20.6128 24.0674H27.58C27.58 24.0674 31.495 24.1302 31.495 20.2636V13.8691C31.495 13.8691 32.0883 10 24.3949 10H24.3961ZM20.5222 12.2354C21.2206 12.2354 21.7861 12.8033 21.7861 13.5066C21.7861 14.2086 21.2206 14.7765 20.5222 14.7765C19.8225 14.7765 19.2583 14.2086 19.2583 13.5066C19.2583 12.8033 19.8225 12.2354 20.5222 12.2354Z" fill="#D54253"/>
<path d="M24.6052 39C31.9664 39 31.5072 35.7906 31.5072 35.7906L31.4988 32.4653H24.4735V31.4672H34.2888C34.2888 31.4672 39.0013 32.0049 39.0013 24.5374C39.0013 17.0699 34.8881 17.3358 34.8881 17.3358H32.4352V20.8001C32.4352 20.8001 32.5669 24.9326 28.3873 24.9326H21.4213C21.4213 24.9326 17.5063 24.8697 17.5063 28.7364V35.1309C17.5063 35.1309 16.9118 39 24.6052 39ZM28.4791 36.7646C27.7795 36.7646 27.2152 36.1966 27.2152 35.4934C27.2152 34.7914 27.7795 34.2234 28.4791 34.2234C29.1776 34.2234 29.7431 34.7914 29.7431 35.4934C29.7431 36.1966 29.1776 36.7646 28.4791 36.7646Z" fill="#D54253"/>
<rect x="0.5" y="0.5" width="48.0012" height="48" rx="24" stroke="#3D4048"/>
</svg>
