<svg width="11" height="12" viewBox="0 0 11 12" fill="none" xmlns="http://www.w3.org/2000/svg">
<path d="M3.06748 8.49121C2.89825 8.49121 2.76015 8.35156 2.76015 8.17969C2.76015 8.00781 2.89728 7.86816 3.06748 7.86816H5.06125C5.23047 7.86816 5.36858 8.00781 5.36858 8.17969C5.36858 8.35156 5.23144 8.49121 5.06125 8.49121H3.06748ZM3.06748 4.12793C2.89825 4.12793 2.76112 3.99023 2.76112 3.82031C2.76112 3.65039 2.89825 3.5127 3.06748 3.5127H7.11434C7.28356 3.5127 7.4207 3.65039 7.4207 3.82031C7.4207 3.99023 7.28356 4.12793 7.11434 4.12793H3.06748ZM6.47439 10.6113C6.34212 10.5059 6.31975 10.3125 6.42576 10.1797C6.5308 10.0469 6.72336 10.0244 6.85563 10.1309L7.78638 10.8721L9.55743 8.69727C9.66441 8.56543 9.85795 8.54688 9.98828 8.6543C10.1196 8.76172 10.1381 8.95605 10.0311 9.08691L8.0694 11.4961C7.96339 11.626 7.77374 11.6465 7.64244 11.542L6.47439 10.6113ZM5.52905 11.3848C5.69828 11.3848 5.83541 11.5225 5.83541 11.6924C5.83541 11.8623 5.69828 12 5.52905 12H0.712893C0.516434 12 0.338454 11.9199 0.209102 11.79C0.0797506 11.6602 0 11.4814 0 11.2842V0.71582C0 0.518555 0.0797506 0.339844 0.209102 0.209961C0.338454 0.0800781 0.516434 0 0.712893 0H9.46795C9.66441 0 9.84239 0.0800781 9.97174 0.209961C10.1011 0.339844 10.1808 0.518555 10.1808 0.71582V7.08984C10.1808 7.25977 10.0437 7.39746 9.87449 7.39746C9.70526 7.39746 9.56813 7.25977 9.56813 7.08984V0.71582C9.56813 0.688477 9.55646 0.663086 9.53895 0.644531C9.52047 0.625977 9.49518 0.615234 9.46795 0.615234H0.712893C0.685661 0.615234 0.660374 0.626953 0.641895 0.644531C0.624389 0.664062 0.612718 0.688477 0.612718 0.71582V11.2832C0.612718 11.3105 0.624389 11.3359 0.641895 11.3545C0.660374 11.373 0.685661 11.3838 0.712893 11.3838H5.52905V11.3848ZM3.06748 6.30762C2.89825 6.30762 2.76112 6.16992 2.76112 6C2.76112 5.83008 2.89825 5.69238 3.06748 5.69238H7.11434C7.28356 5.69238 7.4207 5.83008 7.4207 6C7.4207 6.16992 7.28356 6.30762 7.11434 6.30762H3.06748Z" fill="white"/>
</svg>
