<svg width="32" height="32" viewBox="0 0 32 32" fill="none" xmlns="http://www.w3.org/2000/svg">
<path d="M28.4444 0H3.55556C2.61256 0 1.70819 0.374602 1.0414 1.0414C0.374602 1.70819 0 2.61256 0 3.55556V28.4444C0 29.3874 0.374602 30.2918 1.0414 30.9586C1.70819 31.6254 2.61256 32 3.55556 32H28.4444C30.4 32 32 30.4 32 28.4444V3.55556C32 2.61256 31.6254 1.70819 30.9586 1.0414C30.2918 0.374602 29.3874 0 28.4444 0ZM28.4444 28.4444H3.55556V7.11111H28.4444V28.4444ZM18.6667 17.7778C18.6667 19.2533 17.4756 20.4444 16 20.4444C14.5244 20.4444 13.3333 19.2533 13.3333 17.7778C13.3333 16.3022 14.5244 15.1111 16 15.1111C17.4756 15.1111 18.6667 16.3022 18.6667 17.7778ZM16 10.6667C11.1467 10.6667 7.00444 13.6178 5.33333 17.7778C7.00444 21.9378 11.1467 24.8889 16 24.8889C20.8533 24.8889 24.9956 21.9378 26.6667 17.7778C24.9956 13.6178 20.8533 10.6667 16 10.6667ZM16 22.2222C14.8213 22.2222 13.6908 21.754 12.8573 20.9205C12.0238 20.087 11.5556 18.9565 11.5556 17.7778C11.5556 16.599 12.0238 15.4686 12.8573 14.6351C13.6908 13.8016 14.8213 13.3333 16 13.3333C17.1787 13.3333 18.3092 13.8016 19.1427 14.6351C19.9762 15.4686 20.4444 16.599 20.4444 17.7778C20.4444 18.9565 19.9762 20.087 19.1427 20.9205C18.3092 21.754 17.1787 22.2222 16 22.2222Z" fill="white"/>
</svg>
