<svg width="12" height="12" viewBox="0 0 12 12" fill="none" xmlns="http://www.w3.org/2000/svg">
<path d="M10 1H4C3.73478 1 3.48043 1.10536 3.29289 1.29289C3.10536 1.48043 3 1.73478 3 2V8C3 8.26522 3.10536 8.51957 3.29289 8.70711C3.48043 8.89464 3.73478 9 4 9H10C10.2652 9 10.5196 8.89464 10.7071 8.70711C10.8946 8.51957 11 8.26522 11 8V2C11 1.73478 10.8946 1.48043 10.7071 1.29289C10.5196 1.10536 10.2652 1 10 1ZM6.5335 7.2405L4.8965 5.6035L5.6035 4.8965L6.4665 5.7595L8.616 3.18L9.3845 3.8205L6.5335 7.2405Z" fill="white"/>
<path d="M2 11H7.5V10H2V4H1V10C1 10.5515 1.4485 11 2 11Z" fill="white"/>
</svg>
