<svg width="116" height="39" viewBox="0 0 116 39" fill="none" xmlns="http://www.w3.org/2000/svg">
<path d="M115.675 3.27344H111.807V11.4497H115.675V3.27344Z" fill="#D54253"/>
<path d="M115.675 3.27448C115.675 1.46603 114.454 0 112.949 0H111.807V6.54896H112.949C114.454 6.54896 115.675 5.08293 115.675 3.27448Z" fill="#EC1C24"/>
<path d="M11.9923 7.63893L1.58242 20.1452C0.37357 21.5976 0.37357 23.9516 1.58242 25.4041L11.9923 37.9114C12.5727 38.6088 13.3597 39.0004 14.1807 39.0004H112.862C114.416 39.0004 115.676 37.4873 115.676 35.6202V6.54883H14.1807C13.3597 6.54883 12.5727 6.94151 11.9923 7.63893Z" fill="#D54253"/>
<path d="M45.6751 18.2744H44.266C44.1826 17.8691 44.0368 17.5131 43.8285 17.2062C43.6239 16.8994 43.3739 16.6418 43.0785 16.4335C42.7868 16.2214 42.4629 16.0623 42.1069 15.9562C41.7508 15.8502 41.3796 15.7971 40.9933 15.7971C40.2887 15.7971 39.6504 15.9752 39.0785 16.3312C38.5103 16.6873 38.0576 17.2119 37.7205 17.9051C37.3872 18.5983 37.2205 19.4487 37.2205 20.4562C37.2205 21.4638 37.3872 22.3142 37.7205 23.0074C38.0576 23.7006 38.5103 24.2252 39.0785 24.5812C39.6504 24.9373 40.2887 25.1153 40.9933 25.1153C41.3796 25.1153 41.7508 25.0623 42.1069 24.9562C42.4629 24.8502 42.7868 24.693 43.0785 24.4846C43.3739 24.2725 43.6239 24.0131 43.8285 23.7062C44.0368 23.3956 44.1826 23.0396 44.266 22.6381H45.6751C45.569 23.2327 45.3758 23.7649 45.0955 24.2346C44.8152 24.7043 44.4667 25.104 44.0501 25.4335C43.6334 25.7593 43.1656 26.0074 42.6467 26.1778C42.1315 26.3483 41.5804 26.4335 40.9933 26.4335C40.0008 26.4335 39.1183 26.1911 38.3455 25.7062C37.5728 25.2214 36.9648 24.532 36.5217 23.6381C36.0785 22.7441 35.8569 21.6835 35.8569 20.4562C35.8569 19.229 36.0785 18.1684 36.5217 17.2744C36.9648 16.3805 37.5728 15.6911 38.3455 15.2062C39.1183 14.7214 40.0008 14.479 40.9933 14.479C41.5804 14.479 42.1315 14.5642 42.6467 14.7346C43.1656 14.9051 43.6334 15.1551 44.0501 15.4846C44.4667 15.8104 44.8152 16.2081 45.0955 16.6778C45.3758 17.1437 45.569 17.6759 45.6751 18.2744ZM55.8612 16.8881H57.1112C57.1112 17.7517 56.9218 18.4373 56.543 18.9449C56.168 19.4524 55.5089 19.7062 54.5657 19.7062V18.7517C54.9445 18.7517 55.2248 18.674 55.4066 18.5187C55.5922 18.3634 55.7134 18.1456 55.7702 17.8653C55.8308 17.585 55.8612 17.2593 55.8612 16.8881ZM52.3157 26.4562C51.5278 26.4562 50.8365 26.2687 50.2418 25.8937C49.6509 25.5187 49.1888 24.9941 48.8555 24.3199C48.5259 23.6456 48.3612 22.8577 48.3612 21.9562C48.3612 21.0471 48.5259 20.2536 48.8555 19.5756C49.1888 18.8975 49.6509 18.371 50.2418 17.996C50.8365 17.621 51.5278 17.4335 52.3157 17.4335C53.1036 17.4335 53.793 17.621 54.3839 17.996C54.9786 18.371 55.4407 18.8975 55.7702 19.5756C56.1036 20.2536 56.2702 21.0471 56.2702 21.9562C56.2702 22.8577 56.1036 23.6456 55.7702 24.3199C55.4407 24.9941 54.9786 25.5187 54.3839 25.8937C53.793 26.2687 53.1036 26.4562 52.3157 26.4562ZM52.3157 25.2517C52.9142 25.2517 53.4066 25.0983 53.793 24.7915C54.1793 24.4846 54.4653 24.0812 54.6509 23.5812C54.8365 23.0812 54.9293 22.5396 54.9293 21.9562C54.9293 21.3729 54.8365 20.8293 54.6509 20.3256C54.4653 19.8218 54.1793 19.4146 53.793 19.104C53.4066 18.7934 52.9142 18.6381 52.3157 18.6381C51.7172 18.6381 51.2248 18.7934 50.8384 19.104C50.4521 19.4146 50.1661 19.8218 49.9805 20.3256C49.7949 20.8293 49.7021 21.3729 49.7021 21.9562C49.7021 22.5396 49.7949 23.0812 49.9805 23.5812C50.1661 24.0812 50.4521 24.4846 50.8384 24.7915C51.2248 25.0983 51.7172 25.2517 52.3157 25.2517ZM65.0146 26.2744V14.6381H66.3555V18.9335H66.4691C66.5676 18.782 66.704 18.5888 66.8782 18.354C67.0562 18.1153 67.31 17.9032 67.6396 17.7176C67.9729 17.5282 68.4237 17.4335 68.9918 17.4335C69.7267 17.4335 70.3744 17.6172 70.935 17.9846C71.4956 18.3521 71.9331 18.8729 72.2475 19.5471C72.5619 20.2214 72.7191 21.0168 72.7191 21.9335C72.7191 22.8577 72.5619 23.6589 72.2475 24.3369C71.9331 25.0112 71.4975 25.5339 70.9407 25.9051C70.3839 26.2725 69.7418 26.4562 69.0146 26.4562C68.454 26.4562 68.0051 26.3634 67.668 26.1778C67.3308 25.9884 67.0714 25.7744 66.8896 25.5358C66.7077 25.2934 66.5676 25.0926 66.4691 24.9335H66.31V26.2744H65.0146ZM66.3327 21.9108C66.3327 22.5699 66.4293 23.1513 66.6225 23.6551C66.8157 24.1551 67.0979 24.5471 67.4691 24.8312C67.8403 25.1115 68.2949 25.2517 68.8327 25.2517C69.3933 25.2517 69.8612 25.104 70.2362 24.8085C70.6149 24.5093 70.899 24.1077 71.0884 23.604C71.2816 23.0964 71.3782 22.532 71.3782 21.9108C71.3782 21.2971 71.2835 20.7441 71.0941 20.2517C70.9085 19.7555 70.6263 19.3634 70.2475 19.0756C69.8725 18.7839 69.4009 18.6381 68.8327 18.6381C68.2873 18.6381 67.829 18.7763 67.4577 19.0528C67.0865 19.3256 66.8062 19.7081 66.6168 20.2006C66.4274 20.6892 66.3327 21.2593 66.3327 21.9108ZM78.3384 26.479C77.7854 26.479 77.2835 26.3748 76.8327 26.1665C76.382 25.9543 76.024 25.6494 75.7589 25.2517C75.4937 24.8502 75.3612 24.3653 75.3612 23.7971C75.3612 23.2971 75.4596 22.8918 75.6566 22.5812C75.8536 22.2668 76.1168 22.0206 76.4464 21.8426C76.7759 21.6646 77.1396 21.532 77.5373 21.4449C77.9388 21.354 78.3422 21.282 78.7475 21.229C79.2778 21.1608 79.7077 21.1096 80.0373 21.0756C80.3706 21.0377 80.613 20.9752 80.7646 20.8881C80.9199 20.8009 80.9975 20.6494 80.9975 20.4335V20.3881C80.9975 19.8274 80.8441 19.3918 80.5373 19.0812C80.2343 18.7706 79.774 18.6153 79.1566 18.6153C78.5165 18.6153 78.0146 18.7555 77.6509 19.0358C77.2873 19.3161 77.0316 19.6153 76.8839 19.9335L75.6112 19.479C75.8384 18.9487 76.1415 18.5358 76.5202 18.2403C76.9028 17.9411 77.3195 17.7327 77.7702 17.6153C78.2248 17.4941 78.6718 17.4335 79.1112 17.4335C79.3915 17.4335 79.7134 17.4676 80.0771 17.5358C80.4445 17.6002 80.7987 17.7346 81.1396 17.9392C81.4843 18.1437 81.7702 18.4524 81.9975 18.8653C82.2248 19.2782 82.3384 19.8312 82.3384 20.5244V26.2744H80.9975V25.0926H80.9293C80.8384 25.282 80.6869 25.4846 80.4748 25.7006C80.2627 25.9165 79.9805 26.1002 79.6282 26.2517C79.2759 26.4032 78.846 26.479 78.3384 26.479ZM78.543 25.2744C79.0733 25.2744 79.5202 25.1702 79.8839 24.9619C80.2513 24.7536 80.5278 24.4846 80.7134 24.1551C80.9028 23.8256 80.9975 23.479 80.9975 23.1153V21.8881C80.9407 21.9562 80.8157 22.0187 80.6225 22.0756C80.4331 22.1286 80.2134 22.1759 79.9634 22.2176C79.7172 22.2555 79.4767 22.2896 79.2418 22.3199C79.0108 22.3464 78.8233 22.3691 78.6793 22.3881C78.3308 22.4335 78.0051 22.5074 77.7021 22.6096C77.4028 22.7081 77.1604 22.8577 76.9748 23.0585C76.793 23.2555 76.7021 23.5244 76.7021 23.8653C76.7021 24.3312 76.8744 24.6835 77.2191 24.9221C77.5676 25.157 78.0089 25.2744 78.543 25.2744ZM79.793 16.3653H78.6793V15.1381C79.0771 15.1153 79.3574 15.0604 79.5202 14.9733C79.6869 14.8862 79.7702 14.7517 79.7702 14.5699C79.7702 14.3653 79.6509 14.2157 79.4123 14.121C79.1737 14.0263 78.8839 13.979 78.543 13.979L78.5884 13.1153C79.3725 13.1153 79.9653 13.2517 80.3668 13.5244C80.7721 13.7971 80.9748 14.1608 80.9748 14.6153C80.9748 15.0017 80.8517 15.2839 80.6055 15.4619C80.3593 15.6399 80.0884 15.7517 79.793 15.7971V16.3653ZM87.1268 21.0244V26.2744H85.7859V17.5471H87.0813V18.9108H87.195C87.3995 18.4676 87.7101 18.1115 88.1268 17.8426C88.5434 17.5699 89.0813 17.4335 89.7404 17.4335C90.3313 17.4335 90.8484 17.5547 91.2915 17.7971C91.7347 18.0358 92.0794 18.3994 92.3256 18.8881C92.5719 19.3729 92.695 19.9865 92.695 20.729V26.2744H91.354V20.8199C91.354 20.1343 91.176 19.6002 90.82 19.2176C90.4639 18.8312 89.9753 18.6381 89.354 18.6381C88.926 18.6381 88.5434 18.7309 88.2063 18.9165C87.873 19.1021 87.6097 19.3729 87.4165 19.729C87.2234 20.085 87.1268 20.5168 87.1268 21.0244Z" fill="white"/>
</svg>
