<svg width="136" height="114" viewBox="0 0 136 114" fill="none" xmlns="http://www.w3.org/2000/svg">
<g clip-path="url(#clip0_2564_10860)">
<path d="M115.853 27.4296C103.063 7.07621 78.0614 -3.60635 53.6106 2.83592C29.1747 9.27818 12.6808 30.8962 11.5802 54.9097L0.5 57.8258L9.08158 90.4091L20.1618 87.4929C32.9524 107.861 57.9535 118.544 82.3894 112.102C106.84 105.659 123.319 84.0412 124.42 60.0129L135.5 57.0968L126.918 24.5135L115.838 27.4296H115.853ZM54.3394 5.58839C77.2434 -0.452165 100.653 9.36745 112.938 28.2033L109.607 29.0811C97.9314 11.9711 76.3213 3.16324 55.1722 8.74257C34.0232 14.3219 19.5669 32.6221 17.8119 53.2731L14.4804 54.1509C15.8933 31.6996 31.4205 11.6289 54.3394 5.58839ZM108.878 29.2745L83.9362 35.8507C77.6152 31.1938 69.3311 29.334 61.166 31.4914C52.986 33.6487 46.6948 39.3471 43.4971 46.5035L18.5555 53.0796C20.37 32.8304 34.6032 14.9021 55.3656 9.42697C76.128 3.95179 97.3365 12.5365 108.893 29.2745H108.878ZM81.6606 109.349C58.7566 115.39 35.3469 105.57 23.062 86.7342L26.3935 85.8563C38.0835 102.966 59.6787 111.774 80.8278 106.195C101.977 100.616 116.433 82.3153 118.188 61.6644L121.52 60.7865C120.107 83.2378 104.58 103.308 81.6606 109.349ZM27.1222 85.6629L52.0638 79.0867C58.3848 83.7436 66.6689 85.6034 74.834 83.4461C83.014 81.2887 89.3052 75.5904 92.5029 68.4339L117.444 61.8578C115.63 82.107 101.397 100.035 80.6344 105.51C59.872 110.986 38.6635 102.401 27.1074 85.6629H27.1222ZM131.752 55.237L11.4315 86.9424L4.24793 59.6856L124.583 27.9801L131.767 55.237H131.752Z" fill="#C51926" fill-opacity="0.85"/>
<path d="M36.4324 61.3819L35.3467 61.6646L36.1796 64.8188L36.7298 64.67C37.0422 64.5956 37.3099 64.4915 37.5478 64.3724C37.7858 64.2534 37.994 64.1195 38.1874 63.941C38.3807 63.7624 38.5146 63.5542 38.5741 63.3012C38.6484 63.0483 38.6336 62.7805 38.5592 62.4829C38.4402 62.0068 38.1874 61.6646 37.8007 61.4563C37.4289 61.248 36.9678 61.2183 36.4324 61.3522V61.3819Z" fill="#C51926" fill-opacity="0.85"/>
<path d="M23.2553 66.4999C23.1512 66.2767 23.0322 66.0536 22.8686 65.875C22.7199 65.6816 22.5563 65.518 22.3778 65.3989C22.1993 65.2799 22.006 65.1906 21.768 65.146C21.5301 65.1014 21.2772 65.1311 21.0244 65.1906C20.7864 65.2501 20.5931 65.3394 20.4146 65.4584C20.251 65.5775 20.1172 65.7263 20.0279 65.8899C19.9387 66.0536 19.8643 66.2321 19.8048 66.4255C19.7453 66.6189 19.7305 66.8272 19.7305 67.0504C19.7305 67.2587 19.7305 67.4819 19.7602 67.7199C19.7751 67.9431 19.8197 68.1812 19.8643 68.3895C19.9089 68.6126 19.9684 68.8209 20.0131 69.0441C20.0577 69.2524 20.1172 69.4607 20.1767 69.6392C20.2213 69.788 20.2361 69.8922 20.2659 69.9517C20.2808 70.0112 20.3105 70.1004 20.3403 70.2195C20.3997 70.398 20.4444 70.5914 20.489 70.7848C20.5336 70.9783 20.5931 71.1866 20.6675 71.3949C20.7418 71.6031 20.8162 71.8114 20.8905 72.0197C20.9649 72.228 21.0541 72.4214 21.1434 72.6149C21.2475 72.8083 21.3516 72.9868 21.4557 73.1505C21.5598 73.3141 21.6788 73.4629 21.8275 73.582C21.9614 73.7159 22.1101 73.82 22.2588 73.8944C22.4076 73.9688 22.586 74.0283 22.7794 74.0432C22.9727 74.058 23.1661 74.0432 23.3743 73.9837C23.6123 73.9241 23.8056 73.8349 23.9692 73.701C24.1328 73.5671 24.2667 73.4183 24.3559 73.2546C24.4451 73.0761 24.5195 72.8976 24.5641 72.6744C24.6087 72.4661 24.6385 72.2429 24.6236 72.0049C24.6236 71.7668 24.6087 71.5288 24.579 71.2907C24.5492 71.0527 24.5195 70.7997 24.46 70.5617C24.4005 70.3236 24.3559 70.0856 24.2964 69.8624C24.2369 69.6392 24.1923 69.416 24.1328 69.2078C24.1031 69.0887 24.0733 68.9995 24.0584 68.9399C24.0436 68.8804 24.0138 68.7763 23.9692 68.6275C23.9097 68.4192 23.8502 68.1812 23.7907 67.9431C23.7312 67.7051 23.6569 67.4521 23.5676 67.2141C23.4784 66.9611 23.3743 66.7231 23.2702 66.4999H23.2553Z" fill="#C51926" fill-opacity="0.85"/>
<path d="M100.073 49.405L102.126 48.8545L99.8799 44.5547L100.073 49.405Z" fill="#C51926" fill-opacity="0.85"/>
<path d="M6.52344 60.9652L12.7849 84.7257L129.491 53.9724L123.23 30.2119L6.52344 60.9652Z" fill="#C51926" fill-opacity="0.85"/>
<path d="M37.9194 41.4303C37.9343 41.7576 37.8302 42.4271 37.4881 43.2157C36.5363 45.4474 34.6623 46.0128 32.8181 45.2242C30.6169 44.2869 30.0518 42.204 30.8846 40.24C31.197 39.4812 31.5985 38.9754 31.8514 38.7671L32.8925 39.5556C32.6396 39.7937 32.357 40.1656 32.1339 40.6864C31.6431 41.8469 31.9555 43.052 33.3981 43.662C34.6921 44.2125 35.8373 43.7959 36.3875 42.4866C36.566 42.0403 36.685 41.5196 36.685 41.1774L37.9194 41.4452V41.4303Z" fill="#C51926" fill-opacity="0.85"/>
<path d="M33.6955 35.2711L35.9265 36.7886L37.384 34.6164L35.1531 33.0988L36.0454 31.7896L41.8607 35.7323L40.9683 37.0416L38.5292 35.3901L37.0568 37.5623L39.481 39.2138L38.5887 40.5379L32.7734 36.5952L33.6658 35.2711H33.6955Z" fill="#C51926" fill-opacity="0.85"/>
<path d="M41.9646 23.9338C42.2471 24.038 42.5595 24.2165 42.7974 24.4843C43.2287 24.9455 43.2734 25.496 42.7677 26.0763L42.6487 26.2102L44.7755 28.4568C46.2628 30.0339 46.1884 31.5366 44.8499 32.7864C43.5708 34.0064 42.143 34.0064 40.5963 32.3846L37.9043 29.5429L39.0644 28.4419L41.8456 31.3729C42.6785 32.2507 43.437 32.3846 44.017 31.8193C44.6268 31.2539 44.5524 30.51 43.7047 29.6024L40.9235 26.6714L41.801 25.8382C42.1133 25.5407 42.0984 25.3621 41.9199 25.1687C41.7712 25.0051 41.5481 24.886 41.2804 24.8116L41.9646 23.9189V23.9338ZM40.1203 25.1687L40.0757 26.9839L39.1536 27.8617L38.9156 26.3292L40.1203 25.1836V25.1687Z" fill="#C51926" fill-opacity="0.85"/>
<path d="M48.3895 29.5128L44.7754 23.502L46.3668 22.5498L48.9398 24.0079C49.6834 24.4245 50.4865 24.9601 51.1558 25.4808H51.1855C50.6204 24.722 50.0998 23.9335 49.5644 23.0259L48.5084 21.2703L49.7578 20.5264L53.3718 26.5372L51.9441 27.4001L49.267 25.8528C48.5233 25.4213 47.6607 24.8857 46.9468 24.3649L46.9171 24.3947C47.4376 25.1684 47.9582 26.0015 48.5382 26.9835L49.6239 28.7987L48.3746 29.5426L48.3895 29.5128Z" fill="#C51926" fill-opacity="0.85"/>
<path d="M60.11 23.7402C59.6936 24.0526 58.8904 24.5734 58.013 24.8709C56.8083 25.2875 55.8267 25.2727 55.0087 24.9007C54.2055 24.5436 53.5809 23.7848 53.2537 22.8029C52.51 20.586 53.685 18.7858 55.8564 18.0419C56.719 17.7443 57.4329 17.6997 57.8047 17.7443L57.894 19.0536C57.4775 19.0238 56.9719 19.0536 56.2431 19.2916C54.9938 19.7231 54.2948 20.7497 54.7856 22.1929C55.2466 23.5617 56.377 24.0824 57.6114 23.6658C57.9535 23.5468 58.2212 23.4129 58.3104 23.3087L57.8345 21.9251L56.8083 22.2673L56.4067 21.0919L58.8756 20.2438L60.0654 23.7402H60.11Z" fill="#C51926" fill-opacity="0.85"/>
<path d="M63.8133 23.3831L63.501 16.3755L65.3601 16.3011L66.9366 18.8006C67.3828 19.5148 67.8438 20.3777 68.1859 21.1514H68.2156C68.0669 20.2289 67.9925 19.2916 67.9479 18.2353L67.8587 16.1821L69.3162 16.1226L69.6285 23.1302L67.9628 23.2046L66.3417 20.5711C65.8955 19.8421 65.3898 18.9643 65.018 18.146H64.9883C65.0775 19.0833 65.137 20.0653 65.1816 21.2109L65.2708 23.3236L63.8133 23.3831Z" fill="#C51926" fill-opacity="0.85"/>
<path d="M73.8079 16.5539L73.3617 19.2171L75.9347 19.6486L76.3809 16.9854L77.9425 17.2532L76.7824 24.1716L75.2208 23.9038L75.7116 21.0025L73.1386 20.5711L72.6478 23.4723L71.0713 23.2045L72.2314 16.2861L73.8079 16.5539Z" fill="#C51926" fill-opacity="0.85"/>
<path d="M80.3368 23.502L79.2213 24.9899L77.6895 24.3947L82.2256 18.6369L84.1591 19.3957L83.6386 26.7157L82.0472 26.0908L82.1959 24.2162L80.3219 23.4872L80.3368 23.502ZM79.3701 26.7157C79.5188 26.3438 79.9204 26.1652 80.3071 26.314C80.6789 26.4628 80.8425 26.8645 80.6937 27.2365C80.5599 27.5787 80.1583 27.787 79.7865 27.6382C79.3998 27.4894 79.2213 27.0579 79.3701 26.7157ZM82.419 23.0408L82.5528 21.4935C82.5826 21.062 82.6569 20.5264 82.7164 20.1098H82.7016C82.4487 20.452 82.1662 20.9132 81.9133 21.2405L80.9912 22.4754L82.4339 23.0408H82.419ZM84.3673 17.6995L84.8879 19.2766L83.8468 18.8749L83.5939 18.0864H83.5791L82.8652 18.4881L81.8389 18.0864L83.2667 17.2681L84.3673 17.6995Z" fill="#C51926" fill-opacity="0.85"/>
<path d="M84.501 27.1921L88.3233 21.3003L89.8849 22.312L89.7064 25.2728C89.6618 26.1208 89.528 27.073 89.3644 27.9211H89.3941C89.8106 27.1028 90.3013 26.2845 90.8665 25.4067L91.982 23.6808L93.2015 24.4694L89.3792 30.3611L87.9812 29.4536L88.2043 26.3589C88.2638 25.4959 88.3679 24.4991 88.5315 23.6213H88.5017C88.0407 24.4098 87.5053 25.2579 86.8955 26.225L85.7503 27.9955L84.5307 27.2069L84.501 27.1921Z" fill="#C51926" fill-opacity="0.85"/>
<path d="M46.1291 85.618L44.5824 87.8349L46.724 89.3227L48.2708 87.1058L49.5647 88.0134L45.5491 93.7713L44.2552 92.8637L45.9358 90.4534L43.7941 88.9656L42.1135 91.3759L40.8047 90.4683L44.8203 84.7104L46.1291 85.618Z" fill="#C51926" fill-opacity="0.85"/>
<path d="M55.6777 94.4259C54.8151 96.5535 53.0007 97.3272 51.0969 96.5535C49.1635 95.765 48.6281 93.8457 49.3866 92.0008C50.1748 90.0517 52.0191 89.0995 53.9376 89.8881C55.9306 90.6915 56.4214 92.6406 55.6926 94.4259H55.6777ZM50.9482 92.6108C50.4277 93.8903 50.6656 95.0211 51.6472 95.4228C52.6437 95.8245 53.5956 95.1103 54.1161 93.8457C54.592 92.6703 54.4433 91.4503 53.432 91.0337C52.4355 90.632 51.4688 91.3461 50.9631 92.6108H50.9482Z" fill="#C51926" fill-opacity="0.85"/>
<path d="M58.7858 96.9255L57.9678 98.6067L56.3467 98.3092L59.693 91.7925L61.7455 92.1645L62.6379 99.4548L60.9572 99.1572L60.749 97.2974L58.7709 96.9404L58.7858 96.9255ZM60.749 96.0774L60.5854 94.5301C60.5408 94.0986 60.5111 93.563 60.4813 93.1315H60.4664C60.288 93.5184 60.0946 94.0242 59.9013 94.3962L59.232 95.7799L60.7639 96.0477L60.749 96.0774ZM60.9275 90.3344L61.567 91.733L60.3177 91.5098L59.2915 90.0518L60.9275 90.3493V90.3344Z" fill="#C51926" fill-opacity="0.85"/>
<path d="M65.3449 99.6337L65.1367 92.6112L66.9958 92.5516L68.5277 95.0809C68.959 95.81 69.4052 96.6729 69.7473 97.4466H69.777C69.6432 96.5241 69.5837 95.5719 69.5539 94.5304L69.4944 92.4773L70.952 92.4326L71.1602 99.4551L69.4944 99.4998L67.9179 96.8366C67.4866 96.0927 66.9958 95.2 66.624 94.3965H66.5942C66.6686 95.3339 66.7132 96.3158 66.743 97.4615L66.8025 99.5742L65.3449 99.6188V99.6337Z" fill="#C51926" fill-opacity="0.85"/>
<path d="M76.5886 92.6257L74.7742 93.1614L74.4023 91.8818L79.5781 90.3643L79.9499 91.6438L78.1057 92.1794L79.697 97.6397L78.1652 98.086L76.5738 92.6257H76.5886Z" fill="#C51926" fill-opacity="0.85"/>
<path d="M82.1063 89.2188L83.3407 91.6142L85.6609 90.4091L84.4264 88.0137L85.8245 87.2847L89.0519 93.5186L87.6538 94.2477L86.3004 91.644L83.9802 92.8491L85.3337 95.4528L83.9208 96.1818L80.6934 89.9479L82.1063 89.2188Z" fill="#C51926" fill-opacity="0.85"/>
<path d="M88.1592 83.4458L89.6316 83.8624L88.65 84.6658L86.8652 84.5022L88.1443 83.4458H88.1592ZM91.803 89.3376L92.5615 91.0486L91.2973 92.09L88.5012 85.3205L90.1075 83.9963L96.2351 88.0283L94.9114 89.1144L93.3498 88.0729L91.803 89.3525V89.3376ZM92.4276 87.2844L91.1486 86.4066C90.7916 86.1685 90.3603 85.8412 90.0183 85.5883H90.0034C90.1819 85.99 90.4496 86.4661 90.6132 86.8529L91.2378 88.2663L92.4276 87.2844Z" fill="#C51926" fill-opacity="0.85"/>
<path d="M98.1094 86.0495L92.6064 81.6902L93.7665 80.2321L96.6965 80.6933C97.5293 80.8272 98.4812 81.0504 99.2992 81.2885V81.2587C98.5258 80.7677 97.7673 80.2023 96.9344 79.5477L95.3282 78.2682L96.2354 77.1226L101.738 81.4819L100.697 82.7912L97.6483 82.2853C96.8006 82.1514 95.8041 81.9431 94.9415 81.7051V81.7348C95.6851 82.2853 96.4734 82.8804 97.3657 83.5946L99.0166 84.9039L98.1094 86.0495Z" fill="#C51926" fill-opacity="0.85"/>
<path d="M97.7974 74.3108L100.222 75.4862L101.367 73.1354L98.9426 71.9601L99.6268 70.5317L105.933 73.5967L105.249 75.025L102.616 73.7454L101.471 76.0962L104.118 77.3757L103.419 78.804L97.1133 75.7391L97.8123 74.3108H97.7974Z" fill="#C51926" fill-opacity="0.85"/>
<path d="M28.3712 59.522L29.0108 61.8876L25.129 62.9291L28.401 75.159L25.4711 75.9475L22.1991 63.7176L18.3173 64.7591L17.6777 62.3935L28.3861 59.522H28.3712Z" fill="white"/>
<path d="M36.0749 59.9833L37.0565 63.6433L41.9645 62.3341L42.5891 64.6551L37.6811 65.9643L38.7222 69.8327L44.2698 68.3449L44.9093 70.7254L36.4467 73.0017L32.5352 58.3765L40.9978 56.1001L41.6373 58.4806L36.0897 59.9684L36.0749 59.9833Z" fill="white"/>
<path d="M57.7897 67.2735L50.74 62.1852L52.4801 68.687L49.5502 69.4755L45.6387 54.88L48.5686 54.0914L50.3236 60.6379L53.8782 52.6631L57.4179 51.7109L53.3279 60.5635L61.493 66.2618L57.7897 67.2587V67.2735Z" fill="white"/>
<path d="M64.1703 62.3936L63.5605 60.0875L67.7695 48.4676L71.1754 47.5601L73.7335 57.097L75.5777 56.606L76.2619 59.1502L74.4177 59.6412L75.2059 62.6168L72.276 63.4054L71.4877 60.4297L64.1703 62.3936ZM69.2717 51.4284L66.6987 58.9716L70.982 57.826L69.2717 51.4284Z" fill="white"/>
<path d="M81.1399 60.6532C80.7086 60.4151 80.426 60.058 80.2922 59.5671C80.1583 59.0761 80.2178 58.6297 80.4706 58.2131C80.7235 57.7965 81.1102 57.5139 81.6456 57.3651C82.1661 57.2312 82.6272 57.2758 83.0585 57.5139C83.4749 57.7519 83.7575 58.1239 83.8914 58.6C84.0252 59.091 83.9657 59.5373 83.7129 59.9539C83.4601 60.3705 83.0882 60.6532 82.5677 60.7871C82.0323 60.921 81.5563 60.8763 81.125 60.6532H81.1399Z" fill="white"/>
<path d="M97.886 40.8799L96.4434 56.9186L92.8888 57.8708L83.623 44.7036L86.7612 43.8555L93.8853 54.3893L94.7627 41.7131L97.8711 40.8799H97.886Z" fill="white"/>
<path d="M118.039 51.1309L115.109 51.9194L105.799 43.6769L108.476 53.6899L105.546 54.4785L101.635 39.8532L104.565 39.0647L113.875 47.3221L111.183 37.2793L114.113 36.4907L118.025 51.116L118.039 51.1309Z" fill="white"/>
</g>
<defs>
<clipPath id="clip0_2564_10860">
<rect width="135" height="113" fill="white" transform="translate(0.5 0.961426)"/>
</clipPath>
</defs>
</svg>
