<svg width="12" height="10" viewBox="0 0 12 10" fill="none" xmlns="http://www.w3.org/2000/svg">
<path d="M8.85 9.90782e-09C9.19208 -4.08127e-05 9.52141 0.126069 9.77145 0.352844C10.0215 0.579618 10.1736 0.890145 10.197 1.22167L10.2 1.31143V7.86857C10.1999 7.94139 10.2278 8.01163 10.2783 8.06545C10.3288 8.11927 10.3982 8.15276 10.4729 8.15934C10.5476 8.16592 10.622 8.14511 10.6817 8.101C10.7414 8.05689 10.7818 7.99269 10.7952 7.92103L10.8 7.86857V1.75673C11.1132 1.79074 11.4042 1.93011 11.6227 2.15067C11.8412 2.37124 11.9734 2.65911 11.9964 2.96441L12 3.06V7.43143C12 7.91528 11.8095 8.3808 11.4674 8.7325C11.1253 9.0842 10.6577 9.2954 10.1604 9.3228L10.05 9.32571H1.95C1.45192 9.32574 0.972703 9.14062 0.610662 8.80832C0.24862 8.47603 0.0311992 8.02175 0.00300008 7.53867L1.01992e-08 7.43143V1.31143C-4.20131e-05 0.979126 0.129777 0.659199 0.363222 0.416304C0.596666 0.173408 0.916326 0.0256586 1.2576 0.00291436L1.35 9.90782e-09H8.85ZM4.3488 4.08H2.2488C2.12945 4.08 2.01499 4.12605 1.9306 4.20803C1.84621 4.29002 1.7988 4.4012 1.7988 4.51714V6.55714C1.7988 6.79844 2.0004 6.99428 2.2488 6.99428H4.3488C4.46815 6.99428 4.58261 6.94823 4.667 6.86625C4.75139 6.78427 4.7988 6.67308 4.7988 6.55714V4.51714C4.7988 4.4012 4.75139 4.29002 4.667 4.20803C4.58261 4.12605 4.46815 4.08 4.3488 4.08ZM7.9512 6.12H6.4524L6.3912 6.12408C6.27825 6.13917 6.17541 6.19536 6.10346 6.28128C6.03151 6.36719 5.99581 6.47644 6.00358 6.58694C6.01136 6.69744 6.06202 6.80095 6.14533 6.87656C6.22864 6.95218 6.33839 6.99425 6.4524 6.99428H7.9512L8.0124 6.9902C8.12535 6.97511 8.22819 6.91892 8.30014 6.83301C8.37209 6.74709 8.40779 6.63784 8.40002 6.52735C8.39225 6.41685 8.34159 6.31333 8.25828 6.23772C8.17496 6.16211 8.06521 6.12003 7.9512 6.12ZM3.8988 4.95428V6.12H2.6988V4.95428H3.8988ZM7.95 4.08L6.4512 4.08291L6.39 4.08641C6.27595 4.10043 6.17175 4.15632 6.09878 4.24261C6.02581 4.3289 5.98961 4.43905 5.99759 4.55045C6.00557 4.66185 6.05714 4.76606 6.14171 4.8417C6.22629 4.91734 6.33745 4.95866 6.4524 4.9572L7.9518 4.95428L8.0124 4.9502C8.1254 4.9351 8.22828 4.87887 8.30024 4.79289C8.37219 4.70691 8.40785 4.5976 8.4 4.48705C8.39215 4.37651 8.34137 4.27299 8.25795 4.19742C8.17452 4.12185 8.06467 4.07988 7.9506 4.08H7.95ZM7.9506 2.04233H2.2488L2.1876 2.04641C2.07465 2.06151 1.97181 2.11769 1.89986 2.20361C1.82791 2.28953 1.79221 2.39877 1.79998 2.50927C1.80776 2.61977 1.85841 2.72328 1.94173 2.7989C2.02504 2.87451 2.13479 2.91658 2.2488 2.91662H7.9512L8.0124 2.91312C8.12632 2.89908 8.2304 2.84327 8.30334 2.75711C8.37628 2.67095 8.41255 2.56097 8.40473 2.44968C8.39691 2.33838 8.34559 2.23421 8.26127 2.15848C8.17695 2.08275 8.06603 2.0412 7.9512 2.04233H7.9506Z" fill="white"/>
</svg>
