<svg width="25" height="25" viewBox="0 0 25 25" fill="none" xmlns="http://www.w3.org/2000/svg">
<path d="M21.5 3.61133H3.5C2.96957 3.61133 2.46086 3.82204 2.08579 4.19711C1.71071 4.57219 1.5 5.0809 1.5 5.61133V8.61133H3.5V5.61133H21.5V19.6113H14.5V21.6113H21.5C22.0304 21.6113 22.5391 21.4006 22.9142 21.0255C23.2893 20.6505 23.5 20.1418 23.5 19.6113V5.61133C23.5 5.0809 23.2893 4.57219 22.9142 4.19711C22.5391 3.82204 22.0304 3.61133 21.5 3.61133ZM1.5 18.6113V21.6113H4.5C4.5 20.8157 4.18393 20.0526 3.62132 19.49C3.05871 18.9274 2.29565 18.6113 1.5 18.6113ZM1.5 14.6113V16.6113C2.15661 16.6113 2.80679 16.7407 3.41342 16.9919C4.02005 17.2432 4.57124 17.6115 5.03553 18.0758C5.49983 18.5401 5.86812 19.0913 6.1194 19.6979C6.37067 20.3045 6.5 20.9547 6.5 21.6113H8.5C8.5 19.7548 7.7625 17.9743 6.44975 16.6616C5.13699 15.3488 3.35652 14.6113 1.5 14.6113ZM1.5 10.6113V12.6113C2.6819 12.6113 3.85222 12.8441 4.94415 13.2964C6.03608 13.7487 7.02823 14.4116 7.86396 15.2474C8.69969 16.0831 9.36262 17.0752 9.81492 18.1672C10.2672 19.2591 10.5 20.4294 10.5 21.6113H12.5C12.5 15.5313 7.57 10.6113 1.5 10.6113ZM11.5 11.7013V13.7013L15 15.6113L18.5 13.7013V11.7013L15 13.6113L11.5 11.7013ZM15 6.61133L9.5 9.61133L15 12.6113L20.5 9.61133L15 6.61133Z" fill="url(#paint0_linear_3184_16281)"/>
<defs>
<linearGradient id="paint0_linear_3184_16281" x1="12.0174" y1="6.24419" x2="12.0174" y2="18.8819" gradientUnits="userSpaceOnUse">
<stop offset="0.247917" stop-color="#D7495A"/>
<stop offset="1" stop-color="#FF8F6B"/>
</linearGradient>
</defs>
</svg>
