<svg width="26" height="24" viewBox="0 0 26 24" fill="none" xmlns="http://www.w3.org/2000/svg">
<path d="M17.9031 20.3429L17.2296 14.9503C17.1341 14.1865 16.7629 13.4839 16.1857 12.9745C15.6086 12.4652 14.8652 12.1843 14.0955 12.1846H11.776C11.0066 12.1848 10.2637 12.4659 9.687 12.9752C9.11028 13.4845 8.73937 14.1869 8.64397 14.9503L7.96937 20.3429C7.93235 20.6392 7.95878 20.9399 8.04691 21.2252C8.13504 21.5104 8.28285 21.7737 8.48053 21.9975C8.67821 22.2212 8.92124 22.4004 9.19346 22.523C9.46569 22.6456 9.76089 22.7089 10.0595 22.7087H15.8141C16.1125 22.7088 16.4076 22.6454 16.6797 22.5227C16.9518 22.4 17.1947 22.2208 17.3923 21.9971C17.5899 21.7733 17.7376 21.5101 17.8256 21.2249C17.9137 20.9397 17.9401 20.6391 17.9031 20.3429V20.3429Z" stroke="#D54253" stroke-width="2" stroke-linecap="round" stroke-linejoin="round"/>
<path d="M12.9365 7.97464C14.6802 7.97464 16.0938 6.56109 16.0938 4.8174C16.0938 3.0737 14.6802 1.66016 12.9365 1.66016C11.1928 1.66016 9.7793 3.0737 9.7793 4.8174C9.7793 6.56109 11.1928 7.97464 12.9365 7.97464Z" stroke="#D54253" stroke-width="2"/>
<path d="M4.51889 11.1315C5.68135 11.1315 6.62372 10.1892 6.62372 9.0267C6.62372 7.86424 5.68135 6.92188 4.51889 6.92188C3.35643 6.92188 2.41406 7.86424 2.41406 9.0267C2.41406 10.1892 3.35643 11.1315 4.51889 11.1315Z" stroke="#D54253" stroke-width="2"/>
<path d="M21.3568 11.1315C22.5192 11.1315 23.4616 10.1892 23.4616 9.0267C23.4616 7.86424 22.5192 6.92188 21.3568 6.92188C20.1943 6.92188 19.252 7.86424 19.252 9.0267C19.252 10.1892 20.1943 11.1315 21.3568 11.1315Z" stroke="#D54253" stroke-width="2"/>
<path d="M4.51781 14.2891H4.19577C3.69752 14.289 3.2154 14.4657 2.83519 14.7877C2.45498 15.1097 2.20132 15.5562 2.11936 16.0476L1.76891 18.1525C1.71862 18.454 1.73462 18.7629 1.81581 19.0577C1.897 19.3524 2.04143 19.626 2.23905 19.8592C2.43667 20.0925 2.68273 20.2799 2.96013 20.4085C3.23752 20.537 3.53959 20.6036 3.84532 20.6035H7.67505" stroke="#D54253" stroke-width="2" stroke-linecap="round" stroke-linejoin="round"/>
<path d="M21.3565 14.2891H21.6785C22.1768 14.289 22.6589 14.4657 23.0391 14.7877C23.4193 15.1097 23.6729 15.5562 23.7549 16.0476L24.1054 18.1525C24.1557 18.454 24.1397 18.7629 24.0585 19.0577C23.9773 19.3524 23.8328 19.626 23.6352 19.8592C23.4376 20.0925 23.1915 20.2799 22.9141 20.4085C22.6367 20.537 22.3347 20.6036 22.029 20.6035H18.1992" stroke="#D54253" stroke-width="2" stroke-linecap="round" stroke-linejoin="round"/>
</svg>
