<svg width="24" height="25" viewBox="0 0 24 25" fill="none" xmlns="http://www.w3.org/2000/svg">
<g clip-path="url(#clip0_616_822)">
<path d="M11.5857 9.60218C12.0534 9.60218 12.5106 9.74086 12.8994 10.0007C13.2882 10.2605 13.5913 10.6298 13.7703 11.0618C13.9492 11.4939 13.9961 11.9693 13.9048 12.428C13.8136 12.8867 13.5884 13.308 13.2577 13.6387C12.927 13.9694 12.5057 14.1946 12.047 14.2858C11.5884 14.377 11.1129 14.3302 10.6809 14.1513C10.2488 13.9723 9.87952 13.6692 9.6197 13.2804C9.35988 12.8915 9.2212 12.4344 9.2212 11.9667C9.2212 11.3396 9.47032 10.7382 9.91376 10.2947C10.3572 9.8513 10.9586 9.60218 11.5857 9.60218ZM11.5857 8.65637C10.931 8.65637 10.291 8.85052 9.74661 9.21427C9.20222 9.57801 8.77793 10.095 8.52738 10.6999C8.27682 11.3048 8.21127 11.9704 8.339 12.6125C8.46673 13.2547 8.78201 13.8445 9.24497 14.3075C9.70793 14.7704 10.2978 15.0857 10.9399 15.2135C11.5821 15.3412 12.2477 15.2756 12.8525 15.0251C13.4574 14.7745 13.9744 14.3502 14.3382 13.8058C14.7019 13.2615 14.8961 12.6214 14.8961 11.9667C14.8961 11.0888 14.5473 10.2468 13.9265 9.62595C13.3057 9.00514 12.4637 8.65637 11.5857 8.65637Z" fill="#777682"/>
<path d="M17.3797 21.8978H16.3039V19.484C16.3039 19.167 16.2343 18.8531 16.0991 18.5603C15.9639 18.2674 15.7658 18.0013 15.5161 17.7772C15.2663 17.553 14.9698 17.3752 14.6435 17.2539C14.3172 17.1326 13.9674 17.0702 13.6142 17.0702H10.3866C9.67327 17.0702 8.98915 17.3245 8.48474 17.7772C7.98033 18.2299 7.69696 18.8438 7.69696 19.484V21.8978H6.62109V19.484C6.62109 18.5877 7.01782 17.7282 7.72399 17.0945C8.43016 16.4607 9.38793 16.1047 10.3866 16.1047H13.6142C14.6129 16.1047 15.5706 16.4607 16.2768 17.0945C16.983 17.7282 17.3797 18.5877 17.3797 19.484V21.8978Z" fill="#777682"/>
<circle cx="12" cy="13.3805" r="10.25" stroke="#777682" stroke-width="1.5"/>
</g>
<defs>
<clipPath id="clip0_616_822">
<rect width="24" height="24" fill="white" transform="translate(0 0.380524)"/>
</clipPath>
</defs>
</svg>
