<svg width="25" height="25" viewBox="0 0 25 25" fill="none" xmlns="http://www.w3.org/2000/svg">
<path d="M1.21884 23.906C1.22199 24.3 1.54643 24.6184 1.94332 24.6121L23.7941 24.3473C24.1879 24.341 24.506 24.0163 24.4997 23.6223C24.4934 23.2282 24.1721 22.9098 23.7752 22.9161L1.92442 23.1841C1.53068 23.1872 1.21254 23.5119 1.21884 23.906Z" fill="url(#paint0_linear_3184_16303)"/>
<path d="M10.4622 21.5781C10.4685 21.5781 10.4717 21.5781 10.478 21.5781L13.7696 21.5213C14.4595 21.5087 14.9918 20.8404 14.9855 19.9987L14.8752 7.49327C14.8721 7.03617 14.7052 6.6106 14.4154 6.33004C14.1949 6.11253 13.9114 5.99589 13.6247 6.0022L10.3331 6.05894C9.64328 6.07155 9.11094 6.73985 9.11724 7.58153L9.22749 20.087C9.23064 20.5441 9.39758 20.9665 9.68737 21.2471C9.90472 21.4646 10.1788 21.5781 10.4622 21.5781ZM10.352 7.10868L13.6436 7.05194C13.6814 7.05509 13.8295 7.20955 13.8326 7.50588L13.9429 20.0113C13.946 20.3203 13.7917 20.4779 13.7539 20.481L10.4622 20.5346C10.4244 20.5315 10.2764 20.3802 10.2733 20.0807L10.163 7.57523C10.1599 7.2663 10.3142 7.10868 10.352 7.10868Z" fill="url(#paint1_linear_3184_16303)"/>
<path d="M19.1388 21.5356C19.1451 21.5356 19.1514 21.5356 19.1577 21.5356L22.4493 21.4599C23.1486 21.4442 23.6683 20.634 23.662 19.5717L23.5549 2.46064C23.5518 1.8144 23.347 1.23437 23.01 0.906523C22.8053 0.711076 22.5659 0.610201 22.3013 0.613353L19.0096 0.68901C18.3104 0.704771 17.7906 1.51493 17.7969 2.57727L17.9072 19.6851C17.9103 20.3282 18.1151 20.9083 18.4521 21.2361C18.6506 21.4315 18.8899 21.5356 19.1388 21.5356ZM19.0695 1.73244L22.2855 1.65678C22.358 1.72614 22.5092 1.99724 22.5123 2.46694L22.6226 19.5748C22.6257 20.0414 22.4714 20.3408 22.3958 20.4133L19.1797 20.489C19.1073 20.4196 18.9561 20.1485 18.9529 19.6788L18.8395 2.57097C18.8364 2.10442 18.9907 1.80495 19.0695 1.73244Z" fill="url(#paint2_linear_3184_16303)"/>
<path d="M5.79817 10.3789C5.57768 10.1645 5.29734 10.0447 5.00755 10.051L1.71591 10.1078C1.02609 10.1172 0.493756 10.7887 0.500055 11.6303L0.575653 20.1386C0.578803 20.5956 0.745747 21.0181 1.03554 21.2986C1.25288 21.5098 1.52692 21.6265 1.81041 21.6265C1.81671 21.6265 1.82301 21.6265 1.82616 21.6265L5.1178 21.5697C5.80762 21.5571 6.33995 20.8888 6.33365 20.0471L6.25806 11.5389C6.25176 11.085 6.08481 10.6594 5.79817 10.3789ZM5.0989 20.5263L1.80726 20.583C1.76946 20.5799 1.62142 20.4286 1.61827 20.1291L1.54267 11.6209C1.53952 11.3088 1.69701 11.1512 1.73166 11.1512L5.0233 11.0944C5.0674 11.1008 5.20914 11.2552 5.21229 11.5484L5.28789 20.0566C5.29104 20.3687 5.1367 20.5263 5.0989 20.5263Z" fill="url(#paint3_linear_3184_16303)"/>
<defs>
<linearGradient id="paint0_linear_3184_16303" x1="12.3485" y1="23.1641" x2="12.3485" y2="24.355" gradientUnits="userSpaceOnUse">
<stop offset="0.247917" stop-color="#D7495A"/>
<stop offset="1" stop-color="#FF8F6B"/>
</linearGradient>
<linearGradient id="paint1_linear_3184_16303" x1="11.9226" y1="8.28027" x2="11.9226" y2="19.2162" gradientUnits="userSpaceOnUse">
<stop offset="0.247917" stop-color="#D7495A"/>
<stop offset="1" stop-color="#FF8F6B"/>
</linearGradient>
<linearGradient id="paint2_linear_3184_16303" x1="20.6008" y1="3.67359" x2="20.6008" y2="18.363" gradientUnits="userSpaceOnUse">
<stop offset="0.247917" stop-color="#D7495A"/>
<stop offset="1" stop-color="#FF8F6B"/>
</linearGradient>
<linearGradient id="paint3_linear_3184_16303" x1="3.28888" y1="11.744" x2="3.28888" y2="19.8712" gradientUnits="userSpaceOnUse">
<stop offset="0.247917" stop-color="#D7495A"/>
<stop offset="1" stop-color="#FF8F6B"/>
</linearGradient>
</defs>
</svg>
